<?xml version="1.0" encoding="utf-8"?>
<!-- Generator: Adobe Illustrator 27.9.0, SVG Export Plug-In . SVG Version: 6.00 Build 0)  -->
<svg version="1.1" id="Layer_1" xmlns="http://www.w3.org/2000/svg" xmlns:xlink="http://www.w3.org/1999/xlink" x="0px" y="0px"
	 viewBox="0 0 223 236" style="enable-background:new 0 0 223 236;" xml:space="preserve">
<style type="text/css">
	.st0{fill:#9F5380;}
</style>
<g>
	<g>
		<path class="st0" d="M149.4,146.4c-0.8,1.1-1.3,1.8-1.9,2.6c-0.3-0.1-0.9-0.3-1.9-0.6c0.1,1.5,0.1,2.9,0.4,4.2
			c0.1,0.5,1.2,1,1.7,0.9c0.5-0.1,0.7-1.1,1.1-1.7c2,1.1,2.2,4.4,0.3,6.2c-0.8,0.7-1.6,1.5-2.4,2.1c-0.9,0.7-1.8,1.2-2.8,1.8
			c1.4,0.2,2.6,0.5,3.9,0.7c0,0.2,0,0.5,0,0.7c-0.6,0.1-1.1,0.1-1.7,0.2c-1,0-2.1-0.1-3.1,0.1c-1.6,0.4-3,1.2-4.6,1.7
			c-0.7,0.2-1.6,0.2-2.3,0c-2-0.4-3.9-0.8-6-1.3c-0.3,1.1-0.5,2.1-0.9,3.6c-0.4-0.8-0.6-1.1-0.6-1.4c0.1-2.7-1.4-4.4-3.9-4.3
			c-1,0-2,0.4-2.8,0.1c-1.9-0.7-3,0.5-3.6,1.7c-1.5,2.9-4.1,4.6-6.6,6.5c-1.1,0.9-2.3,1.7-3.6,2.3c-2,0.9-3.4,0.3-5.1-1.3
			c-1-1-2.5-1.6-1.9-3.3c0.5-1.3,1.3-2.6,2.2-3.8c1.3-1.7,2.6-3.6,4.3-4.8c1.8-1.3,4.1-2.2,6.2-2.7c1.7-0.4,3.8-1.5,4-3.3
			c0.3-2.4,0.3-4.8,0.4-7.3c0-2,0.9-3.6,2.5-4.8c0.7-0.6,1.5-1.2,2.1-2c0.8-0.2,2,0.3,2.3-1.2c0-0.2,0.3-0.3,0.5-0.4
			c3.3-0.5,5.6-2.7,8-4.8c0.4-0.4,1.1-0.6,1.4-1c0.6-0.8,1.3-1.4,1.3-2.7c0.1-1.4,1.2-2.7,2-4c1.2-1.9,6.4-4.4,8.1-3.9
			c0.5,0.1,0.9,0.5,1.4,0.8c1.8,1.2,3.5,2.4,5.3,3.5c0.3,0.2,0.9,0.1,1.3,0c1.1-0.4,1.8-0.1,2.6,0.6c2,1.7,2.1,1.9,1.3,4.3
			c-0.9,2.7-2.1,5.1-5.2,6.2c0.4-0.5,0.8-1,1.2-1.4c0.5-0.5,1-0.9,1.2-1.6c-1.2,0.9-2.5,1.8-3.7,2.8c-0.1-0.1-0.2-0.3-0.4-0.4
			c0.7-0.8,1.4-1.6,2.1-2.4c-0.1-0.1-0.2-0.2-0.3-0.3c-0.9,0.6-1.7,1.1-3,2c0.3-1,0.4-1.5,0.6-2c-2.2,0.9-2.9,2.3-1.8,3.7
			c0.2-0.6,0.4-1,0.7-1.9c0.9,1.8,1.7,3.2,2.6,4.8c-2.1,0.6-1-2.7-2.9-2.2c0.7,1.2,1.4,2.3,2,3.4c-0.6,0.4-1.1,0.8-1.7,1.1
			c-0.2-0.3-0.5-0.8-0.8-1.3c-0.1,0-0.3,0.1-0.4,0.1c0.2,1.3-1.7,2.6,0.6,3.9C149.3,145.1,149.4,146.2,149.4,146.4z M129.2,162.7
			c0.2-0.1,0.4-0.2,0.6-0.3c2-0.8,2.1-1.2,0.6-2.6c-0.4-0.3-0.6-0.8-0.9-1.3c0.5-0.5,0.9-0.9,1.3-1.4c-0.5-0.6-0.9-1-1.5-1.7
			c-0.2,2.3-1.3,4.2-2.5,4.5c0.6-1.4,0.9-2.9,1.8-4c0.9-1,0.4-1.6-0.2-2.3c-0.2-0.2-0.6-0.3-0.9-0.4c-0.1,0.4-0.3,0.8-0.2,1.1
			c0.6,1,0.3,1.5-0.8,1.6c-1,0.1-0.9,0.6-0.4,1.2c0,0-0.1,0.2-0.3,0.4c-0.3-0.2-0.7-0.4-0.9-0.6c-0.2,0.9-0.2,1.8-0.5,1.9
			c-0.5,0.3-1.2,0.1-1.8,0.1c-0.6,0-1.3-0.1-2-0.1c-0.7-0.7-1.5-1.5-2.2-2.1c-1,0.3-1.7,0.6-2.3,0.8c0.1,0.9,0.1,1.8,0.2,2.8
			c0.6,0.3,1.7,1.1,2.1,0.9c1.6-1,3.2-0.7,4.7-0.5C125.3,161,127.5,161,129.2,162.7z M147.6,132.6c0.2,0.3,0.5,0.5,0.7,0.8
			c1-0.8,2.4-1.3,3-2.3c0.6-1,0.3-2.4,0.5-3.8c-1.3,0.6-1.6,1.4-1.8,2.6c-0.1,0.7-0.9,1.3-1.4,1.9
			C148.3,132.1,147.9,132.4,147.6,132.6z M144.1,152.4c0.1-0.1,0.2-0.2,0.3-0.3c-0.6-0.7-1.1-1.4-1.7-2.2c-0.5,1.1-0.8,1.8-1.2,2.8
			c0.4,0.4,1.1,1,1.7,1.6c0.1,0,0.2-0.1,0.3-0.2c-0.2-0.7-0.5-1.4-0.8-2.2C143.3,152.1,143.7,152.3,144.1,152.4z M126.9,149.5
			c0.6,0.9,1.1,1.7,1.7,2.5c0.2,0.2,0.6,0.3,0.9,0.4c0.1,0,0.4-0.4,0.4-0.6C129.8,150.4,128.1,149.2,126.9,149.5z M145.5,137.8
			c0.9,1.1,1.5,1.9,2.1,2.7c0.1-0.1,0.2-0.2,0.4-0.2c0.1-0.8,0.1-1.6,0.2-2.4C147.4,137.8,146.7,137.8,145.5,137.8z M137.3,155.5
			c0.2-0.1,0.4-0.2,0.6-0.3c-0.3-1-0.6-2-1.1-2.9c-0.2-0.3-0.7-0.5-1.1-0.7c-0.1,0.4-0.3,1-0.1,1.3
			C136.1,153.8,136.7,154.7,137.3,155.5z M138.8,146.9c0.1-0.8,0.1-1.4,0.2-1.9c0.4-1.4-0.4-1.4-1.2-1.1c0,0.6,0.2,1.2-0.1,1.5
			C136.7,147,137.8,146.8,138.8,146.9z M135.9,135.4c-0.1,0.2-0.2,0.4-0.2,0.5c0.8,1.4,2.5,2,3.8,1.2
			C138.2,136.5,137,135.9,135.9,135.4z M132.3,140.2c0.7,0.1,1.4,0.3,1.4,0.2c0.2-0.7,0.4-1.3,0.5-2c-0.5,0-1.2-0.2-1.4,0
			C132.6,138.7,132.6,139.4,132.3,140.2z M138.4,159.1c0.2,0,0.4,0,0.7,0c1-1.2,0.7-2.3-1.1-3.5
			C138.1,157.1,138.3,158.1,138.4,159.1z M132.8,145.5c-0.1,0.1-0.3,0.2-0.4,0.3c0.1,0.5,0.1,0.9,0.2,1.4c0.1,0.4,0.1,0.8,0.2,1.2
			c0.3,0,0.7,0,0.8-0.1c0.2-0.4,0.5-1,0.3-1.3C133.7,146.3,133.2,145.9,132.8,145.5z M130,143c-0.5,2.2,1.4,1.2,2,1.8
			C132.3,143.3,131.2,143.1,130,143z M109.6,163.8c0.6-0.9,1.1-1.5,1.5-2.2c0-0.1-0.1-0.3-0.1-0.4c-0.8,0.3-1.5,0.7-2.4,1.1
			C109,162.8,109.3,163.2,109.6,163.8z M144.6,137.4c0.2,0,0.5,0,0.7,0c0.2-0.5,0.6-1.2,0.4-1.5c-0.3-0.5-1-0.7-1.6-1
			c-0.1,0.1-0.2,0.2-0.3,0.4C144.1,136,144.3,136.7,144.6,137.4z M120.9,150.8c0.7,1,1.1,1.7,1.6,2.5
			C123.3,151.8,123.1,151.5,120.9,150.8z M131.7,150.5c-1.2,1.5-1.1,2,0.9,3.2C132.3,152.5,132.1,151.7,131.7,150.5z M133.9,155.5
			c0-1,0-1.9,0-2.9C132.1,154.6,132.1,154.9,133.9,155.5z M123.2,145.3c1.1,0.6,1.8,1,2.7,1.6C125.8,144.8,125.6,144.6,123.2,145.3z
			"/>
		<path class="st0" d="M149.4,166.9c1.2,0.9,1.7,2.1,1.8,3.5c0.1,0.7,0.2,1.3,0.5,2c0.6,1.6,1.4,3.2,2.1,4.8c0.9,2,1.9,3.7,4,4.6
			c1.9,0.8,3.7,1.8,5.5,2.7c1.4,0.7,2.8,1.5,4-0.5c0.8-1.3,2.5-2.8,2.2-3.8c-0.6-2.6-2.1-4.9-3.3-7.3c-0.4-0.8-1.1-1.5-1.8-2.2
			c-1.3-1.4-2.5-3.4-4.2-3.9c-2.8-1-6.1-2.2-8.8,0.6c-2.1-2.3-2.1-2.3-3.2-2.3C148.6,165.9,148.9,166.6,149.4,166.9z"/>
		<path class="st0" d="M134.1,194c1.3,1.1,2.8,1,3.9-0.3c0.5-0.6,0.7-1.5,0.8-2.3c0.3-2.4,0.6-4.7,0.8-7.1c0-0.4-0.4-0.9-0.7-1.3
			c-1.2-2-2.4-4-3.6-6c-0.6-1-2.7-1.8-3.6-1.2c-2.2,1.5-3.7,3.6-4.1,6.3c-0.1,0.9-0.3,1.9,0,2.7c0.9,2.2,2.1,4.2,3.3,6.4
			C131.9,192,132.9,193.1,134.1,194z"/>
		<path class="st0" d="M163.6,148.1c-0.5-0.1-1.3-0.3-2.2-0.5c0.1-0.3,0.1-0.5,0.2-0.8c1.1,0.2,2.2,0.3,3.4,0.5
			c1.2-0.4,2.8-1.1,4.3-1.4c1.9-0.4,3.9-0.4,5.9-0.5c1.8-0.1,3.3,0.5,4.4,2c0.3,0.5,0.9,0.7,1.2,1.1c0.6,0.9,1.6,1.9,1.6,2.9
			c0,0.9-1,2.1-1.9,2.5c-2,0.9-4.1,1.5-6.2,2c-0.8,0.2-1.7,0.2-2.5,0c-3.1-1.1-6.3-2.1-8.3-4.9C163,150.4,163.5,149.1,163.6,148.1z
			 M175.5,148.9c0.2-0.2,0.3-0.5,0.5-0.7c-0.7-0.5-1.4-1.1-2.2-1.6c-0.1,0-0.5,0.5-0.8,0.8C174,147.9,174.8,148.4,175.5,148.9z"/>
		<path class="st0" d="M169.4,129.7c0.3,0.2,0.8,0.2,1.2,0.2c2-0.1,4-0.3,6-0.4c1.8-0.1,3.7-2.1,3.5-3.8c-0.1-0.9-0.7-1.8-1.3-2.5
			c-0.8-0.9-2-2.4-2.9-2.3c-2.4,0.2-5.1,0-7.3,1.7c-1.2,0.9-2.3,2.1-4.1,1.7c-0.2,0-0.6,0.6-1.1,1.1c0.8,0.1,1.3,0.1,1.9,0.1
			c-1.2,1.9-0.1,2.9,1.6,3.7c-0.9,0.4-1.6,0.7-2.4,1c0.9,1.4,2.1,0.5,3.1,0.7C167.8,129.7,168.1,128.9,169.4,129.7z"/>
		<path class="st0" d="M137.2,202.4c-0.4-1.1-0.8-2.3-1.2-3.5c-1.6,0.4-0.7,1.8-0.4,2.1c1,1.6,0.8,4.1,3.3,4.7
			c0.4-4.6-0.1-6.5-1.4-6.7c0.1,1.1,0.3,2.1,0.4,3.2C137.7,202.3,137.5,202.4,137.2,202.4z"/>
		<path class="st0" d="M172.5,194c-1.7-0.2-1.4-2.9-3.6-2.2c1.2,1.6,2.2,3.1,3.4,4.4c0.2,0.2,1.2,0.1,1.3-0.1c0.9-1.2-0.4-4.7-2-5.6
			C171.9,191.8,172.1,192.9,172.5,194z"/>
		<path class="st0" d="M189.9,156.2c-2.6-0.6-2.6-0.6-2.8,0.3c1.7,0.9,3.3,1.7,5.1,2.5c-0.1-2.8-2.3-5.4-4.4-4.9
			C188.5,154.9,189.1,155.5,189.9,156.2z"/>
		<path class="st0" d="M100.2,177.3c0-0.3,0.2-0.7,0.1-1.1c-0.1-0.3-0.3-0.6-0.5-1c-0.3,0.2-0.8,0.3-0.9,0.6
			c-0.6,1.1,0.4,4.5,1.5,5.2c0.5-1.2,1.1-2.3,1.6-3.5c0.2-0.4,0.1-0.9,0.2-1.3c-0.4,0.2-0.8,0.5-1.2,0.8c-0.2,0.1-0.3,0.3-0.4,0.5
			C100.5,177.4,100.4,177.4,100.2,177.3z"/>
		<path class="st0" d="M185.6,126.1c-0.3,0.2-0.5,0.6-0.8,1c0.4,0.1,0.8,0.3,1.1,0.2c0.9-0.2,1.8-0.5,2.7-0.8
			c-0.1-1.7-1.4-2.6-3.9-2.5c0.8,0.6,1.4,1.1,2.1,1.6C186.4,125.7,186,125.9,185.6,126.1z"/>
		<path class="st0" d="M135.2,166.5c-2,0.8-1,2.4-1.1,3.8C135.5,169.4,134.9,167.8,135.2,166.5z"/>
		<path class="st0" d="M161.2,127.4c0.8-0.3,1.9-0.7,1.6-2.3c-1.3,0.6-2.4,1.1-3.6,1.6C159.5,128.1,160.5,127.7,161.2,127.4z"/>
		<path class="st0" d="M162.9,132.3c0.2-0.1,0.3-0.6,0.4-1c-0.4,0-0.8-0.2-1.1-0.1c-0.8,0.4-1.6,1-2.6,1.7
			C161.3,134.1,162,132.8,162.9,132.3z"/>
		<path class="st0" d="M163.3,152.2c-0.4-0.6-0.7-1.2-0.9-1.2c-1.1-0.1-2.6-0.8-3.3,1.1C160.4,152.1,161.6,152.2,163.3,152.2z"/>
		<path class="st0" d="M156,142.2c0.1-0.9,0.2-1.8,0.2-2.7c0-0.2-0.4-0.5-0.7-0.6c-0.2,0-0.6,0.3-0.6,0.5c0.1,1,0.2,1.9,0.3,2.9
			C155.5,142.2,155.8,142.2,156,142.2z"/>
		<path class="st0" d="M129.9,176.5c-0.1-1.7-0.1-3-0.1-4.3C128.5,174.2,128.6,175.6,129.9,176.5z"/>
		<path class="st0" d="M156.2,137.3c0.4-0.2,0.9-0.3,1.1-0.6c0.4-0.8,1.5-1.5,0.6-3c-0.8,1.2-1.4,2.2-2,3.2
			C156.1,137,156.1,137.1,156.2,137.3z"/>
		<path class="st0" d="M158.5,145.6c-0.5-0.8-1-1.5-1.5-2.2c0-0.1-0.5,0.2-0.7,0.3c0.4,0.7,0.8,1.5,1.2,2.2c0.1,0.1,0.3,0.1,0.5,0.1
			C158.1,145.8,158.3,145.7,158.5,145.6z"/>
		<path class="st0" d="M157.6,150.9c-1.2,0.1-2.5-0.3-2.9,1.5C156.9,152.4,157.5,152.1,157.6,150.9z"/>
		<path class="st0" d="M134.4,175.3c1.6-1,0.6-2.2,0.5-3.2C133.4,172.9,134.2,174,134.4,175.3z"/>
		<path class="st0" d="M151.7,156.4c0.3,0.8,0.5,1.6,0.9,2.3c0.1,0.2,0.6,0.3,0.8,0.2c0.2,0,0.5-0.5,0.4-0.6c-0.5-0.8-1-1.6-1.5-2.3
			C152.1,156.2,151.9,156.3,151.7,156.4z"/>
		<path class="st0" d="M128.3,171.3c1.8-0.9,1.9-1.7,0.5-3.2C128.6,169.4,128.5,170.2,128.3,171.3z"/>
		<path class="st0" d="M158.3,147.2c0.6,0.2,1.2,0.5,1.9,0.6c0.1,0,0.3-0.5,0.5-0.8c-0.6-0.3-1.3-0.5-1.9-0.8
			C158.6,146.6,158.4,146.9,158.3,147.2z"/>
	</g>
	<g>
		<path class="st0" d="M56.1,39.4c-0.8,1.1-1.3,1.8-1.7,2.5c-0.9-0.5-1.6-0.9-2.7-1.5c0.2,0.8,0.4,1.3,0.6,2c-1,0.7-2.1,1.3-3.1,2
			c0,0.2,0.1,0.4,0.1,0.6c1.1,0.2,2.2,0.4,2.8,0.5c0.4,0.9,0.9,1.7,1.1,2.5c0.1,0.4,0,1-0.2,1.4c-0.2,0.4-0.6,0.7-1.3,1.5
			c1.3-0.1,2.2-0.1,3.4-0.2c-0.4,0.5-0.7,0.9-1,1.2c0.4,0.2,0.8,0.5,1.5,0.8c-0.9,0.2-1.4,0.3-2,0.4c0.2,0.3,0.4,0.6,0.5,0.8
			c-0.3,0.2-0.7,0.4-1.2,0.7c0.8,0.1,1.4,0.2,2,0.3c0,0.1,0,0.2,0.1,0.3c-0.4,0.2-0.8,0.4-1.4,0.7c0.6,0.4,1.2,0.8,1.9,1.3
			c-1,0.3-1.7,0.5-2.8,0.8c0.4,0.2,0.8,0.7,1.1,0.7c1,0,2.1-0.1,3.1-0.1c0.2,0,0.4,0.3,0.7,0.6c-2.1,0.7-4.4-0.2-6.1,1.4
			c1.2,1.9,2.7-1.5,3.9,0.5c-0.9,0.3-1.6,0.6-2.4,0.9c0.9,0.7,0.9,0.7,3.9-1c-0.2,0.8-0.3,1.6-0.4,1.6c-1.6-0.1-1.4,1.2-1.9,2.4
			c0.8-0.2,1.3-0.4,1.8-0.6c0.1,0.2,0.1,0.3,0.2,0.5c-0.7,0.3-1.3,0.5-2.1,0.8c0.6,0.7,1.1,1.5,1.7,2c0.2,0.2,1,0.3,1.2,0.1
			c0.9-0.9,1.3-0.7,1.8,0.4c0.4,0.8,1.4,1.3,2.1,2c0.1-0.1,0.3-0.2,0.4-0.4c-0.6-0.9-1.2-1.9-1.9-2.8c0.2-0.2,0.4-0.3,0.6-0.5
			c0.8,0.8,1.8,1.6,2.5,2.6c1.1,1.5,1.9,3.2,2.9,5c-3.3,0.8-3.8,4.4-5.8,6.7c-2.1,2.5-5.7,3.9-8.6,2.4c-1.6-0.8-3.1-1.7-4.6-2.6
			c-0.9-0.6-1.7-0.5-2.7,0c-2.5,1.3-3.8,3.2-4.1,6c-0.4,3-2.5,4.5-5.3,4.1c-1.6-0.2-2.9-1.5-3.3-3.1c-0.4-1.5-1.1-3-0.4-4.5
			c0.5-1.3,0.9-2.6,1.7-3.7c1.9-2.7,4.1-5,6.6-7.2c1.8-1.6,2.8-4.1,4.5-5.8c1.5-1.5,2.7-3.1,3.7-4.9c1-1.9,0.2-3.7-0.4-5.2
			c-1.2-3.4-1.1-6.8-0.5-10.2c0.2-1.5,1.8-2.8,2.9-4c0.9-0.9,1.1-1.6,0.8-2.8c-0.2-1.1-0.1-2.4,0.3-3.5c0.6-1.6,1.4-3.2,2.5-4.4
			c0.7-0.7,2.2-1.1,3.3-1.1c3.5,0.1,6,2.3,8.4,4.6c1.8,1.7,4,2.9,5.6,4.7c3.4,3.8,8.8,4.4,12.4,7.7c0.5,0.5,1.2,0.9,1.6,1.5
			c0.8,1,1,2.6,2.7,2.9c0.2,0,0.3,0.6,0.5,1.3c-1.4-0.7-2.1-0.8-2.5,0.9c-0.2,1-1.6,1.8-2.4,2.7c-0.7,0.7-0.4,1,0.2,1.6
			c0.6,0.7,0.7,1.8,1,2.8C84,60.9,83.8,61,83.6,61c-0.2-0.5-0.4-1-0.6-1.5c-0.6,0.2-1.3,0.3-1.8,0.5c0,1.6,0,3.2-0.1,4.8
			c-0.7,0-1.1,0.1-1.4,0.1c-0.4-3.5,0.7-7-0.2-10.4c-0.2,0-0.4,0-0.5,0c0,2.3,0,4.7-0.1,7.5c-0.5-0.7-0.9-0.9-0.9-1.2
			c0-1.2,0.2-2.4,0.2-3.6c-0.1-1.5-0.4-2.9-0.8-4.3c-1.5,1.7-0.2,4.5-3.1,5.7c0-2-0.1-3.8-0.1-5.7c-0.2,0-0.5,0-0.7,0
			c-0.2,2.4-0.4,4.8-0.6,7c-0.8-0.4-1-1-0.8-2.5c0.1-0.9,0.4-1.8,0.5-2.8c-0.3-0.1-0.6-0.1-0.8-0.2c-0.4,1.4-0.8,2.8-1.1,4.1
			c-0.1,0-0.2,0-0.3,0c0-0.6,0-1.2,0-1.8c0-0.6,0-1.2,0-1.8c-0.2,0-0.3,0-0.5,0c0,0.5-0.1,0.9-0.1,1.6c-1-0.6-1.9-1.1-2.8-1.6
			c0.1-0.1,0.1-0.3,0.2-0.4c-0.6,0-1.2,0-2.2,0.1c0.3-0.7,0.5-1.2,0.7-1.9c-0.7,0-1.4,0-2.1-0.1c0.3-3.7-2.2,0-3-1.2
			c0.1-0.2,0.2-0.7,0.4-0.8c1.9-0.3,1-2.2,1.9-3.1c0.1,0-0.2-0.6-0.4-0.6c-0.2,0-0.6,0.1-0.7,0.3c-0.2,0.4-0.4,0.9-0.6,1.6
			c-0.4-0.8-0.7-1.4-1.1-2.1c0.9-0.3,1.6-0.4,2.3-0.7c0.2-0.1,0.3-0.5,0.4-0.8c-0.3-0.1-0.7-0.3-1-0.2c-0.4,0.1-0.8,0.5-1.2,0.7
			c-0.2,0.1-0.7-0.1-0.8-0.3c-0.1-0.2,0.1-0.6,0.1-0.9c0.1-0.4,0.2-0.9,0.4-1.2c1.1-1.5-0.5-2.1-1-3.1c-0.4-0.7-0.8-1.4-1.1-2.1
			c-0.6,0-1.2,0.1-2,0.2c1,0.9,1.9,1.7,2.8,2.5c-0.1,0.1-0.2,0.3-0.3,0.4c-0.3-0.2-0.6-0.5-1-0.8c0,0.2,0.1,0.3,0,0.5
			c-0.1,0.5-0.1,1-0.3,1.4c-0.2,0.2-0.8,0-1.2-0.1c0.1-0.4,0.3-0.8,0.4-1.2C56.4,40.6,56.3,40.2,56.1,39.4z M50,70.9
			c-0.4,0.7-0.8,1.2-1.1,1.8c-0.1-0.1-0.3-0.1-0.4-0.2c0-0.4,0-0.8,0-1.3c-0.7,0-1.2,0.1-1.6,0.1c0,1,0,1.6,0,2.2
			c1.5,0.5,3,1,4.6,1.5c0.1-0.2,0.1-0.4,0.2-0.6c-0.5-0.4-1.1-0.8-1.6-1.1c0.1-0.1,0.1-0.2,0.2-0.3c1.8,0.2,3.5,0.3,5.2,0.5
			c0-0.2,0-0.4,0.1-0.5c-0.7-0.2-1.4-0.4-2.1-0.6c0-0.2,0.1-0.3,0.1-0.5c0.9,0.1,1.8,0.2,2.6,0.4C55.9,70.6,55.5,70.6,50,70.9z
			 M68.6,49c0.1,0.1,0.3,0.2,0.4,0.3c0.4-0.5,1.1-1.1,1.1-1.6c-0.1-0.9-0.6-1.7-1-2.6c-0.1,0.1-0.3,0.1-0.4,0.2
			C68.7,46.5,68.6,47.7,68.6,49z M55.8,77.5c-0.3-0.8-0.3-0.8-3.6-1.7C52.2,76.3,52.2,76.3,55.8,77.5z M53.1,68.5
			c0.8-0.3,1.6-0.5,2.4-0.8c-1.1-0.8-1.9-1.4-2.9-2.2C52.8,66.8,53,67.5,53.1,68.5z M56.6,76.1c-0.1,0.3-0.2,0.7-0.3,1
			c0.9,0.2,1.7,0.5,2.6,0.8c0.1-0.4,0.2-1,0.1-1C58.3,76.6,57.4,76.3,56.6,76.1z M72.5,51.3c-0.8,0.1-1.5,0.2-2.1,0.3
			c-0.2,0-0.5,0.4-0.5,0.6c0,0.2,0.3,0.7,0.4,0.7C71,52.5,72.4,53.2,72.5,51.3z M62.8,72.8c0.1-0.2,0.1-0.5,0.2-0.7
			c-0.9-0.3-1.8-0.5-2.8-0.8c-0.1,0.2-0.1,0.4-0.2,0.6C60.8,72.9,61.6,73.4,62.8,72.8z M59,73.1c0.2-0.2,0.4-0.4,0.7-0.7
			c-0.7-0.5-1.3-1-1.9-1.6c-0.2,0.2-0.4,0.5-0.6,0.7C57.8,72.1,58.4,72.6,59,73.1z M53.5,78.5c-0.6-0.3-1.3-0.6-1.9-0.9
			c0,1-0.1,1.8-0.1,2.6C52.2,79.6,52.7,79.2,53.5,78.5z M84,53.4c0.2,0,0.4,0,0.5,0c0.1-0.5,0.4-1.2,0.3-1.4
			c-0.5-0.4-1.1-0.5-1.7-0.7c0,0.1-0.1,0.3-0.1,0.4C83.3,52.3,83.7,52.8,84,53.4z M52.2,39.4c0.1,0,0.3,0,0.5,0
			c0.9-1.6,0.8-2.2-0.3-2.9C52.3,37.5,52.2,38.5,52.2,39.4z"/>
		<path class="st0" d="M86.1,86.1c0.5,0.7,1,1.3,1.4,1.8c-0.1,0.1-0.2,0.2-0.3,0.3c-0.4-0.3-0.8-0.7-1.2-0.9
			c-0.8-0.4-1.6-0.6-2.4-0.9c-0.4-0.1-0.8-0.1-1.1-0.3c-2.6-2.1-5.2-4.1-7.8-6.3c-0.5-0.4-1-1.1-1.1-1.7c-0.4-1.8-0.8-3.6-1.9-5.1
			c-0.2-0.3-0.7-0.7-1.1-0.7c-1.3-0.3-2.7-0.4-4-0.7c-0.3-0.1-0.5-0.5-0.9-0.8c1-0.4,1.9-0.5,2.5-1c0.5-0.5,0.6-1.4,0.9-2.2
			c0.5,0.1,1.2,0.3,1.9,0.5c-1.3-1.2-1.3-1.2-0.8-3.6c2.7,3.4,5.4,6.8,8.1,10.2c0.2-0.1,0.3-0.2,0.5-0.3c-0.1-0.5-0.1-0.9-0.2-1.5
			c0.3,0,0.7,0.1,1,0.1c0.3-2.2,0.6-4.5,0.9-6.9c0.4,0.1,1,0.2,1.8,0.3c-0.3,1.1-0.5,2.2-0.8,3.2c-0.2-0.1-0.3-0.1-0.4-0.2
			c0.4,0.5,0.8,0.9,1.1,1.3c-0.8,0.5-1.3,0.8-2.2,1.4c0.9,0.3,1.4,0.4,1.9,0.5c-0.2,0.6-0.3,1.1-0.6,1.9
			C86.8,76.9,88.3,80.7,86.1,86.1z M85.5,82.3c0.4-2.6-1.8-3.3-3.3-4.7c-0.2,0.1-0.4,0.2-0.5,0.3c0.3,0.7,0.6,1.5,0.9,2.3
			c-0.3,0.1-0.7,0.3-1.4,0.7C84,80.9,84,80.9,85.5,82.3z M84.9,78.4c-0.8-2.3-3.3-3.1-4.7-1.7C81.7,77.2,83.4,77.8,84.9,78.4z"/>
		<path class="st0" d="M103.7,78.2c0.2,0.3,0.3,0.8,0.6,0.9c4.1,2,6.5,5.7,8.9,9.4c1,1.5,2.5,2.9,4,4c0.7,0.5,2.2,0.4,3.1,0
			c0.8-0.3,1.8-1.6,1.7-2.2c-0.7-2.2-1.7-4.4-2.7-6.4c-0.7-1.4-1.7-2.8-2.8-3.9c-1.2-1.3-2.5-2.9-4.1-3.4c-1.5-0.5-2.5-1.2-3.6-2.2
			c-0.5-0.4-1.1-0.9-1.6-1.3c-0.2,0.1-0.3,0.3-0.5,0.4c0.6,0.8,1.2,1.5,2.1,2.6c-2.1-0.1-2.7,1.2-2.8,2.8c-0.8-0.5-1.3-0.8-1.8-1.1
			C103.9,78,103.8,78.1,103.7,78.2z"/>
		<path class="st0" d="M101.6,88.8c0.4,0.1,0.9,0.6,0.9,0.9c0.2,1.7,0.8,3.1,2,4.3c1.2,1.2,2.3,2.4,3.2,3.8c1.6,2.5,3.8,4.1,6.8,4.4
			c0.7,0.1,1.7,0,2.2-0.5c1.4-1.3,1.3-3.4-0.1-5c-2.2-2.5-4.4-5-6.4-7.6c-1.5-2-3.2-3.7-5.8-4.1c-0.7,0.9-1.4,1.8-2.2,2.6
			c-0.2,0.2-0.8,0.1-1.2-0.1c-0.4-0.2-0.6-0.6-1.2-1.3C100.2,88.4,100.4,88.6,101.6,88.8z"/>
		<path class="st0" d="M96.3,92.5c-1.4,0.2-2.9,1.5-2.6,2.4c0.7,1.8,1.3,3.8,2.5,5.4c2.2,2.9,4.7,5.8,8.4,6.8c1.1,0.3,2.9,0,3.7-0.8
			c1.1-1,1-2.6-0.2-3.8c-1.7-1.8-3.5-3.5-5.2-5.3c-1.6-1.8-4-2.8-4.9-5.5c-0.3-1-1.6-1.7-2.4-2.6c-0.1,0.1-0.2,0.2-0.4,0.3
			c0.7,0.9,1.4,1.9,2.3,3.2C96.9,92.5,96.6,92.4,96.3,92.5z"/>
		<path class="st0" d="M103.5,66.3c1,1.3,3.3,1.6,4.6,2.8c1.5,1.3,3.1,1.9,5,1.7c1.5-1.8,1.5-3.5,0-5.2c-1.2-1.4-2.4-2.8-3.7-4.2
			c-2.1-2.3-7-1.6-8.4,1.1c-0.2,0.3-0.8,0.5-1.2,0.5c-0.4,0-0.9-0.6-1.2-0.5c-0.9,0.3-1.8,0.7-2.6,1.2c-0.2,0.1,0.1,1,0.3,2
			c0.7-1,1.2-2.2,1.4-2.1C99.8,64.1,101.9,64.2,103.5,66.3z"/>
		<path class="st0" d="M121.1,102.2c-0.2,0.1-0.4,0.3-0.7,0.4c1.2,1.8,2.4,3.6,3.6,5.5c-0.2,0.1-0.3,0.2-0.5,0.3
			c-1.5-1.5-3.1-2.9-4.7-4.5c0,2,4.6,6.2,6.9,6.5C124.4,107.4,123.7,104.1,121.1,102.2z"/>
		<path class="st0" d="M110.6,109.2c1.8,2,4.3,1.4,6.8,1.9c-1-2.5-3.3-2.5-4.4-3.5C112.1,108.2,111.5,108.6,110.6,109.2z"/>
		<path class="st0" d="M121.9,75.4c-0.7-1.6-1.5-3.1-3.2-4c0,0-0.1,0.1-0.3,0.3c0.2,0.4,0.5,0.8,0.8,1.2c-0.5,0.2-0.9,0.3-1.3,0.4
			c-0.1,0.2-0.1,0.3-0.2,0.5c1.2,0.7,2.5,1.4,3.7,2.2C121.6,75.7,121.7,75.6,121.9,75.4z"/>
		<path class="st0" d="M126.9,97.4c-0.4-1.2-0.8-2.5-1.4-3.7c-0.1-0.2-0.8-0.4-1.1-0.3c-0.4,0.1-0.8,0.4-1.5,0.9
			c1.1,1.1,2.3,2.2,3.5,3.3C126.6,97.6,126.8,97.5,126.9,97.4z"/>
		<path class="st0" d="M91,79.8c-0.3,0.2-0.7,0.5-0.8,0.8c-0.1,0.2,0,0.7,0.2,0.9c0.2,0.2,0.8,0.3,0.9,0.1c1.6-1.6,2.8-0.5,4.3,0.8
			C95,79.9,92.9,78.7,91,79.8z"/>
		<path class="st0" d="M83.5,67.1c0.5-2,0.8-3.6,1.3-5.7C83,63.1,82.4,65.3,83.5,67.1z"/>
		<path class="st0" d="M92.7,84c-0.1-0.2-0.4-0.3-0.7-0.3c-0.1,0-0.4,0.3-0.4,0.5c-0.2,0.8,2.2,3.4,3.5,3.6
			C94.2,86.2,93.4,85.1,92.7,84z"/>
		<path class="st0" d="M99.7,57.6c-1.4-0.7-2.3-1.2-3.6-1.9C96.7,57.6,97.6,58.1,99.7,57.6z"/>
		<path class="st0" d="M96.6,66.1c0.6,0.7,1.3,1.5,1.9,2.2c0.2-0.1,0.4-0.3,0.6-0.5c-0.6-0.8-1.2-1.5-1.8-2.3
			C97.1,65.7,96.8,65.9,96.6,66.1z"/>
		<path class="st0" d="M92.3,54.5c0.8,0.6,1.7,1.2,2.5,1.8c0.2-0.2,0.3-0.4,0.5-0.6c-0.8-0.7-1.6-1.3-2.4-2
			C92.7,54,92.5,54.3,92.3,54.5z"/>
		<path class="st0" d="M105.4,72.2c-0.8-0.5-1.5-1-2.2-1.5C103.6,72.8,104.3,73.2,105.4,72.2z"/>
		<path class="st0" d="M102.4,81.9c-0.9-0.8-1.7-1.5-2.7-2.2C100.3,81.7,101.4,82.6,102.4,81.9z"/>
		<path class="st0" d="M88.7,53c1.8,1.6,1.8,1.6,2.8,0.8C89.6,52.3,89.6,52.3,88.7,53z"/>
		<path class="st0" d="M90.9,90.7c-0.6-0.8-1.2-1.6-2-2.6C88.7,89.8,89.6,90.9,90.9,90.7z"/>
	</g>
</g>
</svg>
