<svg xmlns="http://www.w3.org/2000/svg" data-name="Layer 1" viewBox="0 0 48.41 36.47"><path d="M4.58 14.14c-.51-.24-1.04-.4-1.47-.71-.36-.25-.89-.71-.84-1 .11-.63.77-.5 1.27-.44 1.06.12 2.13.26 3.19.39.14.02.29 0 .61 0-.44-.41-.78-.69-1.08-1.01-.56-.59-.38-1.3.39-1.55.29-.1.59-.16.89-.21.3-.06.6-.09.96-.14l-.06-1.52c-.05-1.33.34-2.52 1.13-3.58.69-.94 2.15-1.27 3.07-.53.86.69 1.58 1.57 2.26 2.45.34.45.65.72 1.22.74.61.02 1.21.13 1.85.2.4-1.57.81-3.12 1.21-4.67.05-.2.06-.44.18-.58.24-.25.53-.56.84-.62.2-.04.59.29.7.54.28.65.44 1.34.67 2.08.6-.6 1.15-1.16 1.72-1.69 1.07-1 2.07-.77 2.6.58.14.35.3.7.47 1.11.31-.2.57-.39.86-.55 1.63-.93 3.27-1.85 4.91-2.76.66-.36.99-.22 1.3.49.04.09.07.27.1.27 1.16-.03 1.02 1.15 1.59 1.66.11.1.31.22.44.19 1.27-.23 1.71.78 1.7 1.96 0 .45-.1.91-.2 1.36-.1.44-.25.87-.41 1.41 1.24.08 1.94.73 2.23 1.88.05.19.43.31.66.45.63.38 1.3.7 1.87 1.16.72.58.97 1.4.88 2.33-.06.61-.38 1.21.06 1.83.1.13-.09.52-.23.75-.13.23-.36.41-.6.68 1.65.38 3.21.75 4.77 1.11.22.05.49.05.66.18.27.21.48.5.71.76-.3.18-.58.5-.89.51-2.01.09-4.02.12-6.04.17-.56.01-1.11.04-1.9.07.52.28.83.47 1.16.63.46.23.91.44 1.01 1.05.03.16.31.31.5.41 1.35.66 2.73 1.28 4.07 1.97.29.15.62.59.61.88-.01.51-.5.52-.94.48-.94-.07-1.88-.1-2.84-.15 0 .39-.04.75.03 1.08.09.36.21.77.46 1.02.46.48 1.01.86 1.52 1.27.41.33.85.65.59 1.26-.28.65-.85.55-1.38.45-2.45-.48-4.9-.95-7.35-1.46-1.45-.3-2.88-.67-4.32-1-.26-.06-.53-.11-.98-.2.79 1.02 1.48 1.9 2.15 2.78.2.26.45.53.53.83.06.24-.02.65-.2.79-.18.14-.6.13-.82 0-.41-.22-.75-.57-1.29-1.01.16.49.33.77.33 1.05 0 .42.02 1-.22 1.23-.24.23-.89.28-1.22.12-1.4-.68-2.74-1.46-4.1-2.21-.13-.07-.21-.22-.31-.34-.06.05-.12.11-.18.16l.57 3.14c.05.25.17.54.09.75-.11.29-.37.51-.57.77-.21-.21-.56-.38-.62-.63-.2-.89-.28-1.81-.45-2.72-.19-1.09-.29-2.22-1.05-3.3-.43 1.27-.81 2.42-1.2 3.56-.16.46-.3.94-.57 1.33-.17.25-.56.49-.85.49-.24 0-.56-.32-.71-.57-.22-.38-.33-.84-.49-1.28-1.46 1.11-2.13.8-2.74-1.23-.86.84-1.65 1.71-2.55 2.45-.96.78-2.01 1.46-3.06 2.13-.18.11-.69.07-.75-.05-.34-.65-1.05-1.2-.77-2.05.37-1.1.43-2.01-.48-3.01-.95-1.04-.73-2.5-.55-3.82.12-.83.33-1.64.53-2.54-.82.05-1.62.13-2.43.14-.59.01-1.33.19-1.61-.54-.31-.81.5-1.02.97-1.34.67-.45 1.42-.8 2.11-1.23.3-.19.53-.48.91-.85-.76-.31-1.36-.52-1.92-.79-1.87-.88-3.74-1.77-5.59-2.69-.4-.2-.77-.51-1.08-.84-.52-.55-.32-1.25.42-1.37.8-.13 1.62-.13 2.43-.14.45 0 .82-.04.94-.64Zm35.89 13.05.08-.22c-.6-.4-1.23-.77-1.8-1.21-.73-.56-1.47-.66-2.37-.42-.67.18-1.43.29-2.09.15-1.32-.28-2.26.52-3.36.94 3.16.68 6.29 1.69 9.54.75ZM12.24 9.72c-.08-.17-.1-.24-.15-.3-.85-1.1-.6-1.84.74-2.21.38-.1.77-.19 1.34-.32-.72-.75-1.25-1.4-1.89-1.93-.75-.62-1.4-.5-1.96.29-.81 1.15-.97 2.45-.77 3.8.03.2.38.45.62.49.65.11 1.31.12 2.06.18Zm4.02 3.14c-1.76-1.99-4.01-2.29-6.46-2.22.24.75.44 1.45.68 2.14.04.12.2.27.32.3.89.19 1.78.42 2.69.5.77.07 1.55-.04 2.44-.07.07-.14.21-.41.33-.64Zm14.05 19.6.19-.25c-.32-.57-.62-1.16-.97-1.71-.64-1-1.26-2.03-1.99-2.97-.47-.6-1.58-.53-2.06 0-.44.48-.34 1.5.23 2 .36.32.74.63 1.15.88 1.14.7 2.3 1.36 3.45 2.04Zm8.55-21.14c-.4 1.07-.79 2.1-1.22 3.23.94.04 1.75.08 2.55.1.81.02 1.07-.28 1-1.1-.08-.99-.93-1.83-2.34-2.23ZM21.97 7.53c.92-.76 1.75-1.5 2.64-2.16.49-.36.65-.73.43-1.29-.09-.24-.14-.49-.21-.73-.15-.52-.39-.63-.79-.21-.45.48-.87 1.02-1.39 1.41-1.02.78-1.03 1.75-.69 2.97ZM2.03 16.14c1.96.94 3.91 1.87 5.87 2.81-.58-.69-1.33-1.13-1.88-1.75-1.08-1.22-2.34-1.65-3.99-1.06Zm32.08-9.9q.96.45.43 2.4c.36-.21.83-.44.94-.79.3-.91.49-1.87.64-2.81.1-.59-.16-.72-.72-.48-.74.32-1.12.92-1.29 1.68ZM6.58 16.08l-.15.24 4.06 2.7c.39-.43.65-.71.9-.99-1.6-.65-3.21-1.3-4.81-1.96Zm6.28-7.64c.77 1.28 1.67 1.84 2.66 1.66-.89-2.2-.64-2.42-2.66-1.66Zm3.12-.36c.24 1.41.82 2.39 1.46 2.44.12-.7.25-1.41.38-2.17-.68-.1-1.25-.18-1.84-.26Zm3.05-.6c1.49-1.48 1.8-2.71 1.04-4.18-.36 1.42-.68 2.73-1.04 4.18Zm4.04 2.16L24.43 11c.21-.97.4-1.81.64-2.9-.78.6-1.36 1.05-2 1.54Zm20.3 19.59c-1.6-1.59-2.16-1.67-3.48-.56 1.13.18 2.21.36 3.48.56Zm-5-10.36c1.49-.06 2.9-.12 4.31-.18-1.42-.43-2.86-1.21-4.31.18Zm-.61-7.73c-.5-.16-1.1.63-1.89 2.48.28.1.55.2.85.31.36-.97.7-1.88 1.04-2.78Zm-5.91 1.71c1.12.3 1.6-.15 2.11-1.87-1.03.28-1.69.89-2.11 1.87ZM10.48 29.13c.09.04.18.08.27.13.49-.88.99-1.76 1.48-2.62-.18-.2-.32-.36-.56-.63-.46 1.2-.82 2.16-1.18 3.12ZM34.2 13.16c.52.02 1.41-1.15 1.73-2.25-.61-.1-1.46 1-1.73 2.25Zm-10.57-1.04.12-.27-1.32-1.35-.59 1.21c.67.15 1.24.28 1.8.41ZM7.19 10.81c.68.54 1.25.99 1.92 1.52-.25-1.85-.31-1.9-1.92-1.52Zm14.98 19.12c-1.37.88-1.62 1.55-1.02 2.83.35-.99.67-1.88 1.02-2.83ZM9.95 23.15c-.66-1.05-1.31-.96-2.59.35.95-.13 1.75-.24 2.59-.35Zm18.49 2.12c.55.5 1.82.37 2.63-.29-.93.19-1.79-.43-2.63.29Zm9.93-9.65c.22.43.43.92.47.9.43-.14.83-.37 1.23-.57-.03-.08-.07-.17-.1-.25-.44-.02-.88-.05-1.61-.08Zm-7.43-.99c.31.12.56.23.83.33l.64-.88c-.63-.09-1.24-.45-1.47.54Zm-12.36-4.05s.1.05.14.08c.47-.49.95-.97 1.48-1.52-.27-.1-.47-.17-.68-.25-.33.6-.64 1.14-.94 1.69Zm1.65 17.86c.08.03.17.06.25.1.23-.3.5-.57.69-.89.09-.14.02-.38.03-.57-.19.07-.48.09-.55.23-.19.35-.28.76-.42 1.14Zm-9.74-2.31.95-1.99c-.71.12-.99.7-.95 1.99Zm30.73 0c-.19-1.01-.44-1.18-1.33-.89.46.31.87.58 1.33.89Zm-7.06-8.33c.04-.07.07-.15.11-.22-.39-.27-.69-.76-1.49-.37.56.24.97.41 1.38.59Z" style="fill:#ce4b48;stroke:#ce4b48;stroke-miterlimit:10"/></svg>