<?xml version="1.0" encoding="utf-8"?>
<!-- Generator: Adobe Illustrator 27.9.0, SVG Export Plug-In . SVG Version: 6.00 Build 0)  -->
<svg version="1.1" id="Layer_1" xmlns="http://www.w3.org/2000/svg" xmlns:xlink="http://www.w3.org/1999/xlink" x="0px" y="0px"
	 viewBox="0 0 43.8 43.8" style="enable-background:new 0 0 43.8 43.8;" xml:space="preserve">
<style type="text/css">
	.st0{fill:#9F5480;stroke:#9F5480;stroke-miterlimit:10;}
</style>
<path class="st0" d="M4.3,18.1c-0.4-0.2-0.9-0.4-1.3-0.6s-0.8-0.6-0.7-0.9c0.1-0.5,0.6-0.4,1.1-0.4c1,0.1,1.9,0.3,2.9,0.4
	c0.1,0,0.3,0,0.5,0c-0.4-0.4-0.7-0.6-1-0.9c-0.5-0.5-0.4-1.2,0.4-1.4C6.4,14.1,6.7,14,7,14c0.3-0.1,0.5-0.1,0.9-0.1l-0.1-1.3
	c0-1.3,0.4-2.3,1.1-3.2c0.6-0.8,1.9-1.2,2.8-0.4c0.8,0.6,1.4,1.4,2.1,2.2c0.2,0.3,0.4,0.5,1,0.5c0.5,0,1.1,0.1,1.7,0.2
	c0.4-1.4,0.7-2.8,1.1-4.2c0-0.2,0.1-0.4,0.2-0.5C18,7,18.2,6.7,18.5,6.7c0.2,0,0.5,0.3,0.6,0.4c0.3,0.6,0.4,1.2,0.6,1.9
	c0.5-0.5,1-1.1,1.5-1.5c1-0.9,1.9-0.7,2.3,0.5c0.1,0.4,0.3,0.7,0.4,1.1c0.3-0.2,0.5-0.4,0.8-0.4c1.4-0.8,3-1.7,4.4-2.5
	C29.7,5.8,30,6,30.3,6.6c0,0.1,0.1,0.3,0.1,0.3c1.1,0,0.9,1,1.4,1.5c0.1,0.1,0.3,0.2,0.4,0.2c1.2-0.2,1.5,0.7,1.5,1.8
	c0,0.4-0.1,0.8-0.2,1.3c-0.1,0.2-0.3,0.6-0.4,1.1c1.1,0.1,1.7,0.6,2,1.7c0,0.2,0.4,0.3,0.6,0.4c0.5,0.4,1.2,0.6,1.7,1.1
	c0.6,0.5,0.9,1.3,0.8,2.1c-0.1,0.5-0.4,1.1,0.1,1.6c0.1,0.1-0.1,0.4-0.2,0.6c-0.1,0.2-0.4,0.4-0.5,0.6c1.5,0.4,2.9,0.7,4.3,1
	c0.2,0,0.4,0,0.6,0.2c0.3,0.2,0.4,0.4,0.6,0.7c-0.3,0.2-0.5,0.4-0.8,0.4c-1.8,0.1-3.6,0.1-5.4,0.2c-0.5,0-1,0-1.7,0.1
	c0.4,0.3,0.7,0.4,1.1,0.5c0.4,0.2,0.8,0.4,0.9,0.9c0,0.2,0.3,0.3,0.4,0.4c1.2,0.6,2.4,1.2,3.7,1.8c0.3,0.1,0.5,0.5,0.5,0.8
	c0,0.4-0.4,0.4-0.8,0.4C40.2,28,39.3,28,38.5,28c0,0.4,0,0.7,0,1c0.1,0.4,0.2,0.7,0.4,0.9c0.4,0.4,0.9,0.8,1.3,1.2
	c0.4,0.3,0.7,0.5,0.5,1.2c-0.3,0.5-0.7,0.4-1.3,0.4c-2.2-0.4-4.4-0.9-6.5-1.3c-1.3-0.3-2.6-0.6-3.9-0.9c-0.3-0.1-0.4-0.1-0.9-0.2
	c0.7,0.9,1.3,1.7,2,2.5c0.2,0.3,0.4,0.4,0.4,0.7c0.1,0.2,0,0.5-0.2,0.7c-0.2,0.1-0.5,0.1-0.7,0c-0.4-0.2-0.7-0.5-1.2-0.9
	c0.2,0.4,0.3,0.7,0.3,1c0,0.4,0,0.9-0.2,1.1c-0.2,0.2-0.8,0.3-1.1,0.1c-1.3-0.6-2.4-1.3-3.7-2c-0.1-0.1-0.2-0.2-0.3-0.3
	c-0.1,0-0.1,0.1-0.2,0.2l0.5,2.8c0,0.2,0.2,0.4,0.1,0.7s-0.4,0.4-0.5,0.7c-0.2-0.2-0.5-0.4-0.5-0.5c-0.2-0.8-0.3-1.6-0.4-2.4
	c-0.2-1-0.3-2-0.9-3c-0.4,1.2-0.7,2.2-1.1,3.2c-0.2,0.4-0.3,0.8-0.5,1.2c-0.2,0.2-0.5,0.4-0.8,0.4c-0.2,0-0.5-0.3-0.6-0.5
	c-0.2-0.4-0.3-0.7-0.4-1.2c-1.3,1-1.9,0.7-2.4-1.1c-0.8,0.7-1.4,1.5-2.3,2.2c-0.9,0.7-1.8,1.3-2.8,1.9c-0.2,0.1-0.6,0.1-0.7,0
	c-0.3-0.6-1-1.1-0.7-1.8c0.4-1,0.4-1.8-0.4-2.7S8.2,31.2,8.3,30c0.1-0.7,0.3-1.4,0.4-2.2c-0.7,0-1.4,0.1-2.2,0.1
	c-0.5,0-1.2,0.2-1.4-0.4c-0.3-0.7,0.4-0.9,0.9-1.2c0.6-0.4,1.3-0.7,1.9-1.1c0.2-0.7,0.4-0.9,0.7-1.3c-0.7-0.3-1.3-0.4-1.7-0.7
	c-1.7-0.8-3.3-1.6-5-2.4c-0.4-0.2-0.7-0.4-1-0.7c-0.4-0.5-0.3-1.1,0.4-1.3c0.7-0.1,1.4-0.1,2.2-0.1C3.9,18.7,4.2,18.6,4.3,18.1
	L4.3,18.1z M36.6,29.8l0.1-0.2c-0.5-0.4-1.1-0.7-1.6-1.1c-0.6-0.5-1.3-0.6-2.2-0.4c-0.6,0.2-1.3,0.3-1.9,0.1
	c-1.2-0.3-2.1,0.4-3.1,0.8C30.8,29.7,33.6,30.6,36.6,29.8L36.6,29.8z M11.2,14.1c-0.1-0.2-0.1-0.2-0.1-0.3c-0.8-1-0.5-1.6,0.6-2
	c0.4-0.1,0.7-0.2,1.2-0.3c-0.6-0.7-1.1-1.3-1.7-1.7c-0.7-0.5-1.3-0.4-1.8,0.3c-0.7,1.1-0.9,2.2-0.7,3.4c0,0.2,0.4,0.4,0.5,0.4
	C9.9,14,10.5,14.1,11.2,14.1L11.2,14.1z M14.8,17c-1.6-1.8-3.6-2.1-5.8-2c0.2,0.7,0.4,1.3,0.6,1.9c0,0.1,0.2,0.3,0.3,0.3
	c0.8,0.2,1.6,0.4,2.4,0.4c0.7,0.1,1.4,0,2.2-0.1C14.6,17.4,14.7,17.2,14.8,17L14.8,17z M27.4,34.6l0.2-0.2c-0.3-0.5-0.5-1.1-0.9-1.5
	c-0.5-0.9-1.2-1.8-1.8-2.7c-0.4-0.5-1.4-0.4-1.9,0c-0.4,0.4-0.3,1.3,0.2,1.8c0.4,0.3,0.6,0.5,1,0.8C25.3,33.3,26.4,33.9,27.4,34.6
	L27.4,34.6z M35.1,15.5c-0.4,1-0.7,1.9-1.1,2.9c0.8,0,1.6,0.1,2.2,0.1c0.7,0,1-0.3,0.9-1C37.1,16.7,36.4,15.9,35.1,15.5L35.1,15.5z
	 M20,12.1c0.8-0.7,1.6-1.3,2.3-2c0.4-0.3,0.6-0.6,0.4-1.1c-0.1-0.2-0.1-0.4-0.2-0.6c-0.1-0.4-0.4-0.5-0.7-0.2
	c-0.4,0.4-0.8,0.9-1.3,1.3C19.6,10.2,19.6,11.1,20,12.1L20,12.1z M2,19.8c1.8,0.8,3.5,1.7,5.3,2.5c-0.5-0.6-1.2-1-1.7-1.6
	C4.6,19.8,3.5,19.3,2,19.8z M30.8,11c0.5,0.3,0.7,1,0.4,2.2c0.4-0.2,0.7-0.4,0.8-0.7c0.4-0.8,0.5-1.6,0.6-2.5
	c0.1-0.5-0.2-0.6-0.6-0.4C31.4,9.8,31,10.3,30.8,11z M6.1,19.8L6,20l3.7,2.4c0.4-0.4,0.5-0.6,0.8-0.9C9,21,7.6,20.4,6.1,19.8
	L6.1,19.8z M11.8,12.9c0.7,1.2,1.5,1.6,2.4,1.5C13.3,12.5,13.6,12.3,11.8,12.9z M14.6,12.7c0.2,1.3,0.7,2.2,1.3,2.2
	c0.1-0.6,0.2-1.3,0.4-2C15.6,12.8,15.1,12.8,14.6,12.7L14.6,12.7z M17.3,12.1c1.3-1.3,1.6-2.4,0.9-3.8C17.9,9.6,17.6,10.8,17.3,12.1
	z M20.9,14l1.3,1.3c0.2-0.9,0.4-1.6,0.5-2.6C22,13.2,21.5,13.7,20.9,14z M39.2,31.6c-1.4-1.4-2-1.5-3.1-0.5
	C37,31.3,38,31.4,39.2,31.6z M34.7,22.4c1.3-0.1,2.6-0.1,3.9-0.2C37.3,21.8,35.9,21.1,34.7,22.4z M34.1,15.4c-0.4-0.2-1,0.5-1.7,2.2
	c0.3,0.1,0.4,0.2,0.7,0.3C33.5,17.1,33.8,16.3,34.1,15.4L34.1,15.4z M28.8,17c1,0.3,1.4-0.1,1.9-1.7C29.7,15.5,29.2,16.1,28.8,17z
	 M9.6,31.5c0.1,0,0.2,0.1,0.3,0.1c0.4-0.8,0.9-1.6,1.3-2.3c-0.2-0.2-0.3-0.4-0.5-0.5C10.3,29.8,9.9,30.7,9.6,31.5L9.6,31.5z
	 M30.9,17.2c0.4,0,1.3-1,1.5-2C31.9,15.1,31.2,16.1,30.9,17.2z M21.4,16.3l0.1-0.3l-1.2-1.3l-0.5,1.1C20.4,16.1,20.9,16.2,21.4,16.3
	L21.4,16.3z M6.7,15.1c0.6,0.4,1.2,0.9,1.7,1.3C8.2,14.8,8.1,14.7,6.7,15.1z M20.1,32.2c-1.3,0.8-1.4,1.3-0.9,2.5
	C19.5,33.9,19.8,33.1,20.1,32.2z M9.1,26.1c-0.6-0.9-1.2-0.9-2.3,0.4C7.7,26.4,8.4,26.3,9.1,26.1z M25.7,28.1
	c0.4,0.4,1.6,0.4,2.3-0.3C27.2,28,26.5,27.4,25.7,28.1z M34.7,19.4c0.2,0.4,0.4,0.8,0.4,0.8c0.4-0.1,0.7-0.4,1.1-0.5
	c0-0.1-0.1-0.2-0.1-0.2C35.7,19.5,35.3,19.5,34.7,19.4L34.7,19.4z M27.9,18.5c0.3,0.1,0.5,0.2,0.7,0.3l0.5-0.8
	C28.8,18,28.2,17.6,27.9,18.5L27.9,18.5z M16.9,14.9L16.9,14.9c0.5-0.4,1-0.8,1.4-1.3c-0.3-0.2-0.4-0.2-0.6-0.3
	C17.4,13.9,17.2,14.4,16.9,14.9z M18.3,30.9c0.1,0,0.2,0.1,0.2,0.1c0.2-0.3,0.4-0.5,0.6-0.8c0.1-0.1,0-0.4,0-0.5
	c-0.2,0.1-0.4,0.1-0.4,0.2C18.6,30.3,18.5,30.6,18.3,30.9L18.3,30.9z M9.6,28.8l0.8-1.8C9.8,27.2,9.6,27.7,9.6,28.8z M37.2,28.8
	C37,27.9,36.8,27.7,36,28C36.4,28.4,36.8,28.6,37.2,28.8z M30.9,21.4c0-0.1,0.1-0.1,0.1-0.2c-0.4-0.3-0.6-0.7-1.3-0.4
	C30.1,21.1,30.5,21.2,30.9,21.4z"/>
</svg>
