<svg xmlns="http://www.w3.org/2000/svg" data-name="Layer 1" viewBox="0 0 43.85 40.81"><path d="M30.01 4.19c.43-.32.81-.67 1.24-.93.9-.54 1.79-1.15 2.77-1.54 1.45-.58 2.72.51 2.4 2.05-.18.87-.5 1.76-.94 2.53-1.37 2.36-2.83 4.67-4.26 7.01-.23.38-.46.77-.63 1.21 1.16-.78 2.29-1.62 3.49-2.33.82-.48 1.73-.82 2.62-1.16.19-.07.47.12.72.19-.08.24-.1.54-.26.71-.41.42-.89.77-1.3 1.23.36-.14.72-.27 1.08-.41 1.38-.54 2.8-.81 4.27-.68 1.49.13 2.45 1.49 2.08 2.96-.36 1.42-1.11 2.59-2.19 3.56-2.19 1.97-4.54 3.7-7.27 4.93.12.47.29.93.34 1.41.18 1.46-.18 2.69-1.43 3.63-.42.32-.61.92-1.27.48-3.26.78-6.27-.14-9.21-1.42-.05-.02-.11-.03-.24-.06-.39.6-.79 1.23-1.2 1.84-2.12 3.2-4.25 6.39-6.36 9.59-.1.15-.09.36-.17.53-.1.23-.19.57-.37.64-.33.13-.85.25-1.07.08-.4-.29 0-.65.2-.95 2.74-4.01 5.49-8.02 8.25-12.06-.79-.45-1.46-.87-2.16-1.21-.16-.08-.5.08-.68.23-2.25 1.85-4.48 3.73-6.71 5.59-.05.04-.09.1-.14.1-.25.02-.5.02-.75.02 0-.27-.09-.6.03-.79.36-.54.77-1.06 1.24-1.5.71-.67 1.05-1.49 1.21-2.52-.22.1-.41.17-.58.26-3.18 1.53-6.44 2.83-9.85 3.77-.26.07-.54.13-.81.16-1.2.17-1.87-.59-1.4-1.71a28.32 28.32 0 0 1 1.63-3.26c.61-1.05 1.39-2.01 2-3.06.32-.55.41-1.22.66-1.81.79-1.84 1.6-3.67 2.43-5.49.14-.29.12-.47-.04-.74-.9-1.52-1.85-3.02-2.62-4.6-.61-1.25-.96-2.62-.77-4.06C4.34 4 6.56 2.67 8.54 2.4c2.17-.29 4.27.13 6.31.88.2.07.43.11.6.24.98.7 1.74.4 2.63-.31 1.97-1.57 4.3-2.36 6.78-2.67 1.9-.24 4.48.92 5.05 3.29.03.11.08.22.14.37ZM7.99 14.85c2.26-3.8 4.83-7.26 8.21-10.25-1.06-.38-1.99-.75-2.94-1.04-1.71-.53-3.44-.82-5.22-.31-2.7.76-3.83 2.62-3.23 5.31.52 2.34 1.79 4.29 3.19 6.29Zm25.37 7.76c.13-.05.28-.1.42-.17 2.38-1.1 4.5-2.6 6.4-4.38.79-.73 1.44-1.67 1.95-2.63.72-1.38 0-2.46-1.55-2.44-.6 0-1.24.04-1.8.25-2.04.75-4.08 1.54-6.07 2.4-.91.39-1.71 1.01-2.48 1.48.46 2.25 1.96 3.75 3.14 5.48ZM24.57 9.65c1.49-1.51 2.95-3 4.4-4.49.12-.12.23-.34.21-.5-.12-.87-.43-1.66-1.1-2.29-.96-.9-2.15-1.03-3.36-.94-2.01.14-3.8.92-5.48 2-.52.33-1.02.7-1.55 1.07.95.6 1.81 1.15 2.68 1.67.22.13.49.24.75.27.95.11 1.55.6 1.83 1.51.05.16.12.34.24.45.45.44.93.85 1.37 1.25ZM4.65 24.47c-1.26 1.87-2.47 3.7-3.18 5.9h.39c.21-.03.43-.05.64-.1 3.8-1.04 7.42-2.55 10.94-4.31.17-.08.37-.2.44-.36.38-.79.72-1.6 1.08-2.41-.65-.55-1.3-1.09-1.97-1.65-.29.22-.56.44-.85.64-1.69 1.22-3.42 2.39-5.5 2.87-.74.17-1.41.12-2-.57Zm25.43-10.82c.13-.2.3-.44.46-.69 1.23-1.97 2.48-3.92 3.67-5.91.5-.82.94-1.69 1.3-2.57.26-.62.52-1.37-.09-1.93-.59-.55-1.31-.26-1.86.09-1.14.73-2.22 1.55-3.3 2.36-.13.1-.15.37-.18.57-.12.81-.13 1.66-.35 2.44-.34 1.24-.82 2.44-1.22 3.6.51.67 1.02 1.33 1.55 2.03ZM19.7 6.64c-.89-.52-1.65-.99-2.44-1.41-.13-.07-.42 0-.54.11-.74.68-1.49 1.35-2.17 2.08-2.23 2.36-4.1 4.98-5.71 7.79-.09.16-.14.47-.05.61.28.42.63.79.93 1.14 1.17-.96 2.29-1.89 3.4-2.82.12-.11.21-.28.27-.44 1.13-3.15 3-5.64 6.32-7.06Zm2.85 20.16c1.92.81 3.87 1.57 5.99 1.59.99 0 1.98-.19 2.97-.33.13-.02.32-.2.34-.33.17-1.11.05-2.21-.15-3.33-.25.06-.45.1-.63.16-2.39.84-4.85 1.35-7.39 1.4-.59.01-.99.14-1.13.84Zm-.95-15.44c-.27.02-.46.02-.64.06-2.13.47-4.1 1.33-5.96 2.48-.6.37-1.04.81-1.08 1.56-.03.55-.14 1.1-.12 1.65.03.75.16 1.5.25 2.25.06.02.12.04.18.05 1.01-.93 2.02-1.86 3.02-2.8.1-.09.15-.27.16-.42.12-1.58 1.01-2.64 2.45-3.07.97-.29 1.28-.98 1.73-1.77Zm-9.29 9.6-2.67-2.64c-1.32 1.59-2.68 3.2-3.99 4.84-.16.19-.21.62-.1.83.09.16.52.24.77.19 2.33-.47 4.16-1.87 5.99-3.22Zm2.44-8.01c1.99-1.2 4.1-2.03 6.36-2.47 1.08-.21 1.15-.29 1.12-1.42 0-.25-.17-.54-.35-.73-.26-.29-.58-.54-.92-.73-.21-.12-.53-.21-.74-.14-2.72.92-4.31 2.99-5.47 5.48Zm9.53 3.74c-.5-.16-.86-.3-1.24-.4-1.89-.49-2.52-.3-3.41 1.06-.28.43-.29 1.18 0 1.49.34.38 1.94.86 2.24.67.05-.03.09-.08.13-.12.74-.86 1.47-1.73 2.29-2.7Zm.41 6.68c1.26.26 2.46.46 3.35-.51 1.08-1.17.73-2.58.41-4.05-.52.36-1.08.58-1.38.99-.83 1.12-1.55 2.31-2.38 3.57Zm-8.59-.51c.26.2.44.34.63.48.73.53.89.52 1.55-.09.59-.55 1.18-1.1 1.71-1.59-.55-.95-1.02-1.77-1.54-2.67-.81 1.33-1.56 2.57-2.34 3.86ZM29.25 6.09c-.05-.03-.1-.05-.16-.08-1.31 1.41-2.63 2.82-4.01 4.31.96.31 1.77.57 2.6.84.87-1.59 1.38-3.28 1.56-5.07Zm.39 13.73c.02.26.03.45.05.64.12 1.74-.53 3.1-1.86 3.71-.98.45-2.02.45-3.07.21-.72-.16-.77-.14-1 .63 2.23-.1 4.38-.55 6.49-1.2 1.31-.4 1.27-.39 1.01-1.71-.2-1-.73-1.7-1.63-2.28Zm-16.63.55c.12-.09.21-.13.2-.15-.25-1.53-.6-3.06-.41-4.7-.81.72-1.62 1.43-2.43 2.16.92.94 1.77 1.8 2.64 2.69Zm4.49-2.77c-.93.84-1.87 1.68-2.79 2.52-.11.1-.25.33-.21.42.27.56.59 1.1.93 1.72.75-1.19 1.37-2.26 2.07-3.27.33-.48.46-.88 0-1.39Zm8.03-2.85c-.89-.35-1.77-.71-2.66-1.04-.16-.06-.45-.05-.54.05-.37.41-.69.87-1.01 1.3.94.19 1.81.34 2.66.55.94.24.93.26 1.45-.55.02-.03.03-.07.11-.32Zm.55-.71c.09-.32.71-.53.32-1.04-.4-.53-.81-1.07-1.3-1.52-.17-.16-.7-.21-.85-.07-.46.4-.81.92-1.16 1.34 1 .43 1.96.85 3 1.29ZM8.11 16.36c-.71 1.55-1.38 3.01-2.05 4.46l.12.06c.98-1.09 1.96-2.18 2.95-3.27-.32-.39-.62-.75-1.03-1.24Zm11.96 8.42c.6.07 1.08.16 1.56.19 1.07.06 1.23-.05 1.62-1.09-.38-.2-.75-.41-1.14-.59-.11-.05-.32-.05-.41.03-.52.44-1.02.91-1.63 1.47Zm2.91-5.17s.06.09.09.13c1.26-.44 2.23-1.41 3.54-2.02-.52-.25-.9-.45-1.29-.61-.09-.04-.29 0-.35.06-.67.8-1.33 1.62-1.99 2.44Zm2.72.7c-.06-.06-.12-.13-.18-.19-.96.76-1.91 1.52-2.98 2.37.54.25.9.43 1.3.62.63-.95 1.24-1.87 1.86-2.79Zm6.91 7c.07-.02.11-.02.14-.04.04-.04.08-.09.11-.14.62-.89.44-1.83.16-2.77-.04-.14-.22-.25-.34-.37-.07.15-.22.31-.21.46.03.94.09 1.88.14 2.86Zm-4.74-14.8c-.05.33-.22.67-.11.86.36.64.81 1.23 1.23 1.85.52-.63-.01-1.98-1.12-2.71Zm-1.19 2.22c.3.28.57.5.81.76.25.27.48.56.71.85.35-.36-.16-1.38-1.12-2.29-.12.2-.24.4-.41.68Zm.69 2.34.12-.15c-.41-.48-.82-.96-1.28-1.49-.22.31-.38.54-.56.8.61.3 1.16.57 1.71.85Zm-5.41-4.24c.44-.52.89-1.04 1.39-1.62-.77-.03-1.2.47-1.39 1.62Zm-6.91 12.29c.52-.28.9-.49 1.34-.72-.28-.21-.49-.36-.74-.55-.19.4-.36.76-.6 1.28Zm7.84-14.86h1.13c-.36-.33-.62-.57-.96-.88-.07.34-.12.6-.17.88Zm-3.35 5.3.18.15c.52-.64 1.04-1.28 1.57-1.92-.04-.04-.09-.07-.13-.11-.54.63-1.08 1.25-1.62 1.88Zm9.58 2.63c.27.19.5.36.74.53l.08-.11c-.14-.28-.29-.55-.47-.89-.15.2-.24.32-.35.47Z" style="fill:#ce4b48;stroke:#ce4b48;stroke-miterlimit:10"/></svg>