<?xml version="1.0" encoding="utf-8"?>
<!-- Generator: Adobe Illustrator 27.9.0, SVG Export Plug-In . SVG Version: 6.00 Build 0)  -->
<svg version="1.1" id="Layer_1" xmlns="http://www.w3.org/2000/svg" xmlns:xlink="http://www.w3.org/1999/xlink" x="0px" y="0px"
	 viewBox="0 0 48.4 36.5" style="enable-background:new 0 0 48.4 36.5;" xml:space="preserve">
<style type="text/css">
	.st0{fill:#9F5380;stroke:#9F5380;stroke-miterlimit:10;}
</style>
<path class="st0" d="M4.6,14.1c-0.5-0.2-1-0.4-1.5-0.7c-0.4-0.2-0.9-0.7-0.8-1C2.4,11.8,3,11.9,3.5,12c1.1,0.1,2.1,0.3,3.2,0.4
	c0.1,0,0.3,0,0.6,0c-0.4-0.4-0.8-0.7-1.1-1c-0.6-0.6-0.4-1.3,0.4-1.6c0.3-0.1,0.6-0.2,0.9-0.2c0.3-0.1,0.6-0.1,1-0.1L8.4,8
	C8.4,6.6,8.8,5.4,9.6,4.4c0.7-0.9,2.1-1.3,3.1-0.5c0.9,0.7,1.6,1.6,2.3,2.5C15.2,6.7,15.5,7,16.1,7c0.6,0,1.2,0.1,1.9,0.2
	c0.4-1.6,0.8-3.1,1.2-4.7c0-0.2,0.1-0.4,0.2-0.6c0.2-0.2,0.5-0.6,0.8-0.6c0.2,0,0.6,0.3,0.7,0.5c0.3,0.7,0.4,1.3,0.7,2.1
	c0.6-0.6,1.1-1.2,1.7-1.7c1.1-1,2.1-0.8,2.6,0.6C26,3.2,26.2,3.6,26.4,4c0.3-0.2,0.6-0.4,0.9-0.5c1.6-0.9,3.3-1.9,4.9-2.8
	c0.7-0.4,1-0.2,1.3,0.5c0,0.1,0.1,0.3,0.1,0.3c1.2,0,1,1.1,1.6,1.7c0.1,0.1,0.3,0.2,0.4,0.2c1.3-0.2,1.7,0.8,1.7,2
	c0,0.4-0.1,0.9-0.2,1.4C37,7,36.8,7.5,36.6,8c1.2,0.1,1.9,0.7,2.2,1.9c0,0.2,0.4,0.3,0.7,0.4c0.6,0.4,1.3,0.7,1.9,1.2
	c0.7,0.6,1,1.4,0.9,2.3c-0.1,0.6-0.4,1.2,0.1,1.8c0.1,0.1-0.1,0.5-0.2,0.7c-0.1,0.2-0.4,0.4-0.6,0.7c1.7,0.4,3.2,0.8,4.8,1.1
	c0.2,0,0.5,0,0.7,0.2c0.3,0.2,0.5,0.5,0.7,0.8c-0.3,0.2-0.6,0.5-0.9,0.5c-2,0.1-4,0.1-6,0.2c-0.6,0-1.1,0-1.9,0.1
	c0.5,0.3,0.8,0.5,1.2,0.6c0.5,0.2,0.9,0.4,1,1c0,0.2,0.3,0.3,0.5,0.4c1.3,0.7,2.7,1.3,4.1,2c0.3,0.1,0.6,0.6,0.6,0.9
	c0,0.5-0.5,0.5-0.9,0.5c-0.9-0.1-1.9-0.1-2.8-0.1c0,0.4,0,0.8,0,1.1c0.1,0.4,0.2,0.8,0.5,1c0.5,0.5,1,0.9,1.5,1.3
	c0.4,0.3,0.8,0.6,0.6,1.3c-0.3,0.6-0.8,0.5-1.4,0.5c-2.5-0.5-4.9-1-7.3-1.5c-1.5-0.3-2.9-0.7-4.3-1c-0.3-0.1-0.5-0.1-1-0.2
	c0.8,1,1.5,1.9,2.2,2.8c0.2,0.3,0.5,0.5,0.5,0.8c0.1,0.2,0,0.6-0.2,0.8c-0.2,0.1-0.6,0.1-0.8,0c-0.4-0.2-0.8-0.6-1.3-1
	c0.2,0.5,0.3,0.8,0.3,1.1c0,0.4,0,1-0.2,1.2s-0.9,0.3-1.2,0.1c-1.4-0.7-2.7-1.5-4.1-2.2c-0.1-0.1-0.2-0.2-0.3-0.3
	c-0.1,0-0.1,0.1-0.2,0.2l0.6,3.1c0,0.2,0.2,0.5,0.1,0.8c-0.1,0.3-0.4,0.5-0.6,0.8c-0.2-0.2-0.6-0.4-0.6-0.6
	c-0.2-0.9-0.3-1.8-0.5-2.7c-0.2-1.1-0.3-2.2-1-3.3c-0.4,1.3-0.8,2.4-1.2,3.6c-0.2,0.5-0.3,0.9-0.6,1.3c-0.2,0.2-0.6,0.5-0.9,0.5
	c-0.2,0-0.6-0.3-0.7-0.6c-0.2-0.4-0.3-0.8-0.5-1.3c-1.5,1.1-2.1,0.8-2.7-1.2c-0.9,0.8-1.6,1.7-2.6,2.5c-1,0.8-2,1.5-3.1,2.1
	c-0.2,0.1-0.7,0.1-0.8,0c-0.3-0.7-1.1-1.2-0.8-2c0.4-1.1,0.4-2-0.5-3c-0.9-1-0.7-2.5-0.6-3.8c0.1-0.8,0.3-1.6,0.5-2.5
	c-0.8,0-1.6,0.1-2.4,0.1c-0.6,0-1.3,0.2-1.6-0.5c-0.3-0.8,0.5-1,1-1.3c0.7-0.5,1.4-0.8,2.1-1.2C8.8,21.2,9,21,9.4,20.6
	c-0.8-0.3-1.4-0.5-1.9-0.8c-1.9-0.9-3.7-1.8-5.6-2.7c-0.4-0.2-0.8-0.5-1.1-0.8c-0.5-0.6-0.3-1.2,0.4-1.4c0.8-0.1,1.6-0.1,2.4-0.1
	C4.1,14.8,4.4,14.7,4.6,14.1L4.6,14.1z M40.5,27.2l0.1-0.2c-0.6-0.4-1.2-0.8-1.8-1.2c-0.7-0.6-1.5-0.7-2.4-0.4
	c-0.7,0.2-1.4,0.3-2.1,0.1C33,25.2,32,26,30.9,26.4C34.1,27.1,37.2,28.1,40.5,27.2L40.5,27.2z M12.2,9.7c-0.1-0.2-0.1-0.2-0.1-0.3
	c-0.9-1.1-0.6-1.8,0.7-2.2c0.4-0.1,0.8-0.2,1.3-0.3c-0.7-0.8-1.2-1.4-1.9-1.9c-0.8-0.6-1.4-0.5-2,0.3c-0.8,1.2-1,2.4-0.8,3.8
	c0,0.2,0.4,0.4,0.6,0.5C10.8,9.6,11.5,9.7,12.2,9.7L12.2,9.7z M16.3,12.9c-1.8-2-4-2.3-6.5-2.2c0.2,0.8,0.4,1.4,0.7,2.1
	c0,0.1,0.2,0.3,0.3,0.3c0.9,0.2,1.8,0.4,2.7,0.5c0.8,0.1,1.6,0,2.4-0.1C16,13.4,16.1,13.1,16.3,12.9L16.3,12.9z M30.3,32.5l0.2-0.2
	c-0.3-0.6-0.6-1.2-1-1.7c-0.6-1-1.3-2-2-3c-0.5-0.6-1.6-0.5-2.1,0c-0.4,0.5-0.3,1.5,0.2,2c0.4,0.3,0.7,0.6,1.1,0.9
	C28,31.1,29.2,31.8,30.3,32.5L30.3,32.5z M38.9,11.3c-0.4,1.1-0.8,2.1-1.2,3.2c0.9,0,1.8,0.1,2.5,0.1c0.8,0,1.1-0.3,1-1.1
	C41.1,12.6,40.3,11.7,38.9,11.3L38.9,11.3z M22,7.5c0.9-0.8,1.8-1.5,2.6-2.2C25.1,5,25.3,4.6,25,4.1c-0.1-0.2-0.1-0.5-0.2-0.7
	c-0.1-0.5-0.4-0.6-0.8-0.2c-0.5,0.5-0.9,1-1.4,1.4C21.6,5.3,21.6,6.3,22,7.5L22,7.5z M2,16.1c2,0.9,3.9,1.9,5.9,2.8
	c-0.6-0.7-1.3-1.1-1.9-1.8C4.9,16,3.7,15.5,2,16.1z M34.1,6.2c0.6,0.3,0.8,1.1,0.4,2.4c0.4-0.2,0.8-0.4,0.9-0.8
	C35.8,6.9,36,6,36.1,5c0.1-0.6-0.2-0.7-0.7-0.5C34.7,4.9,34.3,5.5,34.1,6.2z M6.6,16.1l-0.2,0.2l4.1,2.7c0.4-0.4,0.6-0.7,0.9-1
	C9.8,17.4,8.2,16.7,6.6,16.1L6.6,16.1z M12.9,8.4c0.8,1.3,1.7,1.8,2.7,1.7C14.6,7.9,14.9,7.7,12.9,8.4z M16,8.1
	c0.2,1.4,0.8,2.4,1.5,2.4c0.1-0.7,0.2-1.4,0.4-2.2C17.1,8.2,16.6,8.2,16,8.1L16,8.1z M19,7.5c1.5-1.5,1.8-2.7,1-4.2
	C19.7,4.7,19.4,6,19,7.5z M23.1,9.6l1.4,1.4c0.2-1,0.4-1.8,0.6-2.9C24.3,8.7,23.7,9.2,23.1,9.6z M43.4,29.2
	c-1.6-1.6-2.2-1.7-3.5-0.6C41,28.9,42.1,29,43.4,29.2z M38.4,18.9c1.5-0.1,2.9-0.1,4.3-0.2C41.3,18.3,39.8,17.5,38.4,18.9z
	 M37.8,11.1c-0.5-0.2-1.1,0.6-1.9,2.5c0.3,0.1,0.5,0.2,0.8,0.3C37.1,13,37.4,12.1,37.8,11.1L37.8,11.1z M31.8,12.9
	c1.1,0.3,1.6-0.1,2.1-1.9C32.9,11.3,32.3,11.9,31.8,12.9z M10.5,29.1c0.1,0,0.2,0.1,0.3,0.1c0.5-0.9,1-1.8,1.5-2.6
	c-0.2-0.2-0.3-0.4-0.6-0.6C11.2,27.2,10.8,28.2,10.5,29.1L10.5,29.1z M34.2,13.2c0.5,0,1.4-1.1,1.7-2.2
	C35.3,10.8,34.5,11.9,34.2,13.2z M23.6,12.1l0.1-0.3l-1.3-1.4l-0.6,1.2C22.5,11.9,23.1,12,23.6,12.1L23.6,12.1z M7.2,10.8
	c0.7,0.5,1.3,1,1.9,1.5C8.9,10.5,8.8,10.4,7.2,10.8z M22.2,29.9c-1.4,0.9-1.6,1.5-1,2.8C21.5,31.8,21.8,30.9,22.2,29.9z M9.9,23.1
	c-0.7-1-1.3-1-2.6,0.4C8.3,23.4,9.1,23.3,9.9,23.1z M28.4,25.3c0.5,0.5,1.8,0.4,2.6-0.3C30.1,25.2,29.3,24.5,28.4,25.3z M38.4,15.6
	c0.2,0.4,0.4,0.9,0.5,0.9c0.4-0.1,0.8-0.4,1.2-0.6c0-0.1-0.1-0.2-0.1-0.2C39.5,15.7,39.1,15.7,38.4,15.6L38.4,15.6z M30.9,14.6
	c0.3,0.1,0.6,0.2,0.8,0.3l0.6-0.9C31.8,14,31.2,13.6,30.9,14.6L30.9,14.6z M18.6,10.6c0,0,0.1,0.1,0.1,0.1c0.5-0.5,1-1,1.5-1.5
	C19.9,9,19.7,9,19.5,8.9C19.2,9.5,18.9,10,18.6,10.6z M20.2,28.4c0.1,0,0.2,0.1,0.2,0.1c0.2-0.3,0.5-0.6,0.7-0.9
	c0.1-0.1,0-0.4,0-0.6c-0.2,0.1-0.5,0.1-0.5,0.2C20.5,27.7,20.4,28.1,20.2,28.4L20.2,28.4z M10.5,26.1l0.9-2
	C10.7,24.3,10.4,24.8,10.5,26.1z M41.2,26.1c-0.2-1-0.4-1.2-1.3-0.9C40.3,25.6,40.8,25.8,41.2,26.1z M34.2,17.8
	c0-0.1,0.1-0.1,0.1-0.2c-0.4-0.3-0.7-0.8-1.5-0.4C33.3,17.5,33.7,17.6,34.2,17.8z"/>
</svg>
