<svg xmlns="http://www.w3.org/2000/svg" data-name="Layer 1" viewBox="0 0 38.04 39.43"><path d="M7.36 33.49c-1.07 1-1 1.81.3 2.63.45.28.94.52 1.41.78.74.41.75.78.04 1.27-1.02.7-2.28.64-3.44-.26-1.91-1.48-3.16-3.42-3.8-5.74-.51-1.85-.52-3.68.22-5.49.08-.19.03-.5-.07-.7C.41 22.95.21 19.75.84 16.45c.04-.23.05-.46.04-.7-.1-1.56.45-2.98.89-4.43.07-.24.19-.51.37-.67 1.09-.92 1.21-2.24 1.53-3.49.41-1.58 1.04-3.06 2.14-4.28 2.11-2.37 4.94-3 8.02-1.76.99.4 1.97.86 2.91 1.36.39.21.65.19.99-.06 1.1-.79 2.32-1.31 3.71-1.28 4.32.08 7.76 3.1 8.39 7.31.03.23.23.55.42.62 2.54.87 4.12 2.73 5.32 5.01.03.06.08.1.13.16.06-.03.12-.05.18-.08-.2-.49-.31-1.06-.62-1.47-.85-1.11-1.76-2.18-2.7-3.22-.67-.74-.75-.88-.28-1.74.04-.08.08-.17.12-.25.13-.24.26-.49.39-.73.28.19.63.32.83.57 1.17 1.49 1.97 3.17 2.53 4.96.84 2.66 1.55 5.36 1.37 8.18-.22 3.53-1.09 5.68-4.13 7.75.3.51.69 1 .88 1.55.76 2.19.82 4.42-.15 6.56-.86 1.91-2.6 2.51-4.55 2.6-1.85.09-3.61-.39-5.37-.88-.34-.1-.77-.08-1.11.02-3.16.94-6.25 1.03-9.26-.53-.17-.09-.35-.15-.49-.27-1.77-1.56-3.77-2.76-5.99-3.76Zm17.43 3.93c1.93.61 3.77 1.02 5.67.75 1.44-.2 2.6-.92 3.14-2.36.79-2.11.76-4.2-.21-6.24-.46-.96-.63-1-1.66-.63-.24.08-.47.16-.7.24.43 3.23-2.13 6.15-6.24 8.24Zm5.38-8.28c-.57.39-1 .69-1.44.97-.76.48-1.53.96-2.3 1.41-.32.18-.7.26-1.01.45-2.24 1.36-4.67 1.83-7.26 1.51-.2-.02-.41 0-.73 0 1.86 1.39 3.63 2.68 5.73 3.42.22.08.52.16.71.08 2.45-1.02 4.57-2.45 5.91-4.82.48-.84.79-1.73.39-3.02ZM16.06 3.74c-1.56-.47-3.16-1.05-4.89-1.01-.75.02-1.38.27-1.73.98-.64 1.27-.64 2.63-.58 4.01.63.06 1.18.13 1.74.17.15.01.37 0 .44-.1.72-1.04 1.74-.9 2.78-.79.21.02.55-.1.65-.26.55-.96 1.05-1.95 1.59-2.98ZM6.73 33c-1.35-2.02-2.65-3.95-3.99-5.96-.09.22-.15.32-.18.43-.68 2.37-.3 4.62.83 6.77.71 1.35 1.68 2.47 3.01 3.25.85.5 1.56.5 2.17.02-2.98-2.01-3.21-2.62-1.84-4.52Zm.08-9.43c.06-2.54-.22-5.04 1.63-7.14-.46-.41-.83-.84-1.29-1.13-.82-.51-1.64-.27-2.36.24-.7.5-1.31 1.15-1.21 2.07.09.85.29 1.7.56 2.51.47 1.4 1.36 2.51 2.67 3.44ZM8.15 7.71c0-.76-.04-1.63 0-2.49.12-2.08 1.03-3.04 3-3.15.53-.03 1.08.02 1.6.12 1.03.2 2.04.45 3.19.71-7.01-4.31-11.21.51-11.89 5.81 1.29-.32 2.61-.65 4.09-1.01Zm7.49 25.54c-.8 1.11-1.84 1.99-3.34 2.2 2.12 2.54 7.12 3.05 9.84 2.06-2.09-1.37-4.26-2.79-6.5-4.26ZM28.77 8.86c.05-.08.1-.15.16-.23-.61-.96-1.19-1.94-1.84-2.87-.88-1.28-1.95-2.38-3.29-3.2-.85-.52-1.73-.33-2.2.55-.18.34-.26.74-.34 1.12-.09.41.07.66.47.88.93.52 1.85 1.09 2.73 1.7.85.6 1.49 1.51 2.67 1.61.56.05 1.1.28 1.65.43Zm-5.97 1.58c-.98-1.33-1.85-2.67-2.16-4.29a.55.55 0 0 0-.14-.23c-.94-.86-1.98-1.55-3.25-1.81-.12-.02-.3-.02-.37.05-.77.87-1.37 1.84-1.77 3.04 2.87.39 5.15 1.65 6.78 3.98.34-.28.6-.49.9-.74Zm8.45 14.62c.02.11.05.22.07.34.92 0 1.85.06 2.76-.02.96-.09 1.74-.55 2.01-1.57.18-.67.41-1.34.49-2.02.19-1.66-.06-3.28-.6-4.85-.88.65-1.17 1.44-.97 2.46.09.45.02.94-.05 1.39-.33 1.96-1.25 3.44-3.28 4.02-.16.04-.29.17-.43.26ZM14.89 7.88q-.36 1.21.67 1.74c1.69.87 3.3 1.85 4.41 3.46.11.16.42.28.62.26.35-.05.87-1.5.66-1.79-1.56-2.16-3.69-3.34-6.36-3.67Zm-6.16 9.4c-.13.19-.24.32-.31.46-.96 1.81-.97 3.76-.82 5.73 0 .13.21.29.35.35.54.21 1.09.39 1.64.58q1.12-1.01.55-2.44c-.03-.06-.04-.13-.06-.2-.44-1.46-.88-2.93-1.35-4.47Zm11.17 4.88c-.99.88-1.89 1.68-2.93 2.6.51.61 1.07 1.27 1.69 2.02 1.09-1.38 2.35-2.12 3.99-2.01-.46-1.63-1.87-2.09-2.75-2.61Zm.72 6.18c.95.42 1.83.98 2.78 1.18.65.14 1.55-.01 2.08-.4.52-.37.7-1.2 1.04-1.85-1.23-.54-2.41-.58-3.61-.59-1.11 0-1.88.41-2.29 1.65Zm14.02-11.09c1.03-1.06 1.11-1.34.48-2.48-.52-.93-1.08-1.86-1.74-2.69-.77-.98-1.77-1.72-3.04-2.09.12.52.21 1.07.52 1.43 1.54 1.74 2.95 3.54 3.77 5.83Zm-2.84 6.71c1.82-.37 3.18-3.44 2.35-5.44-.74.07-1.47.14-2.35.22v5.21Zm2.23-6.23c-.64-2.03-1.76-3.63-3.05-5.07-.31.71-.58 1.35-.87 2.03.12.09.31.25.52.4.66.49 1.13 1.1 1.26 1.94.15.97.27 1.06 1.26.93.27-.04.53-.14.89-.23ZM14.48 9.99c-.17.69-.23 1.26.46 1.68.34.2.67.46.9.77.91 1.23 2.2 1.14 3.51 1.13-.72-1.29-3.02-2.99-4.87-3.58Zm-6.91 4.57s.01-.09 0-.13c-.48-1.07-2.38-2.12-3.61-1.98-.14.02-.36.24-.36.38-.03.9-.02 1.8-.02 2.74 2.16-1.66 2.67-1.31 3.99-1.01Zm3.75-4.63c0 .4.04.79 0 1.17-.11.97.27 1.77.8 2.52.1.15.35.28.53.27.36-.02.72-.15 1.06-.23.22-1.7-.45-2.76-2.38-3.73Zm7.72 11.92c-.04-.13-.09-.27-.13-.4-.32-.15-.63-.38-.96-.43-.86-.11-1.73-.13-2.69-.2.48.97.97 1.94 1.49 2.99.79-.68 1.54-1.32 2.29-1.97Zm-5.16 3.96c.6.9 1.17 1.78 1.75 2.65 1.37-.78 1.55-2.34.55-3.33-.76.23-1.48.44-2.3.69Zm-2.7 8.37c.25.69.9.56 1.48.46 1.09-.19 2.19-1.18 2.31-2.01h-3.16c-.21.52-.41 1-.64 1.56ZM16 17.68c.69.74 1.31 1.38 1.9 2.06.54.61 1.09.55 1.73.11-.59-.86-1.17-1.73-1.77-2.58-.09-.12-.36-.22-.5-.18-.41.13-.8.34-1.35.59Zm-2.09-3.32c-.45.1-.87.2-1.36.31.42 1.24.16 2.61 1.24 3.61.3-.39.61-.76.87-1.16.07-.11.07-.31.03-.44-.24-.75-.5-1.49-.79-2.32Zm14.67-.66c.19-.87.38-1.72.53-2.58.03-.14-.08-.36-.2-.47-.34-.35-.69-.69-1.09-.97-.21-.15-.53-.15-.73-.19.21 1.14.46 2.15.56 3.17.05.54.17.88.92 1.04Zm-13.6 9.13c-1.14.12-1.22-.96-1.8-1.67-.09.52-.3.96-.2 1.32.24.86.62 1.68.97 2.58.59-.19 1.18-.38 1.81-.58-.29-.61-.53-1.13-.78-1.65ZM20.29 4.5c.4-.95.76-1.8 1.12-2.64-1.26-.06-2.37.48-3.53 1.34.91.49 1.71.92 2.41 1.3Zm-.13 25.84c-.15-.44-.37-.75-.35-1.04.09-.86-.51-1.14-1.15-1.55-.46.8-.89 1.56-1.32 2.3.91.99 1.85.2 2.81.29Zm-10-15.23c.27-.34.67-.64.75-1 .09-.4-.09-.87-.22-1.29-.2-.61-.54-1.15-1.14-1.5-.54 1.52-.33 3.09.61 3.79Zm-6.08-3.47c1.02.31 1.82.55 2.59.79V9.14c-.91.88-1.71 1.65-2.59 2.5Zm30.8 14.41h-4.06c-.02.06-.06.15-.06.24.02.38 1.96 1.49 2.27 1.26.59-.43 1.13-.91 1.85-1.5Zm-3.78-8.12c.17-1.48-.68-2.49-2.47-3.15-.14.89.56 1.46.86 2.08.23.47.98.68 1.61 1.07ZM16.54 32.05c1.84.46 3.61.99 5.47.4-1.39-.36-2.75-.77-4.13-1.05-.44-.09-1.05-.1-1.35.65ZM8.16 13.39V8.84c-1.21.78-1.09 3.94 0 4.55Zm15.85 8.62c-.71-.96-1.41-1.9-2.13-2.86-.73.58-.23 1.24-.09 1.83.15.58 1.39 1.12 2.22 1.04Zm-1.42-3.85c1.05.6 2.03 1.2 3.36 1.27-.8-1.1-1.72-1.79-2.93-2.17-.14.3-.27.56-.43.9Zm4.76-.44c-.05.53-.28 1.09-.1 1.44.37.72.96 1.33 1.45 1.97.6-1.51-.09-2.51-1.36-3.42Zm-3.36 8.32c-.95-1.16-3.45-.47-4.71 1.18.23.18.46.35.76.58.69-1.9 2.21-1.96 3.95-1.76Zm1.41-3.67c.56.43 1.15.89 1.73 1.34.08-.05.16-.09.23-.14-.19-.98-.39-1.97-.61-3.11-.53.76-.92 1.3-1.35 1.92ZM23 19.29s-.08.04-.11.07c.63.79 1.25 1.57 1.98 2.49.42-.6.75-1.06 1.04-1.48-1.06-.39-1.98-.73-2.91-1.07Zm-12.43-8.35c.08-1.65-.21-2-1.67-1.96v1.63c.59.12 1.12.22 1.67.33Zm-3.9 15.99c.82 1.66 1.11 1.83 2.41 1.39-.84-1.68-1.04-1.79-2.41-1.39Zm20.44-2.09c-1.36-.35-2.68-.68-4.01-1.02.25.43.53.89.92 1 .95.28 1.95.4 2.96.59.05-.22.09-.4.13-.57ZM26.86 13l.28-.13c-.24-.88-.47-1.76-.71-2.64-.12-.43-.4-.69-.8-.37-.15.13-.17.57-.08.81.24.62.56 1.22.88 1.81.1.19.28.34.43.51ZM10.79 28.17c.2-1.19-.45-1.85-1.02-2.53-.06-.07-.31-.05-.42.02-.23.14-.43.34-.75.6.73.64 1.41 1.23 2.18 1.91ZM22 5.96s-.05.1-.08.15c.94 1.05 1.88 2.1 2.85 3.19.15-.27.29-.53.5-.92-1.09-.81-2.18-1.61-3.27-2.42ZM15.34 16.4c.51-.31.92-.56 1.32-.8-.78-1.42-.96-1.53-1.97-1.18.2.62.41 1.25.65 1.98ZM4.22 25.06c1.03.44 1.72 1.31 2.9.99-1.02-1.67-1.35-1.8-2.9-.99Zm-1.48-2.17v-7.78c-.2 2.54-.88 5.09 0 7.78Zm17.28-3.78c.16-.62.75-1.18.14-1.8-.74-.76-.79-.78-1.67-.42.51.74 1.02 1.48 1.52 2.22Zm-6.21 10.67c.49 1.2.84 1.36 2.22.99-.2-.46-.4-.91-.59-1.35-.59.13-1.08.24-1.64.36Zm15.99-8.86h-.33c-.05 1.07-.1 2.14-.15 3.28.35.02.59.04 1 .06-.19-1.19-.36-2.27-.53-3.35Zm-6.31-4.52c.83.54 1.82 1.19 2.86 1.87.04-.38.13-.71.1-1.02-.02-.18-.22-.45-.38-.48-.91-.17-1.84-.27-2.58-.38Zm-9.96 10.69c-.51.61-.63 1.43-.12 1.79.32.23.93.04 1.42.04l.03-.24c-.43-.51-.86-1.03-1.33-1.59Zm13.08 2.04c1.04.1 1.73-.26 2.12-1.23-.37-.16-.73-.33-1.11-.49l-1.01 1.73ZM15.56 18.29c-.11.52-.22.89-.24 1.27 0 .15.15.4.28.44.56.15 1.13.24 1.86.38-.68-.75-1.22-1.35-1.89-2.1Zm6.27-11.23c-.07.05-.15.1-.22.15.58.94 1.15 1.87 1.76 2.85.28-.17.46-.29.72-.45-.79-.89-1.53-1.73-2.26-2.56Zm-7.66.66c-.84-.03-1.64-.29-2.48.35.8.29 1.48.54 2.2.79l.28-1.15ZM30.86 22.2c.58-1.43-.15-2.51-1.08-3.53l-.18.06c.42 1.17.85 2.33 1.26 3.47ZM8.25 31.97c-1.01-.87-1.98-1.71-2.96-2.55l-.12.12c.65.75 1.32 1.5 1.96 2.26.36.43.71.57 1.12.16ZM33.18 7.86c-.09 0-.18.02-.28.02-.05.26-.24.63-.13.77.6.76 1.28 1.47 1.93 2.19l.14-.1c-.55-.96-1.11-1.92-1.66-2.88ZM4.5 26.2c.51 1.09.86 2.13 2.28 2.27-.68-.88-1.07-1.87-2.28-2.27Zm6.06 5.06c-.38-1.37-.5-1.42-1.73-.85q.55 1.2 1.73.85Zm11.74-8.71c1.05.68 2.27.94 3.51 1.16-.41-.39-.82-.87-1.33-1.01-.68-.19-1.43-.12-2.18-.16Zm-4.15 4.73c-.16-.19-.32-.37-.41-.47-.45.81-.88 1.56-1.35 2.41.04.04.19.2.37.39.49-.81.92-1.53 1.39-2.33Zm-5.24 3.71q-1.17-1.14-1.92-.9.32 1.18 1.92.9Zm-9.36-8.24c.49.05.86.08 1.29.12-.47-.75-.92-1.46-1.47-2.33.07.86.12 1.53.18 2.21Zm6.97-7.15c.56.68 1.08 1.33 1.61 1.97.06-.04.12-.07.18-.11-.34-.75-.68-1.51-1.03-2.31-.28.17-.49.29-.76.44Zm20.12 11.68c-.09.03-.18.06-.27.08l.09 1.02c.47-.06.95-.11 1.42-.17v-.25c-.42-.23-.84-.46-1.26-.68Zm-17.11-16.8.2-.03c-.05-.29 0-.76-.15-.84-.58-.31-1.22-.49-1.84-.72l-.06.14 1.85 1.46ZM5.64 9.11c-1.61.37-2.01.79-1.85 1.67.55-.49 1.16-1.05 1.85-1.67Zm22.4 15.07c.64-1.23.52-2.11-.28-2.89.09.9.18 1.83.28 2.89Zm-17.38-6.09c.4.74.75 1.38 1.15 2.12q.36-1.22-1.15-2.12ZM22.3 11.9c.03.06.07.12.1.17.58-.04 1.17-.07 1.69-.1-.24-.3-.51-.63-.81-.99-.37.34-.68.63-.99.92Zm6.92 2.04c.9-.26 1.18-1.39.63-2.36-.21.78-.41 1.53-.63 2.36Zm-4.98 16.71-.02-.25c-.65.07-1.3.13-2.12.22 1.14.64 1.49.62 2.14.03Zm-4.28-16.32c-.46.23-.82.42-1.19.6v.24c.47.08.95.17 1.56.27-.14-.42-.24-.72-.37-1.12Zm-8.24 11.45c-.09.03-.18.06-.26.08l.18 1.7c.09.02.18.03.27.05.09-.17.28-.38.24-.49-.17-.43.19-1.08-.42-1.34Zm10.15 5.83c-.64-.68-1.36-.86-2.38-.37.92.14 1.65.25 2.38.37Zm.79-15.83c-.25-.39-.51-.78-.83-1.28-.4 1.19-.37 1.23.83 1.28ZM8.21 32.87c.52.3.94.53 1.36.77-.35-1.33-.38-1.35-1.36-.77ZM28.44 6.41c.06-.04.11-.09.17-.13-.75-.94-1.5-1.89-2.25-2.83-.05.04-.09.08-.14.11.74.95 1.48 1.9 2.23 2.85ZM14.55 22.14c.07-.04.13-.08.2-.11-.14-.74-.32-1.46-.93-1.96l-.18.09c.31.66.61 1.32.92 1.99Zm6.05 6.94c.06.95.46 1.17 1.45.77-.51-.27-.97-.51-1.45-.77Zm.63-7 .14-.16c-.35-.4-.69-.8-1.1-1.27-.13.27-.22.46-.32.68.46.27.87.51 1.27.75Zm-10.94-2.39c-.05.03-.11.06-.16.09.3.8.59 1.61.89 2.41.1-.04.2-.08.29-.12-.34-.8-.68-1.59-1.02-2.39Zm-5.31 4.17v-.22c-.34-.04-.68-.11-1.01-.08-.06 0-.08.45-.14.84.51-.23.84-.38 1.16-.53Zm17.88-11.09v.21h1.68v-.21h-1.69ZM9.95 32.42c.26.4.45.68.73 1.13.12-.43.2-.71.3-1.04-.37-.03-.62-.05-1.03-.09Zm18.97-6.52q.84.33 1.09-.1-.83-.39-1.09.1Zm-.6.64-.03.24c.84.59.87.59 1.16 0-.39-.09-.76-.17-1.12-.25Zm-3.37-10.49c.03-.07.06-.13.09-.2-.54-.25-1.08-.5-1.61-.76-.04.09-.07.17-.11.26.55.23 1.09.47 1.64.7ZM12.39 28.19c-.2.07-.37.13-.64.22.27.32.47.57.73.88.09-.21.13-.26.12-.29-.06-.24-.13-.48-.21-.8Z" style="fill:#ce4b48;stroke:#ce4b48;stroke-miterlimit:10"/></svg>