<?xml version="1.0" encoding="utf-8"?>
<!-- Generator: Adobe Illustrator 27.9.0, SVG Export Plug-In . SVG Version: 6.00 Build 0)  -->
<svg version="1.1" id="Layer_1" xmlns="http://www.w3.org/2000/svg" xmlns:xlink="http://www.w3.org/1999/xlink" x="0px" y="0px"
	 viewBox="0 0 38 39.4" style="enable-background:new 0 0 38 39.4;" xml:space="preserve">
<style type="text/css">
	.st0{fill:#9F5380;stroke:#9F5380;stroke-miterlimit:10;}
</style>
<path class="st0" d="M7.4,33.5c-1.1,1-1,1.8,0.3,2.6c0.5,0.3,0.9,0.5,1.4,0.8c0.7,0.4,0.8,0.8,0,1.3c-1,0.7-2.3,0.6-3.4-0.3
	c-1.9-1.5-3.2-3.4-3.8-5.7c-0.5-1.9-0.5-3.7,0.2-5.5c0.1-0.2,0-0.5-0.1-0.7c-1.6-3-1.8-6.2-1.2-9.5c0-0.2,0.1-0.5,0-0.7
	c-0.1-1.6,0.4-3,0.9-4.4c0.1-0.2,0.2-0.5,0.4-0.7c1.1-0.9,1.2-2.2,1.5-3.5c0.4-1.6,1-3.1,2.1-4.3c2.1-2.4,4.9-3,8-1.8
	c1,0.4,2,0.9,2.9,1.4c0.4,0.2,0.6,0.2,1-0.1c1.1-0.8,2.3-1.3,3.7-1.3c4.3,0.1,7.8,3.1,8.4,7.3c0,0.2,0.2,0.6,0.4,0.6
	c2.5,0.9,4.1,2.7,5.3,5c0,0.1,0.1,0.1,0.1,0.2c0.1,0,0.1-0.1,0.2-0.1c-0.2-0.5-0.3-1.1-0.6-1.5c-0.8-1.1-1.8-2.2-2.7-3.2
	c-0.7-0.7-0.8-0.9-0.3-1.7c0-0.1,0.1-0.2,0.1-0.2c0.1-0.2,0.3-0.5,0.4-0.7c0.3,0.2,0.6,0.3,0.8,0.6c1.2,1.5,2,3.2,2.5,5
	c0.8,2.7,1.5,5.4,1.4,8.2c-0.2,3.5-1.1,5.7-4.1,7.8c0.3,0.5,0.7,1,0.9,1.5c0.8,2.2,0.8,4.4-0.2,6.6c-0.9,1.9-2.6,2.5-4.5,2.6
	C27.7,39,26,38.5,24.2,38c-0.3-0.1-0.8-0.1-1.1,0c-3.2,0.9-6.2,1-9.3-0.5c-0.2-0.1-0.4-0.2-0.5-0.3C11.6,35.7,9.6,34.5,7.4,33.5
	L7.4,33.5z M24.8,37.4c1.9,0.6,3.8,1,5.7,0.8c1.4-0.2,2.6-0.9,3.1-2.4c0.8-2.1,0.8-4.2-0.2-6.2c-0.5-1-0.6-1-1.7-0.6
	c-0.2,0.1-0.5,0.2-0.7,0.2C31.5,32.4,28.9,35.3,24.8,37.4z M30.2,29.1c-0.6,0.4-1,0.7-1.4,1c-0.8,0.5-1.5,1-2.3,1.4
	c-0.3,0.2-0.7,0.3-1,0.5c-2.2,1.4-4.7,1.8-7.3,1.5c-0.2,0-0.4,0-0.7,0c1.9,1.4,3.6,2.7,5.7,3.4c0.2,0.1,0.5,0.2,0.7,0.1
	c2.5-1,4.6-2.5,5.9-4.8C30.3,31.3,30.6,30.4,30.2,29.1z M16.1,3.7c-1.6-0.5-3.2-1-4.9-1c-0.8,0-1.4,0.3-1.7,1C8.8,5,8.8,6.3,8.9,7.7
	c0.6,0.1,1.2,0.1,1.7,0.2c0.1,0,0.4,0,0.4-0.1c0.7-1,1.7-0.9,2.8-0.8c0.2,0,0.6-0.1,0.6-0.3C15,5.8,15.5,4.8,16.1,3.7L16.1,3.7z
	 M6.7,33c-1.3-2-2.7-4-4-6c-0.1,0.2-0.2,0.3-0.2,0.4c-0.7,2.4-0.3,4.6,0.8,6.8c0.7,1.3,1.7,2.5,3,3.2C7.2,38,8,38,8.6,37.5
	C5.6,35.5,5.4,34.9,6.7,33L6.7,33z M6.8,23.6c0.1-2.5-0.2-5,1.6-7.1C8,16,7.6,15.6,7.1,15.3c-0.8-0.5-1.6-0.3-2.4,0.2
	C4,16,3.4,16.7,3.5,17.6s0.3,1.7,0.6,2.5C4.6,21.5,5.5,22.6,6.8,23.6L6.8,23.6z M8.1,7.7c0-0.8,0-1.6,0-2.5c0.1-2.1,1-3,3-3.2
	c0.5,0,1.1,0,1.6,0.1c1,0.2,2,0.5,3.2,0.7C8.9-1.4,4.7,3.4,4.1,8.7C5.3,8.4,6.7,8.1,8.1,7.7L8.1,7.7z M15.6,33.2
	c-0.8,1.1-1.8,2-3.3,2.2c2.1,2.5,7.1,3,9.8,2.1C20,36.1,17.9,34.7,15.6,33.2z M28.8,8.9c0-0.1,0.1-0.1,0.2-0.2
	c-0.6-1-1.2-1.9-1.8-2.9c-0.9-1.3-2-2.4-3.3-3.2c-0.9-0.5-1.7-0.3-2.2,0.5c-0.2,0.3-0.3,0.7-0.3,1.1c-0.1,0.4,0.1,0.7,0.5,0.9
	c0.9,0.5,1.9,1.1,2.7,1.7c0.9,0.6,1.5,1.5,2.7,1.6C27.7,8.5,28.2,8.7,28.8,8.9L28.8,8.9z M22.8,10.4c-1-1.3-1.9-2.7-2.2-4.3
	c0-0.1-0.1-0.2-0.1-0.2c-0.9-0.9-2-1.5-3.2-1.8c-0.1,0-0.3,0-0.4,0.1c-0.8,0.9-1.4,1.8-1.8,3c2.9,0.4,5.1,1.6,6.8,4
	C22.2,10.9,22.5,10.7,22.8,10.4L22.8,10.4z M31.2,25.1c0,0.1,0,0.2,0.1,0.3c0.9,0,1.8,0.1,2.8,0s1.7-0.5,2-1.6
	c0.2-0.7,0.4-1.3,0.5-2c0.2-1.7-0.1-3.3-0.6-4.9c-0.9,0.6-1.2,1.4-1,2.5c0.1,0.5,0,0.9,0,1.4c-0.3,2-1.2,3.4-3.3,4
	C31.5,24.8,31.4,25,31.2,25.1L31.2,25.1z M14.9,7.9c-0.2,0.8,0,1.4,0.7,1.7c1.7,0.9,3.3,1.9,4.4,3.5c0.1,0.2,0.4,0.3,0.6,0.3
	c0.4-0.1,0.9-1.5,0.7-1.8C19.7,9.4,17.6,8.2,14.9,7.9z M8.7,17.3c-0.1,0.2-0.2,0.3-0.3,0.5c-1,1.8-1,3.8-0.8,5.7
	c0,0.1,0.2,0.3,0.3,0.4C8.5,24,9,24.2,9.6,24.4c0.7-0.7,0.9-1.5,0.6-2.4c0-0.1,0-0.1-0.1-0.2C9.6,20.3,9.2,18.8,8.7,17.3L8.7,17.3z
	 M19.9,22.2c-1,0.9-1.9,1.7-2.9,2.6c0.5,0.6,1.1,1.3,1.7,2c1.1-1.4,2.4-2.1,4-2C22.2,23.1,20.8,22.7,19.9,22.2z M20.6,28.3
	c1,0.4,1.8,1,2.8,1.2c0.6,0.1,1.5,0,2.1-0.4c0.5-0.4,0.7-1.2,1-1.9c-1.2-0.5-2.4-0.6-3.6-0.6C21.8,26.7,21,27.1,20.6,28.3L20.6,28.3
	z M34.6,17.2c1-1.1,1.1-1.3,0.5-2.5c-0.5-0.9-1.1-1.9-1.7-2.7c-0.8-1-1.8-1.7-3-2.1c0.1,0.5,0.2,1.1,0.5,1.4
	C32.4,13.2,33.8,15,34.6,17.2L34.6,17.2z M31.8,24c1.8-0.4,3.2-3.4,2.3-5.4c-0.7,0.1-1.5,0.1-2.4,0.2L31.8,24L31.8,24z M34,17.7
	c-0.6-2-1.8-3.6-3-5.1c-0.3,0.7-0.6,1.4-0.9,2c0.1,0.1,0.3,0.2,0.5,0.4c0.7,0.5,1.1,1.1,1.3,1.9c0.2,1,0.3,1.1,1.3,0.9
	C33.4,17.9,33.7,17.8,34,17.7L34,17.7z M14.5,10c-0.2,0.7-0.2,1.3,0.5,1.7c0.3,0.2,0.7,0.5,0.9,0.8c0.9,1.2,2.2,1.1,3.5,1.1
	C18.6,12.3,16.3,10.6,14.5,10z M7.6,14.6v-0.1c-0.5-1.1-2.4-2.1-3.6-2c-0.1,0-0.4,0.2-0.4,0.4c0,0.9,0,1.8,0,2.7
	C5.7,13.9,6.2,14.3,7.6,14.6z M11.3,9.9c0,0.4,0,0.8,0,1.2c-0.1,1,0.3,1.8,0.8,2.5c0.1,0.1,0.4,0.3,0.5,0.3c0.4,0,0.7-0.1,1.1-0.2
	C13.9,12,13.3,10.9,11.3,9.9L11.3,9.9z M19,21.8c0-0.1-0.1-0.3-0.1-0.4c-0.3-0.1-0.6-0.4-1-0.4c-0.9-0.1-1.7-0.1-2.7-0.2
	c0.5,1,1,1.9,1.5,3C17.5,23.1,18.3,22.5,19,21.8L19,21.8z M13.9,25.8c0.6,0.9,1.2,1.8,1.8,2.6c1.4-0.8,1.5-2.3,0.5-3.3
	C15.4,25.4,14.7,25.6,13.9,25.8L13.9,25.8z M11.2,34.2c0.2,0.7,0.9,0.6,1.5,0.5c1.1-0.2,2.2-1.2,2.3-2h-3.2
	C11.6,33.1,11.4,33.6,11.2,34.2L11.2,34.2z M16,17.7c0.7,0.7,1.3,1.4,1.9,2.1c0.5,0.6,1.1,0.5,1.7,0.1c-0.6-0.9-1.2-1.7-1.8-2.6
	c-0.1-0.1-0.4-0.2-0.5-0.2C16.9,17.2,16.6,17.4,16,17.7L16,17.7z M13.9,14.4c-0.4,0.1-0.9,0.2-1.4,0.3c0.4,1.2,0.2,2.6,1.2,3.6
	c0.3-0.4,0.6-0.8,0.9-1.2c0.1-0.1,0.1-0.3,0-0.4C14.4,15.9,14.2,15.2,13.9,14.4L13.9,14.4z M28.6,13.7c0.2-0.9,0.4-1.7,0.5-2.6
	c0-0.1-0.1-0.4-0.2-0.5c-0.3-0.4-0.7-0.7-1.1-1c-0.2-0.1-0.5-0.1-0.7-0.2c0.2,1.1,0.5,2.2,0.6,3.2C27.7,13.2,27.8,13.5,28.6,13.7
	L28.6,13.7z M15,22.8c-1.1,0.1-1.2-1-1.8-1.7c-0.1,0.5-0.3,1-0.2,1.3c0.2,0.9,0.6,1.7,1,2.6c0.6-0.2,1.2-0.4,1.8-0.6
	C15.5,23.9,15.2,23.4,15,22.8z M20.3,4.5c0.4-1,0.8-1.8,1.1-2.6c-1.3-0.1-2.4,0.5-3.5,1.3C18.8,3.7,19.6,4.1,20.3,4.5z M20.2,30.3
	c-0.1-0.4-0.4-0.8-0.4-1c0.1-0.9-0.5-1.1-1.1-1.5c-0.5,0.8-0.9,1.6-1.3,2.3C18.3,31,19.2,30.2,20.2,30.3L20.2,30.3z M10.2,15.1
	c0.3-0.3,0.7-0.6,0.8-1s-0.1-0.9-0.2-1.3c-0.2-0.6-0.5-1.1-1.1-1.5C9,12.8,9.2,14.4,10.2,15.1z M4.1,11.6c1,0.3,1.8,0.6,2.6,0.8V9.1
	C5.8,10,5,10.8,4.1,11.6z M34.9,26h-4.1c0,0.1-0.1,0.1-0.1,0.2c0,0.4,2,1.5,2.3,1.3C33.6,27.1,34.2,26.6,34.9,26z M31.1,17.9
	c0.2-1.5-0.7-2.5-2.5-3.1c-0.1,0.9,0.6,1.5,0.9,2.1C29.7,17.3,30.5,17.5,31.1,17.9z M16.5,32c1.8,0.5,3.6,1,5.5,0.4
	c-1.4-0.4-2.8-0.8-4.1-1C17.4,31.3,16.8,31.3,16.5,32L16.5,32z M8.2,13.4V8.8C6.9,9.6,7.1,12.8,8.2,13.4z M24,22
	c-0.7-1-1.4-1.9-2.1-2.9c-0.7,0.6-0.2,1.2-0.1,1.8C21.9,21.6,23.2,22.1,24,22L24,22z M22.6,18.2c1,0.6,2,1.2,3.4,1.3
	c-0.8-1.1-1.7-1.8-2.9-2.2C22.9,17.6,22.8,17.8,22.6,18.2z M27.4,17.7c0,0.5-0.3,1.1-0.1,1.4c0.4,0.7,1,1.3,1.5,2
	C29.3,19.6,28.6,18.6,27.4,17.7L27.4,17.7z M24,26c-1-1.2-3.5-0.5-4.7,1.2c0.2,0.2,0.5,0.4,0.8,0.6C20.7,25.9,22.2,25.8,24,26z
	 M25.4,22.4c0.6,0.4,1.1,0.9,1.7,1.3c0.1,0,0.2-0.1,0.2-0.1c-0.2-1-0.4-2-0.6-3.1C26.2,21.2,25.8,21.8,25.4,22.4L25.4,22.4z
	 M23,19.3c0,0-0.1,0-0.1,0.1c0.6,0.8,1.2,1.6,2,2.5c0.4-0.6,0.8-1.1,1-1.5C24.9,20,23.9,19.6,23,19.3L23,19.3z M10.6,10.9
	c0.1-1.6-0.2-2-1.7-2v1.6C9.5,10.7,10,10.8,10.6,10.9z M6.7,26.9c0.8,1.7,1.1,1.8,2.4,1.4C8.2,26.6,8,26.5,6.7,26.9z M27.1,24.8
	c-1.4-0.4-2.7-0.7-4-1c0.2,0.4,0.5,0.9,0.9,1c1,0.3,2,0.4,3,0.6C27,25.2,27.1,25,27.1,24.8z M26.9,13l0.3-0.1
	c-0.2-0.9-0.5-1.8-0.7-2.6c-0.1-0.4-0.4-0.7-0.8-0.4c-0.1,0.1-0.2,0.6-0.1,0.8c0.2,0.6,0.6,1.2,0.9,1.8C26.5,12.7,26.7,12.8,26.9,13
	L26.9,13z M10.8,28.2c0.2-1.2-0.4-1.9-1-2.5c-0.1-0.1-0.3,0-0.4,0C9.2,25.8,9,26,8.6,26.3C9.3,26.9,10,27.5,10.8,28.2L10.8,28.2z
	 M22,6c0,0,0,0.1-0.1,0.2c0.9,1,1.9,2.1,2.9,3.2c0.1-0.3,0.3-0.5,0.5-0.9C24.2,7.6,23.1,6.8,22,6z M15.3,16.4
	c0.5-0.3,0.9-0.6,1.3-0.8c-0.8-1.4-1-1.5-2-1.2C14.9,15,15.1,15.7,15.3,16.4z M4.2,25.1c1,0.4,1.7,1.3,2.9,1
	C6.1,24.4,5.8,24.2,4.2,25.1z M2.7,22.9v-7.8C2.5,17.6,1.9,20.2,2.7,22.9z M20,19.1c0.2-0.6,0.8-1.2,0.1-1.8
	c-0.7-0.8-0.8-0.8-1.7-0.4C19,17.6,19.5,18.4,20,19.1L20,19.1z M13.8,29.8c0.5,1.2,0.8,1.4,2.2,1c-0.2-0.5-0.4-0.9-0.6-1.4
	C14.9,29.5,14.4,29.7,13.8,29.8L13.8,29.8z M29.8,20.9h-0.3c0,1.1-0.1,2.1-0.1,3.3c0.4,0,0.6,0,1,0.1C30.1,23.1,30,22,29.8,20.9
	L29.8,20.9z M23.5,16.4c0.8,0.5,1.8,1.2,2.9,1.9c0-0.4,0.1-0.7,0.1-1c0-0.2-0.2-0.5-0.4-0.5C25.2,16.6,24.2,16.5,23.5,16.4
	L23.5,16.4z M13.5,27.1c-0.5,0.6-0.6,1.4-0.1,1.8c0.3,0.2,0.9,0,1.4,0v-0.2C14.4,28.2,14,27.6,13.5,27.1z M26.6,29.1
	c1,0.1,1.7-0.3,2.1-1.2c-0.4-0.2-0.7-0.3-1.1-0.5L26.6,29.1L26.6,29.1z M15.6,18.3c-0.1,0.5-0.2,0.9-0.2,1.3c0,0.1,0.1,0.4,0.3,0.4
	c0.6,0.1,1.1,0.2,1.9,0.4C16.8,19.6,16.2,19,15.6,18.3L15.6,18.3z M21.8,7.1c-0.1,0.1-0.1,0.1-0.2,0.2c0.6,0.9,1.1,1.9,1.8,2.8
	c0.3-0.2,0.5-0.3,0.7-0.4C23.3,8.7,22.6,7.9,21.8,7.1L21.8,7.1z M14.2,7.7c-0.8,0-1.6-0.3-2.5,0.4c0.8,0.3,1.5,0.5,2.2,0.8L14.2,7.7
	L14.2,7.7z M30.9,22.2c0.6-1.4-0.1-2.5-1.1-3.5l-0.2,0.1C30,19.9,30.5,21.1,30.9,22.2z M8.2,32c-1-0.9-2-1.7-3-2.5l-0.1,0.1
	c0.7,0.8,1.3,1.5,2,2.3C7.5,32.2,7.8,32.4,8.2,32L8.2,32z M33.2,7.9c-0.1,0-0.2,0-0.3,0c0,0.3-0.2,0.6-0.1,0.8
	c0.6,0.8,1.3,1.5,1.9,2.2l0.1-0.1C34.3,9.8,33.7,8.8,33.2,7.9z M4.5,26.2c0.5,1.1,0.9,2.1,2.3,2.3C6.1,27.6,5.7,26.6,4.5,26.2z
	 M10.6,31.3c-0.4-1.4-0.5-1.4-1.7-0.9C9.2,31.2,9.8,31.5,10.6,31.3z M22.3,22.5c1,0.7,2.3,0.9,3.5,1.2c-0.4-0.4-0.8-0.9-1.3-1
	C23.8,22.5,23,22.6,22.3,22.5L22.3,22.5z M18.1,27.3c-0.2-0.2-0.3-0.4-0.4-0.5c-0.5,0.8-0.9,1.6-1.4,2.4c0,0,0.2,0.2,0.4,0.4
	C17.2,28.8,17.7,28.1,18.1,27.3z M12.9,31c-0.8-0.8-1.4-1.1-1.9-0.9C11.2,30.9,11.8,31.2,12.9,31z M3.6,22.7c0.5,0,0.9,0.1,1.3,0.1
	C4.4,22,4,21.3,3.4,20.5C3.4,21.4,3.5,22.1,3.6,22.7z M10.5,15.6c0.6,0.7,1.1,1.3,1.6,2c0.1,0,0.1-0.1,0.2-0.1
	c-0.3-0.8-0.7-1.5-1-2.3C11,15.3,10.8,15.4,10.5,15.6L10.5,15.6z M30.6,27.3c-0.1,0-0.2,0.1-0.3,0.1l0.1,1c0.5-0.1,1-0.1,1.4-0.2V28
	C31.5,27.7,31,27.5,30.6,27.3L30.6,27.3z M13.5,10.5h0.2c-0.1-0.3,0-0.8-0.1-0.8C13,9.4,12.4,9.2,11.8,9h-0.1L13.5,10.5L13.5,10.5z
	 M5.6,9.1c-1.6,0.4-2,0.8-1.8,1.7C4.3,10.3,4.9,9.7,5.6,9.1z M28,24.2c0.6-1.2,0.5-2.1-0.3-2.9C27.8,22.2,27.9,23.1,28,24.2z
	 M10.7,18.1c0.4,0.7,0.8,1.4,1.1,2.1C12,19.4,11.7,18.7,10.7,18.1z M22.3,11.9c0,0.1,0.1,0.1,0.1,0.2c0.6,0,1.2-0.1,1.7-0.1
	c-0.2-0.3-0.5-0.6-0.8-1C22.9,11.3,22.6,11.6,22.3,11.9L22.3,11.9z M29.2,13.9c0.9-0.3,1.2-1.4,0.6-2.4
	C29.6,12.4,29.4,13.1,29.2,13.9z M24.2,30.6v-0.2c-0.6,0.1-1.3,0.1-2.1,0.2C23.2,31.3,23.6,31.2,24.2,30.6z M20,14.3
	c-0.5,0.2-0.8,0.4-1.2,0.6v0.2c0.5,0.1,1,0.2,1.6,0.3C20.2,15,20.1,14.7,20,14.3L20,14.3z M11.7,25.8c-0.1,0-0.2,0.1-0.3,0.1
	l0.2,1.7c0.1,0,0.2,0,0.3,0c0.1-0.2,0.3-0.4,0.2-0.5C12,26.7,12.3,26,11.7,25.8L11.7,25.8z M21.9,31.6c-0.6-0.7-1.4-0.9-2.4-0.4
	C20.4,31.4,21.1,31.5,21.9,31.6z M22.7,15.8c-0.2-0.4-0.5-0.8-0.8-1.3C21.4,15.7,21.5,15.7,22.7,15.8z M8.2,32.9
	c0.5,0.3,0.9,0.5,1.4,0.8C9.2,32.3,9.2,32.3,8.2,32.9z M28.4,6.4c0.1,0,0.1-0.1,0.2-0.1c-0.8-0.9-1.5-1.9-2.2-2.8l-0.1,0.1
	C27,4.5,27.7,5.5,28.4,6.4L28.4,6.4z M14.6,22.1c0.1,0,0.1-0.1,0.2-0.1c-0.1-0.7-0.3-1.5-0.9-2l-0.2,0.1
	C13.9,20.8,14.2,21.5,14.6,22.1L14.6,22.1z M20.6,29.1c0.1,1,0.5,1.2,1.5,0.8C21.5,29.6,21.1,29.3,20.6,29.1z M21.2,22.1l0.1-0.2
	c-0.4-0.4-0.7-0.8-1.1-1.3c-0.1,0.3-0.2,0.5-0.3,0.7C20.4,21.6,20.8,21.8,21.2,22.1L21.2,22.1z M10.3,19.7c-0.1,0-0.1,0.1-0.2,0.1
	c0.3,0.8,0.6,1.6,0.9,2.4c0.1,0,0.2-0.1,0.3-0.1C11,21.3,10.6,20.5,10.3,19.7L10.3,19.7z M5,23.9v-0.2c-0.3,0-0.7-0.1-1-0.1
	c-0.1,0-0.1,0.5-0.1,0.8C4.3,24.2,4.7,24,5,23.9L5,23.9z M22.9,12.8V13h1.7v-0.2H22.9L22.9,12.8z M9.9,32.4c0.3,0.4,0.4,0.7,0.7,1.1
	c0.1-0.4,0.2-0.7,0.3-1C10.6,32.5,10.4,32.5,9.9,32.4z M28.9,25.9c0.6,0.2,0.9,0.2,1.1-0.1C29.5,25.5,29.1,25.6,28.9,25.9z
	 M28.3,26.5v0.2c0.8,0.6,0.9,0.6,1.2,0C29.1,26.7,28.7,26.6,28.3,26.5L28.3,26.5z M24.9,16c0-0.1,0.1-0.1,0.1-0.2
	c-0.5-0.2-1.1-0.5-1.6-0.8c0,0.1-0.1,0.2-0.1,0.3C23.9,15.6,24.4,15.8,24.9,16L24.9,16z M12.4,28.2c-0.2,0.1-0.4,0.1-0.6,0.2
	c0.3,0.3,0.5,0.6,0.7,0.9c0.1-0.2,0.1-0.3,0.1-0.3C12.5,28.8,12.5,28.5,12.4,28.2L12.4,28.2z"/>
</svg>
