<?xml version="1.0" encoding="utf-8"?>
<!-- Generator: Adobe Illustrator 27.9.0, SVG Export Plug-In . SVG Version: 6.00 Build 0)  -->
<svg version="1.1" id="Layer_1" xmlns="http://www.w3.org/2000/svg" xmlns:xlink="http://www.w3.org/1999/xlink" x="0px" y="0px"
	 viewBox="0 0 223 236" style="enable-background:new 0 0 223 236;" xml:space="preserve">
<style type="text/css">
	.st0{fill:#9F5380;}
</style>
<g>
	<g>
		<path class="st0" d="M74.1,144.9c2.2-1.3,0.3-2.6,0.6-3.9c-0.1,0-0.3-0.1-0.4-0.1c-0.3,0.5-0.6,1-0.8,1.3
			c-0.6-0.4-1.1-0.7-1.7-1.1c0.6-1,1.3-2.2,2-3.4c-2-0.4-0.9,2.9-2.9,2.2c0.9-1.6,1.7-3.1,2.6-4.8c0.3,0.9,0.5,1.3,0.7,1.9
			c1.1-1.4,0.4-2.8-1.8-3.7c0.2,0.6,0.3,1.1,0.6,2c-1.3-0.8-2.1-1.4-3-2c-0.1,0.1-0.2,0.2-0.3,0.3c0.7,0.8,1.4,1.6,2.1,2.4
			c-0.1,0.1-0.2,0.3-0.4,0.4c-1.2-0.9-2.5-1.8-3.7-2.8c0.2,0.7,0.7,1.2,1.2,1.6c0.4,0.5,0.8,0.9,1.2,1.4c-3.1-1-4.3-3.5-5.2-6.2
			c-0.8-2.4-0.8-2.5,1.3-4.3c0.8-0.7,1.5-1,2.6-0.6c0.4,0.2,1,0.2,1.3,0c1.8-1.1,3.6-2.3,5.3-3.5c0.5-0.3,0.9-0.7,1.4-0.8
			c1.7-0.5,6.9,2,8.1,3.9c0.8,1.3,1.9,2.6,2,4c0.1,1.3,0.7,1.9,1.3,2.7c0.3,0.4,1,0.6,1.4,1c2.4,2.1,4.7,4.3,8,4.8
			c0.2,0,0.5,0.2,0.5,0.4c0.3,1.5,1.5,1.1,2.3,1.2c0.6,0.8,1.4,1.3,2.1,2c1.5,1.2,2.4,2.8,2.5,4.8c0.1,2.4,0.1,4.9,0.4,7.3
			c0.2,1.8,2.3,2.8,4,3.3c2.2,0.6,4.4,1.5,6.2,2.7c1.7,1.2,3,3.1,4.3,4.8c0.9,1.1,1.7,2.4,2.2,3.8c0.6,1.7-0.9,2.3-1.9,3.3
			c-1.7,1.6-3.1,2.2-5.1,1.3c-1.3-0.6-2.5-1.4-3.6-2.3c-2.4-1.9-5-3.6-6.6-6.5c-0.6-1.2-1.7-2.4-3.6-1.7c-0.8,0.3-1.9,0-2.8-0.1
			c-2.5-0.1-4.1,1.7-3.9,4.3c0,0.3-0.3,0.6-0.6,1.4c-0.4-1.5-0.7-2.5-0.9-3.6c-2.1,0.4-4,0.9-6,1.3c-0.8,0.1-1.6,0.2-2.3,0
			c-1.6-0.5-3-1.3-4.6-1.7c-0.9-0.3-2-0.1-3.1-0.1c-0.6,0-1.1-0.1-1.7-0.2c0-0.2,0-0.5,0-0.7c1.2-0.2,2.5-0.4,3.8-0.7
			c-1-0.6-1.9-1.2-2.8-1.8c-0.8-0.6-1.6-1.4-2.4-2.1c-2-1.8-1.7-5.2,0.3-6.2c0.3,0.6,0.6,1.6,1.1,1.7c0.5,0.1,1.6-0.5,1.7-0.9
			c0.3-1.3,0.3-2.7,0.4-4.2c-1,0.3-1.6,0.5-1.9,0.6c-0.6-0.9-1.1-1.6-1.9-2.6C73.6,146.2,73.7,145.1,74.1,144.9z M99.8,160.7
			c1.6-0.2,3.2-0.5,4.7,0.5c0.4,0.2,1.5-0.6,2.1-0.9c0.1-1,0.1-1.8,0.2-2.8c-0.6-0.2-1.3-0.4-2.3-0.8c-0.7,0.6-1.5,1.4-2.2,2.1
			c-0.7,0-1.3,0.1-2,0.1c-0.6,0-1.3,0.2-1.8-0.1c-0.3-0.2-0.3-1-0.5-1.9c-0.2,0.2-0.6,0.4-0.9,0.6c-0.2-0.2-0.3-0.4-0.3-0.4
			c0.5-0.6,0.6-1.1-0.4-1.2c-1.1-0.1-1.4-0.6-0.8-1.6c0.1-0.3-0.1-0.7-0.2-1.1c-0.3,0.1-0.8,0.2-0.9,0.4c-0.6,0.7-1,1.3-0.2,2.3
			c0.9,1.1,1.2,2.6,1.8,4c-1.2-0.3-2.3-2.2-2.5-4.5c-0.6,0.7-1.1,1.2-1.5,1.7c0.5,0.5,0.9,0.9,1.3,1.4c-0.3,0.4-0.5,0.9-0.8,1.3
			c-1.4,1.4-1.3,1.8,0.6,2.6c0.2,0.1,0.4,0.2,0.6,0.3C95.5,161,97.7,161,99.8,160.7z M74.4,131.8c-0.5-0.6-1.3-1.2-1.4-1.9
			c-0.1-1.2-0.5-2-1.8-2.6c0.1,1.4-0.1,2.9,0.5,3.8c0.6,1,2,1.6,3,2.3c0.2-0.3,0.5-0.5,0.7-0.8C75.1,132.4,74.7,132.1,74.4,131.8z
			 M80.2,152c-0.3,0.8-0.5,1.5-0.8,2.2c0.1,0,0.2,0.1,0.3,0.2c0.7-0.6,1.3-1.2,1.7-1.6c-0.4-1-0.7-1.7-1.2-2.8
			c-0.6,0.8-1.2,1.5-1.7,2.2c0.1,0.1,0.2,0.2,0.3,0.3C79.3,152.3,79.7,152.1,80.2,152z M93.1,151.7c0,0.2,0.3,0.6,0.4,0.6
			c0.3,0,0.8-0.1,0.9-0.4c0.6-0.8,1.1-1.6,1.7-2.5C94.9,149.2,93.2,150.4,93.1,151.7z M74.8,137.8c0.1,0.8,0.1,1.6,0.2,2.4
			c0.1,0.1,0.2,0.2,0.4,0.2c0.6-0.8,1.3-1.6,2.1-2.7C76.3,137.8,75.6,137.8,74.8,137.8z M87.3,152.9c0.2-0.3-0.1-0.8-0.1-1.3
			c-0.4,0.2-0.9,0.4-1.1,0.7c-0.4,0.9-0.7,1.9-1.1,2.9c0.2,0.1,0.4,0.2,0.6,0.3C86.3,154.7,86.9,153.8,87.3,152.9z M85.2,145.4
			c-0.2-0.3,0-0.9-0.1-1.5c-0.9-0.2-1.6-0.3-1.2,1.1c0.1,0.5,0.1,1.1,0.2,1.9C85.2,146.8,86.3,147,85.2,145.4z M83.6,137.1
			c1.2,0.8,3,0.2,3.8-1.2c-0.1-0.2-0.2-0.4-0.2-0.5C86,135.9,84.8,136.5,83.6,137.1z M90.1,138.4c-0.2-0.2-0.9,0-1.4,0
			c0.2,0.7,0.3,1.4,0.5,2c0,0.1,0.7-0.1,1.4-0.2C90.4,139.4,90.4,138.7,90.1,138.4z M85,155.6c-1.8,1.2-2.1,2.2-1.1,3.5
			c0.2,0,0.4,0,0.7,0C84.7,158.1,84.9,157.1,85,155.6z M89.2,146.8c-0.1,0.4,0.1,0.9,0.3,1.3c0.1,0.1,0.5,0.1,0.8,0.1
			c0.1-0.4,0.1-0.8,0.2-1.2c0.1-0.5,0.1-0.9,0.2-1.4c-0.1-0.1-0.3-0.2-0.4-0.3C89.8,145.9,89.3,146.3,89.2,146.8z M91,144.8
			c0.7-0.5,2.6,0.4,2-1.8C91.8,143.1,90.7,143.3,91,144.8z M114.3,162.3c-0.9-0.4-1.7-0.8-2.4-1.1c0,0.1-0.1,0.3-0.1,0.4
			c0.4,0.7,0.9,1.3,1.5,2.2C113.7,163.2,114,162.8,114.3,162.3z M79.2,135.3c-0.1-0.1-0.2-0.3-0.3-0.4c-0.6,0.3-1.3,0.5-1.6,1
			c-0.2,0.3,0.3,1,0.4,1.5c0.2,0,0.5,0,0.7,0C78.7,136.7,78.9,136,79.2,135.3z M100.5,153.3c0.5-0.8,1-1.5,1.6-2.5
			C99.9,151.5,99.7,151.8,100.5,153.3z M90.4,153.7c2-1.2,2.1-1.7,0.9-3.2C90.9,151.7,90.7,152.5,90.4,153.7z M89.2,152.6
			c0,1.1,0,2,0,2.9C90.9,154.9,90.9,154.6,89.2,152.6z M97.1,146.9c0.9-0.5,1.6-1,2.7-1.6C97.4,144.6,97.2,144.8,97.1,146.9z"/>
		<path class="st0" d="M74.9,165.1c-1.2,0-1.2,0-3.2,2.3c-2.7-2.8-5.9-1.6-8.8-0.6c-1.7,0.6-2.8,2.5-4.2,3.9
			c-0.7,0.7-1.3,1.4-1.8,2.2c-1.2,2.4-2.7,4.8-3.3,7.3c-0.2,1,1.5,2.5,2.2,3.8c1.1,2,2.6,1.1,4,0.5c1.8-0.9,3.6-1.9,5.5-2.7
			c2.1-0.9,3.1-2.7,4-4.6c0.7-1.6,1.4-3.2,2.1-4.8c0.2-0.6,0.4-1.3,0.5-2c0.1-1.4,0.6-2.6,1.8-3.5C74.1,166.6,74.4,165.9,74.9,165.1
			z"/>
		<path class="st0" d="M92.1,191.1c1.1-2.2,2.3-4.2,3.3-6.4c0.3-0.8,0.2-1.8,0-2.7c-0.4-2.7-1.8-4.8-4.1-6.3
			c-0.8-0.6-2.9,0.2-3.6,1.2c-1.2,2-2.4,4-3.7,6c-0.3,0.4-0.7,0.9-0.7,1.3c0.2,2.4,0.5,4.7,0.8,7.1c0.1,0.8,0.3,1.7,0.8,2.3
			c1.1,1.3,2.5,1.4,3.9,0.3C90.1,193.1,91.1,192,92.1,191.1z"/>
		<path class="st0" d="M59.5,151c-2,2.8-5.2,3.8-8.3,4.9c-0.7,0.3-1.7,0.2-2.5,0c-2.1-0.6-4.3-1.1-6.2-2c-0.9-0.4-1.9-1.6-1.9-2.5
			c0-1,1-2,1.6-2.9c0.3-0.5,0.9-0.7,1.2-1.1c1.1-1.6,2.5-2.2,4.4-2c2,0.1,4,0.2,5.9,0.5c1.6,0.3,3.1,1,4.3,1.4
			c1.2-0.2,2.3-0.4,3.4-0.5c0.1,0.3,0.1,0.5,0.2,0.8c-0.8,0.2-1.6,0.4-2.2,0.5C59.5,149.1,60,150.4,59.5,151z M49.9,147.3
			c-0.3-0.3-0.7-0.8-0.8-0.8c-0.8,0.5-1.5,1.1-2.2,1.6c0.2,0.2,0.3,0.5,0.5,0.7C48.2,148.4,49,147.9,49.9,147.3z"/>
		<path class="st0" d="M55.3,130.9c1.1-0.2,2.2,0.8,3.1-0.7c-0.8-0.3-1.5-0.6-2.4-1c1.7-0.8,2.7-1.8,1.6-3.7c0.6,0,1.1-0.1,1.9-0.1
			c-0.5-0.5-0.8-1.1-1.1-1.1c-1.8,0.3-3-0.8-4.1-1.7c-2.2-1.7-4.8-1.5-7.3-1.7c-0.9-0.1-2.1,1.4-2.9,2.3c-0.6,0.7-1.1,1.6-1.3,2.5
			c-0.2,1.7,1.7,3.7,3.5,3.8c2,0.1,4,0.3,6,0.4c0.4,0,0.8,0,1.2-0.2C54.9,128.9,55.2,129.7,55.3,130.9z"/>
		<path class="st0" d="M85.1,202.3c0.1-1,0.3-2.1,0.4-3.2c-1.4,0.2-1.8,2.1-1.4,6.7c2.5-0.6,2.3-3.1,3.3-4.7
			c0.2-0.4,1.2-1.7-0.4-2.1c-0.4,1.2-0.8,2.3-1.2,3.5C85.5,202.4,85.3,202.3,85.1,202.3z"/>
		<path class="st0" d="M51.5,190.6c-1.7,0.9-2.9,4.4-2,5.6c0.2,0.2,1.2,0.3,1.3,0.1c1.1-1.3,2.2-2.8,3.4-4.4c-2.2-0.8-1.9,2-3.6,2.2
			C50.9,192.9,51.1,191.8,51.5,190.6z"/>
		<path class="st0" d="M35.3,154.2c-2.1-0.5-4.3,2.1-4.4,4.9c1.7-0.9,3.3-1.7,5-2.5c-0.2-0.9-0.2-0.9-2.8-0.3
			C33.9,155.5,34.5,154.9,35.3,154.2z"/>
		<path class="st0" d="M122.4,177.4c-0.1-0.2-0.2-0.4-0.4-0.5c-0.4-0.3-0.8-0.5-1.2-0.8c0.1,0.5,0,0.9,0.2,1.3
			c0.5,1.2,1.1,2.4,1.6,3.5c1-0.7,2.1-4.1,1.5-5.2c-0.2-0.3-0.6-0.4-0.9-0.6c-0.2,0.3-0.4,0.6-0.5,1c-0.1,0.3,0.1,0.7,0.1,1.1
			C122.6,177.4,122.5,177.4,122.4,177.4z"/>
		<path class="st0" d="M36.1,125.5c0.7-0.5,1.2-1,2.1-1.6c-2.5-0.1-3.8,0.8-3.9,2.5c0.9,0.3,1.8,0.6,2.7,0.8
			c0.3,0.1,0.8-0.2,1.1-0.2c-0.2-0.3-0.4-0.7-0.8-1C37,125.9,36.6,125.7,36.1,125.5z"/>
		<path class="st0" d="M88.9,170.3c-0.1-1.4,0.9-3-1.1-3.8C88.1,167.8,87.5,169.4,88.9,170.3z"/>
		<path class="st0" d="M63.8,126.7c-1.2-0.5-2.3-1-3.6-1.6c-0.3,1.6,0.9,1.9,1.6,2.3C62.5,127.7,63.5,128.1,63.8,126.7z"/>
		<path class="st0" d="M63.4,132.9c-1-0.7-1.8-1.2-2.6-1.7c-0.3-0.1-0.7,0.1-1.1,0.1c0.1,0.3,0.2,0.8,0.4,1
			C61,132.8,61.7,134.1,63.4,132.9z"/>
		<path class="st0" d="M64,152.1c-0.8-1.9-2.2-1.2-3.3-1.1c-0.3,0-0.5,0.6-0.9,1.2C61.4,152.2,62.6,152.1,64,152.1z"/>
		<path class="st0" d="M67.7,142.2c0.1-1,0.3-1.9,0.3-2.9c0-0.2-0.4-0.5-0.6-0.5c-0.3,0.1-0.7,0.4-0.7,0.6c0,0.9,0.1,1.8,0.2,2.7
			C67.2,142.2,67.5,142.2,67.7,142.2z"/>
		<path class="st0" d="M93.2,172.2c0,1.3-0.1,2.7-0.1,4.3C94.4,175.6,94.5,174.2,93.2,172.2z"/>
		<path class="st0" d="M67,136.9c-0.6-1-1.2-2-2-3.2c-0.9,1.4,0.2,2.2,0.6,3c0.2,0.3,0.7,0.4,1.1,0.6C66.9,137.1,66.9,137,67,136.9z
			"/>
		<path class="st0" d="M65.1,145.9c0.2,0,0.4,0,0.5-0.1c0.4-0.7,0.8-1.5,1.2-2.2c-0.2-0.1-0.7-0.3-0.7-0.3c-0.5,0.7-1,1.5-1.5,2.2
			C64.7,145.7,64.9,145.8,65.1,145.9z"/>
		<path class="st0" d="M68.4,152.4c-0.4-1.8-1.7-1.4-2.9-1.5C65.5,152.1,66.1,152.4,68.4,152.4z"/>
		<path class="st0" d="M88.2,172c-0.2,1-1.2,2.2,0.5,3.2C88.8,174,89.6,172.9,88.2,172z"/>
		<path class="st0" d="M70.7,156c-0.5,0.8-1,1.5-1.5,2.3c-0.1,0.1,0.2,0.6,0.4,0.6c0.3,0,0.7-0.1,0.8-0.2c0.4-0.8,0.6-1.6,0.9-2.3
			C71.1,156.3,70.9,156.2,70.7,156z"/>
		<path class="st0" d="M94.2,168.1c-1.4,1.4-1.3,2.3,0.5,3.2C94.5,170.2,94.4,169.4,94.2,168.1z"/>
		<path class="st0" d="M64.3,146.2c-0.6,0.3-1.3,0.5-1.9,0.8c0.2,0.3,0.4,0.8,0.5,0.8c0.6-0.1,1.2-0.4,1.9-0.6
			C64.6,146.9,64.4,146.6,64.3,146.2z"/>
	</g>
	<g>
		<path class="st0" d="M166.6,41.1c0,0.4,0.2,0.8,0.4,1.2c-0.4,0-1.1,0.3-1.2,0.1c-0.3-0.3-0.2-0.9-0.3-1.4c0-0.1,0-0.2,0-0.5
			c-0.4,0.3-0.7,0.6-1,0.8c-0.1-0.1-0.2-0.3-0.3-0.4c0.9-0.8,1.9-1.7,2.8-2.5c-0.7-0.1-1.4-0.1-2-0.2c-0.4,0.7-0.7,1.4-1.1,2.1
			c-0.5,1-2.1,1.6-1,3.1c0.2,0.3,0.3,0.8,0.4,1.2c0.1,0.3,0.3,0.7,0.1,0.9c-0.1,0.2-0.6,0.4-0.8,0.3c-0.4-0.1-0.8-0.5-1.2-0.7
			c-0.3-0.1-0.7,0.1-1,0.2c0.1,0.3,0.2,0.7,0.4,0.8c0.7,0.3,1.5,0.5,2.3,0.7c-0.4,0.7-0.7,1.3-1.1,2.1c-0.3-0.8-0.4-1.2-0.6-1.6
			c-0.1-0.2-0.5-0.4-0.7-0.3c-0.2,0-0.4,0.6-0.4,0.6c0.9,0.9-0.1,2.8,1.9,3.1c0.2,0,0.3,0.5,0.4,0.8c-0.8,1.2-3.3-2.5-3,1.2
			c-0.7,0-1.4,0-2.1,0.1c0.3,0.7,0.5,1.2,0.7,1.9c-1,0-1.6-0.1-2.2-0.1c0.1,0.1,0.1,0.3,0.2,0.4c-0.9,0.5-1.8,1-2.8,1.6
			c-0.1-0.7-0.1-1.1-0.1-1.6c-0.2,0-0.3,0-0.5,0c0,0.6,0,1.2,0,1.8c0,0.6,0,1.2,0,1.8c-0.1,0-0.2,0-0.3,0c-0.4-1.4-0.8-2.8-1.1-4.1
			c-0.3,0.1-0.6,0.1-0.8,0.2c0.2,0.9,0.4,1.8,0.5,2.8c0.2,1.5,0,2.1-0.8,2.5c-0.2-2.3-0.4-4.7-0.6-7c-0.2,0-0.5,0-0.7,0
			c0,1.8-0.1,3.7-0.1,5.7c-2.9-1.1-1.6-4-3.1-5.7c-0.5,1.4-0.8,2.9-0.8,4.3c-0.1,1.2,0.2,2.4,0.2,3.6c0,0.3-0.4,0.6-0.9,1.2
			c0-2.9-0.1-5.2-0.1-7.5c-0.2,0-0.4,0-0.5,0c-0.9,3.4,0.1,6.9-0.2,10.4c-0.3,0-0.8,0-1.4-0.1c0-1.6,0-3.2-0.1-4.8
			c-0.5-0.1-1.1-0.3-1.8-0.5c-0.2,0.5-0.4,1-0.6,1.5c-0.2-0.1-0.4-0.1-0.6-0.2c0.3-0.9,0.4-2.1,1-2.8c0.6-0.7,0.9-1,0.2-1.6
			c-0.9-0.9-2.2-1.7-2.4-2.7c-0.4-1.6-1.1-1.5-2.5-0.9c0.2-0.7,0.3-1.3,0.5-1.3c1.7-0.3,1.9-1.9,2.7-2.9c0.4-0.6,1.1-1,1.6-1.5
			c3.6-3.3,9-3.9,12.4-7.7c1.6-1.8,3.9-3,5.6-4.7c2.4-2.3,4.9-4.5,8.4-4.6c1.1,0,2.6,0.3,3.3,1.1c1.1,1.2,1.9,2.8,2.5,4.4
			c0.4,1.1,0.5,2.4,0.3,3.5c-0.3,1.2-0.1,1.9,0.8,2.8c1.2,1.1,2.7,2.5,2.9,4c0.6,3.3,0.7,6.8-0.5,10.2c-0.6,1.5-1.4,3.3-0.4,5.2
			c1,1.9,2.2,3.4,3.7,4.9c1.8,1.7,2.7,4.2,4.5,5.8c2.5,2.2,4.7,4.5,6.6,7.2c0.8,1.1,1.1,2.5,1.7,3.7c0.7,1.6,0,3-0.4,4.5
			c-0.4,1.6-1.7,2.9-3.3,3.1c-2.8,0.4-5-1.1-5.3-4.1c-0.3-2.8-1.6-4.7-4.1-6c-1-0.5-1.7-0.6-2.7,0c-1.5,0.9-3,1.8-4.6,2.6
			c-2.9,1.5-6.6,0.1-8.6-2.4c-1.9-2.3-2.5-5.9-5.8-6.7c1-1.8,1.9-3.5,2.9-5c0.7-1,1.6-1.7,2.5-2.6c0.2,0.2,0.4,0.3,0.6,0.5
			c-0.6,0.9-1.2,1.9-1.9,2.8c0.1,0.1,0.3,0.2,0.4,0.4c0.7-0.6,1.7-1.2,2.1-2c0.6-1.1,0.9-1.3,1.8-0.4c0.2,0.2,0.9,0.2,1.2-0.1
			c0.6-0.6,1.1-1.3,1.7-2c-0.7-0.3-1.4-0.5-2.1-0.8c0.1-0.2,0.1-0.3,0.2-0.5c0.6,0.2,1.1,0.4,1.8,0.6c-0.5-1.1-0.3-2.4-1.9-2.4
			c-0.1,0-0.2-0.8-0.4-1.6c3,1.7,3,1.7,3.9,1c-0.9-0.3-1.6-0.6-2.4-0.9c1.2-2,2.8,1.4,3.9-0.5c-1.7-1.5-4-0.7-6.1-1.4
			c0.3-0.3,0.5-0.6,0.7-0.6c1.1,0,2.1,0.2,3.1,0.1c0.4,0,0.7-0.4,1.1-0.7c-1.1-0.3-1.8-0.5-2.8-0.8c0.8-0.5,1.3-0.8,1.9-1.3
			c-0.7-0.3-1-0.5-1.4-0.7c0-0.1,0-0.2,0.1-0.3c0.6-0.1,1.2-0.2,2-0.3c-0.5-0.3-0.9-0.5-1.2-0.7c0.2-0.3,0.3-0.5,0.5-0.8
			c-0.6-0.1-1.2-0.3-2-0.4c0.7-0.4,1.1-0.6,1.5-0.8c-0.3-0.4-0.6-0.7-1-1.2c1.2,0.1,2,0.1,3.4,0.2c-0.7-0.8-1.1-1.1-1.3-1.5
			c-0.2-0.4-0.3-1-0.2-1.4c0.2-0.8,0.7-1.6,1.1-2.5c0.7-0.1,1.8-0.3,2.8-0.5c0-0.2,0.1-0.4,0.1-0.6c-1.1-0.7-2.1-1.4-3.1-2
			c0.2-0.8,0.4-1.3,0.6-2c-1.1,0.6-1.9,1-2.7,1.5c-0.5-0.7-0.9-1.3-1.7-2.5C166.7,40.2,166.6,40.6,166.6,41.1z M166.9,72.1
			c0.9-0.1,1.8-0.2,2.6-0.4c0,0.2,0.1,0.3,0.1,0.5c-0.7,0.2-1.4,0.4-2.1,0.6c0,0.2,0,0.4,0.1,0.5c1.8-0.2,3.5-0.3,5.2-0.5
			c0.1,0.1,0.1,0.2,0.2,0.3c-0.6,0.4-1.1,0.8-1.6,1.1c0.1,0.2,0.1,0.4,0.2,0.6c1.5-0.5,3-1,4.6-1.5c0-0.6,0-1.2,0-2.2
			c-0.4,0-0.9-0.1-1.6-0.1c0,0.5,0,0.9,0,1.3c-0.1,0.1-0.3,0.1-0.4,0.2c-0.4-0.5-0.7-1.1-1.1-1.8C167.5,70.6,167.1,70.6,166.9,72.1z
			 M154.3,45.2c-0.1-0.1-0.3-0.1-0.4-0.2c-0.4,0.9-0.9,1.7-1,2.6c0,0.5,0.7,1.1,1.1,1.6c0.1-0.1,0.3-0.2,0.4-0.3
			C154.4,47.7,154.3,46.5,154.3,45.2z M170.8,75.8c-3.3,0.9-3.3,0.9-3.6,1.7C170.8,76.3,170.8,76.3,170.8,75.8z M170.4,65.5
			c-1,0.8-1.8,1.4-2.9,2.2c0.9,0.3,1.6,0.5,2.4,0.8C170,67.5,170.2,66.8,170.4,65.5z M164,76.9c-0.1,0,0.1,0.7,0.1,1
			c0.9-0.3,1.7-0.5,2.6-0.8c-0.1-0.3-0.2-0.7-0.3-1C165.6,76.3,164.7,76.6,164,76.9z M152.8,52.9c0,0,0.4-0.5,0.4-0.7
			c0-0.2-0.3-0.5-0.5-0.6c-0.6-0.2-1.3-0.2-2.1-0.3C150.6,53.2,152,52.5,152.8,52.9z M162.9,71.9c-0.1-0.2-0.1-0.4-0.2-0.6
			c-0.9,0.3-1.8,0.5-2.8,0.8c0.1,0.2,0.1,0.5,0.2,0.7C161.4,73.4,162.2,72.9,162.9,71.9z M165.9,71.6c-0.2-0.2-0.4-0.5-0.6-0.7
			c-0.6,0.5-1.3,1-1.9,1.6c0.2,0.2,0.4,0.4,0.7,0.7C164.6,72.6,165.2,72.1,165.9,71.6z M171.5,80.2c0-0.8,0-1.6-0.1-2.6
			c-0.7,0.3-1.3,0.6-1.9,0.9C170.3,79.2,170.8,79.6,171.5,80.2z M140,51.8c-0.1-0.1-0.1-0.3-0.1-0.4c-0.6,0.2-1.2,0.3-1.7,0.7
			c-0.2,0.1,0.2,0.9,0.3,1.4c0.2,0,0.4,0,0.5,0C139.3,52.8,139.7,52.3,140,51.8z M170.6,36.5c-1.1,0.7-1.2,1.3-0.3,2.9
			c0.2,0,0.3,0,0.5,0C170.8,38.5,170.7,37.5,170.6,36.5z"/>
		<path class="st0" d="M141.6,74.7c-0.2-0.8-0.4-1.3-0.6-1.9c0.5-0.2,1-0.3,1.9-0.5c-0.9-0.6-1.4-0.9-2.2-1.4
			c0.3-0.3,0.7-0.8,1.1-1.3c-0.1,0.1-0.3,0.1-0.4,0.2c-0.3-1-0.5-2.1-0.8-3.2c0.8-0.1,1.3-0.2,1.8-0.3c0.3,2.4,0.6,4.7,0.9,6.9
			c0.4,0,0.7-0.1,1-0.1c-0.1,0.6-0.2,1-0.2,1.5c0.2,0.1,0.3,0.2,0.5,0.3c2.7-3.4,5.4-6.8,8.1-10.2c0.6,2.4,0.6,2.4-0.8,3.6
			c0.7-0.2,1.4-0.4,1.9-0.5c0.3,0.8,0.4,1.7,0.9,2.2c0.5,0.5,1.5,0.6,2.5,1c-0.3,0.3-0.6,0.8-0.9,0.8c-1.3,0.3-2.7,0.4-4,0.7
			c-0.4,0.1-0.8,0.4-1.1,0.7c-1.1,1.5-1.5,3.3-1.9,5.1c-0.1,0.6-0.6,1.2-1.1,1.7c-2.6,2.1-5.1,4.2-7.8,6.3c-0.3,0.2-0.7,0.2-1.1,0.3
			c-0.8,0.3-1.6,0.6-2.4,0.9c-0.4,0.2-0.8,0.6-1.2,0.9c-0.1-0.1-0.2-0.2-0.3-0.3c0.4-0.6,0.9-1.2,1.4-1.8
			C134.7,80.7,136.2,76.9,141.6,74.7z M141.8,80.8c-0.7-0.4-1.1-0.6-1.4-0.7c0.3-0.8,0.6-1.6,0.9-2.3c-0.2-0.1-0.4-0.2-0.5-0.3
			c-1.4,1.4-3.7,2.1-3.3,4.7C139,80.9,139,80.9,141.8,80.8z M142.7,76.7c-1.4-1.4-3.8-0.6-4.7,1.7C139.6,77.8,141.3,77.2,142.7,76.7
			z"/>
		<path class="st0" d="M119,77.8c-0.5,0.3-1.1,0.7-1.8,1.1c-0.1-1.7-0.8-3-2.8-2.8c0.8-1.1,1.5-1.8,2.1-2.6
			c-0.2-0.1-0.3-0.3-0.5-0.4c-0.6,0.4-1.1,0.8-1.6,1.3c-1.1,0.9-2.1,1.7-3.6,2.2c-1.6,0.5-2.9,2.1-4.1,3.4c-1.1,1.2-2.1,2.5-2.8,3.9
			c-1.1,2.1-2.1,4.2-2.7,6.4c-0.2,0.5,0.9,1.8,1.7,2.2c0.9,0.4,2.4,0.5,3.1,0c1.5-1.1,2.9-2.5,4-4c2.4-3.7,4.8-7.3,8.9-9.4
			c0.3-0.1,0.4-0.6,0.6-0.9C119.2,78.1,119.1,78,119,77.8z"/>
		<path class="st0" d="M123.2,86.3c-0.6,0.7-0.9,1.1-1.2,1.3c-0.3,0.2-1,0.3-1.2,0.1c-0.8-0.8-1.5-1.7-2.2-2.6
			c-2.6,0.4-4.3,2-5.8,4.1c-2,2.7-4.3,5.1-6.4,7.6c-1.4,1.6-1.5,3.6-0.1,5c0.5,0.4,1.4,0.6,2.2,0.5c3-0.3,5.2-1.8,6.8-4.4
			c0.9-1.4,2.1-2.7,3.2-3.8c1.2-1.2,1.8-2.6,2-4.3c0-0.3,0.5-0.8,0.9-0.9C122.6,88.6,122.8,88.4,123.2,86.3z"/>
		<path class="st0" d="M125.4,92.6c0.9-1.3,1.6-2.2,2.3-3.2c-0.1-0.1-0.2-0.2-0.4-0.3c-0.8,0.8-2.1,1.5-2.4,2.6
			c-0.8,2.6-3.2,3.6-4.9,5.5c-1.6,1.8-3.4,3.5-5.2,5.3c-1.2,1.2-1.3,2.9-0.2,3.8c0.8,0.7,2.6,1,3.7,0.8c3.7-1,6.2-3.8,8.4-6.8
			c1.2-1.5,1.7-3.5,2.5-5.4c0.3-0.8-1.2-2.2-2.6-2.4C126.4,92.4,126.1,92.5,125.4,92.6z"/>
		<path class="st0" d="M125.4,63.4c0.2-0.1,0.7,1.1,1.4,2.1c0.1-1,0.4-1.8,0.3-2c-0.8-0.5-1.7-0.9-2.6-1.2c-0.3-0.1-0.8,0.5-1.2,0.5
			c-0.4,0-1.1-0.2-1.2-0.5c-1.5-2.7-6.4-3.4-8.4-1.1c-1.2,1.4-2.5,2.8-3.7,4.2c-1.5,1.7-1.5,3.5,0,5.2c1.9,0.3,3.4-0.3,5-1.7
			c1.3-1.2,3.7-1.5,4.6-2.8C121.1,64.2,123.2,64.1,125.4,63.4z"/>
		<path class="st0" d="M97.4,110.3c2.3-0.2,6.9-4.5,6.9-6.5c-1.7,1.6-3.2,3-4.7,4.5c-0.2-0.1-0.3-0.2-0.5-0.3
			c1.2-1.8,2.4-3.6,3.6-5.5c-0.2-0.1-0.4-0.3-0.7-0.4C99.3,104.1,98.6,107.4,97.4,110.3z"/>
		<path class="st0" d="M109.9,107.6c-1.1,1-3.3,1-4.4,3.5c2.5-0.5,5,0,6.8-1.9C111.5,108.6,110.9,108.2,109.9,107.6z"/>
		<path class="st0" d="M101.6,75.9c1.2-0.7,2.5-1.4,3.7-2.2c-0.1-0.2-0.1-0.3-0.2-0.5c-0.4-0.1-0.8-0.2-1.3-0.4
			c0.3-0.5,0.6-0.8,0.8-1.2c-0.2-0.2-0.3-0.3-0.3-0.3c-1.7,0.9-2.4,2.4-3.2,4C101.3,75.6,101.4,75.7,101.6,75.9z"/>
		<path class="st0" d="M96.5,97.7c1.2-1.1,2.4-2.2,3.5-3.3c-0.7-0.5-1.1-0.8-1.5-0.9c-0.3-0.1-1,0-1.1,0.3c-0.5,1.2-0.9,2.5-1.4,3.7
			C96.2,97.5,96.4,97.6,96.5,97.7z"/>
		<path class="st0" d="M127.5,82.5c1.4-1.3,2.7-2.5,4.3-0.8c0.1,0.1,0.7,0,0.9-0.1c0.2-0.2,0.3-0.7,0.2-0.9
			c-0.1-0.3-0.5-0.6-0.8-0.8C130.1,78.7,128,79.9,127.5,82.5z"/>
		<path class="st0" d="M138.2,61.5c0.5,2,0.8,3.6,1.3,5.7C140.6,65.3,140,63.1,138.2,61.5z"/>
		<path class="st0" d="M127.9,87.6c1.4-0.2,3.7-2.8,3.5-3.6c0-0.2-0.3-0.5-0.4-0.5c-0.2,0-0.6,0.2-0.7,0.3
			C129.6,85.1,128.8,86.2,127.9,87.6z"/>
		<path class="st0" d="M126.9,55.7c-1.3,0.7-2.2,1.2-3.6,1.9C125.4,58.1,126.3,57.6,126.9,55.7z"/>
		<path class="st0" d="M125.7,65.5c-0.6,0.8-1.2,1.5-1.8,2.3c0.2,0.2,0.4,0.3,0.6,0.5c0.6-0.7,1.3-1.5,1.9-2.2
			C126.2,65.9,125.9,65.7,125.7,65.5z"/>
		<path class="st0" d="M130.1,53.8c-0.8,0.7-1.6,1.3-2.4,2c0.2,0.2,0.3,0.4,0.5,0.6c0.9-0.6,1.7-1.2,2.5-1.8
			C130.5,54.3,130.3,54,130.1,53.8z"/>
		<path class="st0" d="M119.8,70.6c-0.7,0.5-1.4,1-2.2,1.5C118.7,73.2,119.4,72.8,119.8,70.6z"/>
		<path class="st0" d="M123.2,79.7c-0.9,0.8-1.8,1.5-2.7,2.2C121.6,82.6,122.7,81.7,123.2,79.7z"/>
		<path class="st0" d="M131.6,53.9c0.9,0.7,1,0.7,2.8-0.8C133.4,52.3,133.4,52.3,131.6,53.9z"/>
		<path class="st0" d="M134.1,88.1c-0.8,1-1.4,1.8-2,2.6C133.4,90.9,134.3,89.8,134.1,88.1z"/>
	</g>
</g>
</svg>
