<?xml version="1.0" encoding="UTF-8"?>
<svg id="Layer_1" data-name="Layer 1" xmlns="http://www.w3.org/2000/svg" viewBox="0 0 741.03 172.82">
  <defs>
    <style>
      .cls-1 {
        fill: #fff;
        stroke-width: 0px;
      }
    </style>
  </defs>
  <path class="cls-1" d="m538.13,169.24c-11,.13-18.18-4.88-23.81-12.36-4.82-6.42-9.2-13.17-13.83-19.74-4-5.69-6.89-11.86-8.45-18.65-1.56-6.8-3.16-13.59-4.78-20.38-1.2-5.02-3.19-9.48-6.79-13.5-4.81-5.36-7.4-12.07-8.65-19.2-.42-2.4-.69-4.83-.86-7.26-.24-3.48,1.31-5.98,4.37-7.72,2.52-1.43,4.83-3.25,7.36-4.65,2.42-1.35,4.9-2.83,7.54-3.48,7.08-1.73,12.81.82,17.12,7.21,2.77,4.1,4.48,8.67,5.62,13.47,1.93,8.18,2.58,16.5,3.05,24.88.51,9.02.35,18.17,3.32,26.89,2.03,5.96,4.18,11.92,8.24,16.86,3.76,4.59,7.76,8.99,11.72,13.41.92,1.03,2.08,1.87,3.22,2.67,2.89,2.06,5.83,2.12,8.74.02,2.17-1.57,4.36-3.12,6.48-4.75,3.33-2.56,5.51-5.96,6.9-9.89,2.79-7.85,4.13-15.98,4.44-24.27.26-6.96.83-13.95-.19-20.88-1.54-10.45-3.27-20.88-5.01-31.3-.28-1.7-.93-3.37-1.58-4.98-2.65-6.62-3.78-13.42-2.26-20.47.59-2.71.36-5.35-.34-7.91-1.18-4.36.28-7.72,3.92-9.88,3.88-2.3,8.02-4.21,12.16-6.02,4.26-1.87,8.65-3.42,12.99-5.11.54-.21,1.08-.45,1.63-.63,5.54-1.81,7.93-.06,8.14,5.71.2,5.44-1.25,10.6-2.36,15.83-1.32,6.25-3.16,12.47-3.65,18.78-.63,8.07-.99,16.2,1.3,24.26,1.8,6.34,2.84,12.93,3.86,19.46.83,5.35-.58,10.37-3.21,15.11-1.98,3.56-3.73,7.25-5.61,10.86-2.79,5.37-3.73,11.21-4.5,17.11-.3,2.29-.74,4.59-1.39,6.8-1,3.44-2.93,6.32-5.94,8.39-.77.53-1.51,1.1-2.27,1.62-5.4,3.7-10.37,7.82-14.48,13.02-5.88,7.45-13.87,10.67-22.15,10.66Z"/>
  <path class="cls-1" d="m223.18,131.8c.51-7.36,2.26-14.44,5.04-21.27.13-.32.25-.7.5-.91.67-.56,1.41-1.47,2.13-1.47,1.22,0,2.06.96,2.23,2.29.22,1.73.44,3.45.64,5.18.05.46,0,.93.03,1.4.53,7.89,4.38,12.24,12.19,13.26,4.83.63,9.73.8,14.6,1.17,3.13.24,6.26.47,9.39.7,10.84.8,19.19-3.92,25.82-12.01,6.18-7.53,8.66-16.2,7.59-26-.87-8.01-3.43-15.39-6.98-22.52-4-8.03-7.73-16.15-9.68-24.99-2.25-10.2-.78-19.44,6.7-27.2,2.58-2.68,5.23-5.3,7.94-7.84,1.44-1.35,3.14-2.41,4.61-3.73,6.62-5.92,14.49-6.87,22.88-5.96,6.77.74,13.14,2.99,19.56,5.05,1.21.39,2.76.65,2.78,2.2.02,1.67-1.28,2.66-2.77,3.23-3.47,1.31-6.91,2.72-10.45,3.82-2.93.91-5.69,1.99-8.07,3.98-1.93,1.62-4.03,2.19-6.48,1.12-3.35-1.47-6.41-.52-9.18,1.49-5.94,4.31-8.07,9.4-5.77,17.05.73,2.44,1.83,4.79,2.97,7.07,5.48,10.97,11.6,21.47,20.52,30.17,3.55,3.46,6.59,7.51,9.55,11.51,3.66,4.93,3.83,10.73,2.6,16.4-1.27,5.84-1.78,11.66-1.99,17.62-.38,10.73-4.97,19.01-15.47,23.12-3.79,1.48-7.65,2.8-11.48,4.18-6.88,2.47-12.96,6.29-18.5,11.02-1.77,1.51-3.56,3-5.46,4.35-4.11,2.92-8.49,4.43-13.75,3.63-5.72-.87-11.55-.98-17.32-1.54-1.59-.16-3.26-.52-4.69-1.21-8.38-4.07-16.83-8.06-22.66-15.83-1.04-1.38-2.44-2.5-3.66-3.75-4.02-4.1-6.24-8.92-5.91-14.78Z"/>
  <path class="cls-1" d="m622.18,54.9c.43,2.38.93,4.74,1.28,7.13.52,3.56,1.09,7.12,1.35,10.69.18,2.41,1.15,4.3,2.91,5.73,3.15,2.57,4.44,5.92,5.4,9.8,1.71,6.87,4.25,13.53,6.18,20.35,1.83,6.48,3.49,13.02,4.91,19.61.99,4.61.2,8.98-3.01,12.76-7,8.24-13.92,16.56-20.89,24.84-.45.53-.96,1.02-1.49,1.48-2.08,1.77-3.96,1.33-4.73-1.29-.42-1.41-.4-2.99-.36-4.49.26-9.77.84-19.53.83-29.3-.01-13.76-1.36-27.38-5.68-40.57-2.05-6.25-2.64-12.64-2.24-19.23.7-11.55-.07-23.01-2.91-34.28-.62-2.47-1.29-4.93-1.92-7.4-.26-1.01-.66-2.04-.66-3.05,0-.82.29-2.06.85-2.36.76-.41,2.26-.52,2.82-.04,4.48,3.82,9.83,6.81,12.7,12.25,1.68,3.19,3.98,5.27,7.57,6.12,4.61,1.09,7.72,4.62,11.24,7.45,4.16,3.34,8.33,6.67,12.84,10.28.41-1.18.79-1.86.88-2.58.5-4.23,1.92-8.1,4.03-11.79,1.5-2.62,3.07-5.28,4.02-8.11,1.89-5.69,4.79-10.84,7.78-15.97,3.17-5.44,5.43-11.08,4.73-17.54-.04-.35-.02-.7,0-1.05.25-3.53,2.55-4.75,5.46-2.63,1.95,1.42,3.68,3.22,5.23,5.09,4.21,5.1,7.05,10.95,8.72,17.34,1.82,6.94,4.69,13.42,8.7,19.33,3.1,4.57,4.51,9.58,5.37,14.93,1.14,7.1,2.58,14.17,4.07,21.21.88,4.15,2.9,7.83,5.53,11.17,8.37,10.63,15.96,21.79,22.95,33.35,1.38,2.28,2.66,4.65,3.73,7.09,1.91,4.35-.64,8.96-4.72,9.98-1.13.28-2.22.7-3.33,1.06-3.16,1.03-5.89,2.74-8.23,5.11-1.55,1.57-3.12,3.15-4.84,4.54-2.63,2.14-3.84,1.99-5.48-1.03-1.6-2.94-2.89-6.08-4.12-9.2-.63-1.61-.74-3.41-1.27-5.07-1.21-3.75-2.53-7.46-3.82-11.18-.11-.33-.31-.63-.48-.93-4.24-7.72-7.51-15.74-7.62-24.74-3.24-14.75-5.8-29.69-12.58-43.44-1.58-3.21-2.56-6.73-3.75-10.13-1.34-3.84-4.38-4.87-7.48-2.19-1.24,1.07-2.41,2.72-2.72,4.28-1.05,5.26-2.26,10.44-4.13,15.48-.63,1.7-.52,3.67-.87,5.49-.75,3.79-1.93,7.45-4.16,10.66-2.15,3.1-4.63,3.51-7.27.84-2.71-2.75-5.92-4.49-9.43-5.8-6.69-2.49-11.92-6.62-15.52-12.88-1.54-2.67-3.61-5.04-5.43-7.55-.31.13-.63.25-.94.38Z"/>
  <path class="cls-1" d="m422.72,97.42c-.58-2.54-1.49-6.96-2.61-11.33-1.95-7.66-4.21-15.24-5.96-22.94-.87-3.82-.97-7.83-1.27-11.76-.27-3.47-.37-6.95-.46-10.42-.03-1.15.16-2.31.28-3.46.28-2.65.65-5.29.84-7.95.23-3.15,1.42-5.94,3.37-8.28,3.7-4.43,7.92-8.22,13.85-9.49.87-.19,1.74-.67,2.47-1.2,5.9-4.27,12.63-6.95,19.16-10,3.34-1.56,5.61.04,5.95,3.75.49,5.34-1.35,9.6-5.75,12.66-3.06,2.12-6.23,4.09-9.35,6.12-4.39,2.85-7.77,6.52-8.2,11.92-.23,2.95.16,6.02.74,8.95,1.2,6,4.13,11.33,7.08,16.63,2.15,3.86,4.21,7.78,6.19,11.73,3.8,7.57,4.45,15.53,2.77,23.77-1.16,5.69-2.24,11.4-3.35,17.1-1.15,5.9-.58,11.82-.27,17.75.23,4.41.59,8.83.45,13.23-.19,6.11-3.39,10.6-8.78,13.29-4.05,2.02-8.25,3.8-12.52,5.29-8.46,2.94-17.04,5.53-25.53,8.38-9.68,3.25-18.51,1.67-26.79-4.16-6.89-4.85-13.18-10.35-18.7-16.71-2.41-2.77-3.99-6.01-4.95-9.53-1.14-4.15-2.28-8.29-3.33-12.46-.88-3.49.35-4.66,3.77-3.7.78.22,1.62.43,2.27.87,3.24,2.2,6.63,4.24,9.61,6.76,6.69,5.68,14.15,7.28,22.48,4.8,13.98-4.16,24.79-12.54,32.63-24.8,2.5-3.91,3.78-8.2,3.91-14.82Z"/>
  <path class="cls-1" d="m218.88,108.27c-.29-3.9-1.17-7.81-2.23-11.6-2.37-8.53-4.29-17.12-5.36-25.92-.85-6.98-2.84-13.6-6.24-19.85-2.94-5.4-5.69-10.96-7.94-16.68-2.67-6.76-6.91-12.04-12.7-16.26-6.03-4.39-12.09-8.73-17.96-13.31-4-3.12-8.23-4.06-13.09-2.73-4.18,1.14-8.44,1.59-12.78,1.5-8.16-.18-15.27,2.56-21.43,7.92-5.7,4.97-11.42,9.93-17.24,14.76-2.65,2.2-4.75,4.74-6.34,7.78-2.64,5.05-5.38,10.05-8.07,15.08-1.39,2.59-2.4,5.25-2.16,8.29.1,1.25-.18,2.53-.35,3.8-.67,5.06-1.35,10.12-2.07,15.49.54,3.81.97,7.86,1.72,11.84,1.27,6.73,3.07,13.38,4.07,20.15,1.44,9.71,4.79,18.65,9.43,27.21,1.82,3.37,4.15,6.21,7.57,7.98,1.74.9,3.61,1.62,5.5,2.16,4.81,1.36,8.63,3.87,11.11,8.35,1.12,2.02,2.71,3.78,3.96,5.74,4.26,6.66,10.54,9.93,18.17,11.02.57.08,1.13.31,1.7.39,14.65,2.21,27.64-.56,38.29-11.8,5.19-5.47,11.15-10.21,16.76-15.29,2.15-1.95,4.5-3.73,6.38-5.91,5.28-6.12,8.33-13.41,10.24-21.17.71-2.9,1.28-6,1.06-8.94Zm-20.29,4.25c-1.24,5.46-2.99,10.66-6.59,15.22-1.73,2.19-2.48,5.19-3.48,7.89-.89,2.39-1.4,4.92-2.3,7.31-.95,2.5-2.62,4.16-5.64,3.58-.92-.13-1.85-.21-2.75-.39-4.68-.93-9.37-1.77-14.01-2.87-2.35-.56-4.74-1.31-6.85-2.46-6.52-3.54-12.09-8.26-16.53-14.26-1.66-2.25-3.17-4.61-4.95-6.76-1.77-2.14-3.66-4.22-5.72-6.07-4.93-4.43-8.48-9.64-9.13-16.35-.7-7.18-3.42-13.48-7.72-19.16-5.77-7.63-7.79-16.2-6.59-25.61.04-.34.11-.73.02-1.04-1.25-4.09.91-7.19,3.02-10.27,2.64-3.86,5.61-7.42,9.51-10.12,3.28-2.27,6.69-2.6,10.22-.82,4.16,2.09,8.54,3.05,13.17,2.74,4.95-.32,8.84,1.52,11.76,5.5.69.94,1.51,1.78,2.15,2.75,4.96,7.53,11.25,13.91,17.39,20.46,5.24,5.59,10.04,11.6,14.92,17.52,1.24,1.5,2.2,3.31,2.94,5.12,2.48,6.02,4.79,12.1,7.2,18.15,1.32,3.33.73,6.66-.02,9.94Z"/>
  <path class="cls-1" d="m78.61,36.81c-2.7-2.71-5.63-5.26-8.77-7.43-5.65-3.9-11.52-7.48-17.32-11.17-4.74-3.02-9.11-6.43-12.75-10.78-2.68-3.2-6.18-4.74-10.44-4.76-3.6-.01-7.2-.33-10.79-.56-2.2-.15-4.4-.53-6.6-.58-4.25-.11-6.08,1.52-6.04,5.78.04,3.94.44,7.88.85,11.8.72,6.81,1.61,13.59,2.34,20.4.71,6.69,1.2,13.41,1.98,20.09.74,6.34,1.73,12.63,1.84,19.07.19,12.02-1.69,23.87-2.53,35.8-.23,3.28-1.65,6.49-2.58,9.71-.74,2.56-1.75,5.06-2.31,7.66-1.62,7.5-3.02,15.04-4.6,22.54-.84,4.03-1.15,8.05-.65,12.14.41,3.39,2.83,4.88,5.95,3.5,1.25-.56,2.38-1.46,3.45-2.35,3.19-2.67,6.74-4.46,10.87-5.27,2.14-.42,4.41-1.08,6.17-2.29,4.43-3.03,9.36-4.62,14.43-6.01,1.23-.34,2.44-.79,3.62-1.28,2.83-1.16,3.05-1.59,3.1-4.71.05-3.53-1.25-6.62-3.14-9.46-2.06-3.1-4.34-6.05-6.47-9.1-3.7-5.3-6.2-11-5.04-17.64,1.05-6.03-.43-11.51-2.96-16.86-.54-1.15-1.09-2.3-1.72-3.64,3.52-1.62,6.69-3,9.78-4.53,4.69-2.33,9.27-4.88,14-7.12,4.72-2.24,9.75-3.89,14.33-6.37,7.82-4.23,13.86-10.28,16.28-19.14,1.78-6.51.59-12.55-4.28-17.42Zm-22.88,13.25c-2.83,2.55-5.4,5.41-7.98,8.24-1.85,2.03-3.92,3.6-6.63,4.25-5.01,1.21-9.14,3.86-12.67,7.58-.91.96-2.16,1.6-3.81,2.78-.14-1.76-.47-2.88-.26-3.91.9-4.54,1.69-9.14,3.03-13.56,1.9-6.26,2.81-12.64,3.45-19.12.35-3.55,1.3-7.04,2.05-10.55.13-.63.59-1.19.98-1.94,2.36,1.36,4.56,2.59,6.73,3.88,2.09,1.24,4.15,2.52,6.21,3.8,1.67,1.03,3.28,2.18,5.01,3.1,2.79,1.49,4.8,3.6,5.85,6.61,1.16,3.36.91,6.24-1.96,8.83Z"/>
</svg>