<?xml version="1.0" encoding="utf-8"?>
<!-- Generator: Adobe Illustrator 27.9.0, SVG Export Plug-In . SVG Version: 6.00 Build 0)  -->
<svg version="1.1" id="Layer_1" xmlns="http://www.w3.org/2000/svg" xmlns:xlink="http://www.w3.org/1999/xlink" x="0px" y="0px"
	 viewBox="0 0 43.8 43.8" style="enable-background:new 0 0 43.8 43.8;" xml:space="preserve">
<style type="text/css">
	.st0{fill:#9F5480;stroke:#9F5480;stroke-miterlimit:10;}
</style>
<path class="st0" d="M9.3,36.9c-1.2,1.1-1.1,2,0.3,2.8c0.5,0.3,1,0.5,1.5,0.9c0.8,0.4,0.9,0.9,0,1.4c-1.1,0.8-2.5,0.7-3.7-0.3
	c-2-1.7-3.4-3.8-4.1-6.3c-0.5-2.1-0.5-4,0.2-6c0.1-0.2,0-0.5-0.1-0.8c-1.7-3.3-2-6.8-1.3-10.4c0-0.2,0.1-0.5,0-0.8
	c-0.1-1.7,0.4-3.3,1-4.8c0.1-0.2,0.2-0.5,0.4-0.8c1.2-1,1.3-2.4,1.6-3.8c0.4-1.7,1.1-3.4,2.3-4.7c2.3-2.6,5.3-3.3,8.7-2
	c1.1,0.4,2.2,1,3.2,1.5C19.7,3,20,3,20.4,2.7c1.2-0.9,2.5-1.4,4-1.4c4.7,0.1,8.5,3.4,9.2,8c0,0.2,0.2,0.7,0.4,0.7
	c2.7,1,4.5,2.9,5.8,5.5c0,0.1,0.1,0.1,0.1,0.2c0.1,0,0.1-0.1,0.2-0.1c-0.2-0.5-0.3-1.2-0.7-1.6c-0.9-1.2-2-2.4-2.9-3.5
	c-0.8-0.8-0.9-1-0.3-1.9c0-0.1,0.1-0.2,0.1-0.2c0.1-0.2,0.3-0.5,0.4-0.8c0.3,0.2,0.7,0.3,0.9,0.7c1.3,1.6,2.2,3.5,2.7,5.5
	c0.9,2.9,1.6,5.9,1.5,8.9c-0.2,3.8-1.2,6.2-4.5,8.5c0.3,0.5,0.8,1.1,1,1.6c0.9,2.4,0.9,4.8-0.2,7.2c-1,2.1-2.8,2.7-4.9,2.8
	c-1.9-0.1-3.7-0.7-5.7-1.2c-0.3-0.1-0.9-0.1-1.2,0c-3.5,1-6.8,1.1-10.2-0.5c-0.2-0.1-0.4-0.2-0.5-0.3C13.9,39.3,11.8,37.9,9.3,36.9
	L9.3,36.9z M28.3,41.1c2.1,0.7,4.1,1.1,6.2,0.9c1.5-0.2,2.8-1,3.4-2.6c0.9-2.3,0.9-4.6-0.2-6.8c-0.5-1.1-0.7-1.1-1.9-0.7
	c-0.2,0.1-0.5,0.2-0.8,0.2C35.7,35.7,32.8,38.8,28.3,41.1z M34.2,32.1c-0.7,0.4-1.1,0.8-1.5,1.1c-0.9,0.5-1.6,1.1-2.5,1.5
	c-0.3,0.2-0.8,0.3-1.1,0.5c-2.4,1.5-5.1,2-8,1.6c-0.2,0-0.4,0-0.8,0c2.1,1.5,3.9,2.9,6.2,3.7c0.2,0.1,0.5,0.2,0.8,0.1
	c2.7-1.1,5-2.7,6.4-5.2C34.3,34.5,34.7,33.5,34.2,32.1z M18.8,4.3c-1.7-0.5-3.5-1.1-5.3-1.1c-0.9,0-1.5,0.3-1.9,1.1
	c-0.8,1.4-0.8,2.8-0.7,4.4c0.7,0.1,1.3,0.1,1.9,0.2c0.1,0,0.4,0,0.4-0.1c0.8-1.1,1.9-1,3.1-0.9c0.2,0,0.7-0.1,0.7-0.3
	C17.6,6.6,18.2,5.5,18.8,4.3L18.8,4.3z M8.6,36.3c-1.4-2.2-2.9-4.4-4.4-6.5C4.1,30,4,30.1,4,30.2c-0.8,2.6-0.3,5,0.9,7.4
	c0.8,1.4,1.9,2.7,3.3,3.5c1,0.7,1.9,0.7,2.5,0.1C7.4,39,7.2,38.4,8.6,36.3L8.6,36.3z M8.7,26c0.1-2.7-0.2-5.5,1.7-7.7
	C10,17.8,9.6,17.3,9,17c-0.9-0.5-1.7-0.3-2.6,0.2c-0.8,0.5-1.4,1.3-1.3,2.3c0.1,1,0.3,1.9,0.7,2.7C6.3,23.8,7.3,25,8.7,26L8.7,26z
	 M10.1,8.7c0-0.9,0-1.7,0-2.7c0.1-2.3,1.1-3.3,3.3-3.5c0.5,0,1.2,0,1.7,0.1c1.1,0.2,2.2,0.5,3.5,0.8C11-1.2,6.4,4,5.7,9.8
	C7.1,9.5,8.6,9.1,10.1,8.7L10.1,8.7z M18.3,36.5c-0.9,1.2-2,2.2-3.6,2.4c2.3,2.7,7.7,3.3,10.7,2.3C23.1,39.7,20.8,38.2,18.3,36.5z
	 M32.7,10c0-0.1,0.1-0.1,0.2-0.2c-0.7-1.1-1.3-2.1-2-3.2c-1-1.4-2.2-2.6-3.6-3.5c-1-0.5-1.9-0.3-2.4,0.5c-0.2,0.3-0.3,0.8-0.3,1.2
	c-0.1,0.4,0.1,0.8,0.5,1c1,0.5,2.1,1.2,2.9,1.9c1,0.7,1.6,1.6,2.9,1.7C31.5,9.6,32.1,9.8,32.7,10L32.7,10z M26.2,11.6
	c-1.1-1.4-2.1-2.9-2.4-4.7c0-0.1-0.1-0.2-0.1-0.2c-1-1-2.2-1.6-3.5-2c-0.1,0-0.3,0-0.4,0.1c-0.9,1-1.5,2-2,3.3
	c3.2,0.4,5.6,1.7,7.4,4.4C25.5,12.2,25.8,12,26.2,11.6L26.2,11.6z M35.3,27.7c0,0.1,0,0.2,0.1,0.3c1,0,2,0.1,3.1,0s1.9-0.5,2.2-1.7
	c0.2-0.8,0.4-1.4,0.5-2.2c0.2-1.9-0.1-3.6-0.7-5.3c-1,0.7-1.3,1.5-1.1,2.7c0.1,0.5,0,1,0,1.5c-0.3,2.2-1.3,3.7-3.6,4.4
	C35.7,27.4,35.5,27.6,35.3,27.7L35.3,27.7z M17.5,8.9c-0.2,0.9,0,1.5,0.8,1.9c1.9,1,3.6,2.1,4.8,3.8c0.1,0.2,0.4,0.3,0.7,0.3
	c0.4-0.1,1-1.6,0.8-2C22.8,10.5,20.5,9.2,17.5,8.9z M10.8,19.2c-0.1,0.2-0.2,0.3-0.3,0.5c-1.1,2-1.1,4.1-0.9,6.2
	c0,0.1,0.2,0.3,0.3,0.4c0.7,0.1,1.2,0.3,1.9,0.5c0.8-0.8,1-1.6,0.7-2.6c0-0.1,0-0.1-0.1-0.2C11.8,22.4,11.3,20.8,10.8,19.2
	L10.8,19.2z M23,24.5c-1.1,1-2.1,1.9-3.2,2.8c0.5,0.7,1.2,1.4,1.9,2.2c1.2-1.5,2.6-2.3,4.4-2.2C25.5,25.5,24,25.1,23,24.5z
	 M23.8,31.2c1.1,0.4,2,1.1,3.1,1.3c0.7,0.1,1.6,0,2.3-0.4c0.5-0.4,0.8-1.3,1.1-2.1c-1.3-0.5-2.6-0.7-3.9-0.7
	C25.1,29.4,24.2,29.9,23.8,31.2L23.8,31.2z M39,19.1c1.1-1.2,1.2-1.4,0.5-2.7c-0.5-1-1.2-2.1-1.9-2.9c-0.9-1.1-2-1.9-3.3-2.3
	c0.1,0.5,0.2,1.2,0.5,1.5C36.6,14.7,38.2,16.7,39,19.1L39,19.1z M36,26.5c2-0.4,3.5-3.7,2.5-5.9c-0.8,0.1-1.6,0.1-2.6,0.2L36,26.5
	L36,26.5z M38.4,19.6c-0.7-2.2-2-3.9-3.3-5.6c-0.3,0.8-0.7,1.5-1,2.2c0.1,0.1,0.3,0.2,0.5,0.4c0.8,0.5,1.2,1.2,1.4,2.1
	c0.2,1.1,0.3,1.2,1.4,1C37.7,19.8,38.1,19.7,38.4,19.6L38.4,19.6z M17.1,11.2c-0.2,0.8-0.2,1.4,0.5,1.9c0.3,0.2,0.8,0.5,1,0.9
	c1,1.3,2.4,1.2,3.8,1.2C21.6,13.7,19.1,11.9,17.1,11.2z M9.6,16.2v-0.1c-0.5-1.2-2.6-2.3-3.9-2.2c-0.1,0-0.4,0.2-0.4,0.4
	c0,1,0,2,0,2.9C7.5,15.5,8,15.9,9.6,16.2z M13.6,11.1c0,0.4,0,0.9,0,1.3c-0.1,1.1,0.3,2,0.9,2.7c0.1,0.1,0.4,0.3,0.5,0.3
	c0.4,0,0.8-0.1,1.2-0.2C16.4,13.4,15.8,12.2,13.6,11.1L13.6,11.1z M22,24.1c0-0.1-0.1-0.3-0.1-0.4c-0.3-0.1-0.7-0.4-1.1-0.4
	c-1-0.1-1.9-0.1-2.9-0.2c0.5,1.1,1.1,2.1,1.6,3.3C20.4,25.5,21.2,24.8,22,24.1L22,24.1z M16.4,28.4c0.7,1,1.3,2,2,2.8
	c1.5-0.9,1.6-2.5,0.5-3.6C18.1,28,17.3,28.2,16.4,28.4L16.4,28.4z M13.5,37.6c0.2,0.8,1,0.7,1.6,0.5c1.2-0.2,2.4-1.3,2.5-2.2h-3.5
	C13.9,36.4,13.7,37,13.5,37.6L13.5,37.6z M18.7,19.6c0.8,0.8,1.4,1.5,2.1,2.3c0.5,0.7,1.2,0.5,1.9,0.1c-0.7-1-1.3-1.9-2-2.8
	c-0.1-0.1-0.4-0.2-0.5-0.2C19.7,19.1,19.4,19.3,18.7,19.6L18.7,19.6z M16.4,16c-0.4,0.1-1,0.2-1.5,0.3c0.4,1.3,0.2,2.8,1.3,3.9
	c0.3-0.4,0.7-0.9,1-1.3c0.1-0.1,0.1-0.3,0-0.4C17,17.6,16.8,16.9,16.4,16L16.4,16z M32.5,15.2c0.2-1,0.4-1.9,0.5-2.8
	c0-0.1-0.1-0.4-0.2-0.5c-0.3-0.4-0.8-0.8-1.2-1.1c-0.2-0.1-0.5-0.1-0.8-0.2c0.2,1.2,0.5,2.4,0.7,3.5C31.5,14.7,31.6,15,32.5,15.2
	L32.5,15.2z M17.6,25.2c-1.2,0.1-1.3-1.1-2-1.9c-0.1,0.5-0.3,1.1-0.2,1.4c0.2,1,0.7,1.9,1.1,2.8c0.7-0.2,1.3-0.4,2-0.7
	C18.2,26.4,17.9,25.8,17.6,25.2z M23.4,5.2c0.4-1.1,0.9-2,1.2-2.8c-1.4-0.1-2.6,0.5-3.8,1.4C21.8,4.3,22.7,4.8,23.4,5.2z M23.3,33.4
	c-0.1-0.4-0.4-0.9-0.4-1.1c0.1-1-0.5-1.2-1.2-1.6c-0.5,0.9-1,1.7-1.4,2.5C21.2,34.1,22.2,33.3,23.3,33.4L23.3,33.4z M12.4,16.8
	c0.3-0.3,0.8-0.7,0.9-1.1s-0.1-1-0.2-1.4c-0.2-0.7-0.5-1.2-1.2-1.6C11.1,14.3,11.3,16,12.4,16.8z M5.7,13c1.1,0.3,2,0.7,2.8,0.9
	v-3.6C7.6,11.2,6.7,12.1,5.7,13z M39.4,28.7h-4.5c0,0.1-0.1,0.1-0.1,0.2c0,0.4,2.2,1.6,2.5,1.4C37.9,29.9,38.6,29.3,39.4,28.7z
	 M35.2,19.8c0.2-1.6-0.8-2.7-2.7-3.4c-0.1,1,0.7,1.6,1,2.3C33.7,19.2,34.6,19.4,35.2,19.8z M19.3,35.2c2,0.5,3.9,1.1,6,0.4
	c-1.5-0.4-3.1-0.9-4.5-1.1C20.3,34.5,19.6,34.5,19.3,35.2L19.3,35.2z M10.2,14.9v-5C8.8,10.8,9,14.3,10.2,14.9z M27.5,24.3
	c-0.8-1.1-1.5-2.1-2.3-3.2c-0.8,0.7-0.2,1.3-0.1,2C25.2,23.9,26.6,24.4,27.5,24.3L27.5,24.3z M25.9,20.2c1.1,0.7,2.2,1.3,3.7,1.4
	c-0.9-1.2-1.9-2-3.2-2.4C26.3,19.5,26.2,19.7,25.9,20.2z M31.2,19.6c0,0.5-0.3,1.2-0.1,1.5c0.4,0.8,1.1,1.4,1.6,2.2
	C33.3,21.7,32.5,20.6,31.2,19.6L31.2,19.6z M27.5,28.7c-1.1-1.3-3.8-0.5-5.1,1.3c0.2,0.2,0.5,0.4,0.9,0.7
	C23.9,28.6,25.5,28.4,27.5,28.7z M29,24.7c0.7,0.4,1.2,1,1.9,1.4c0.1,0,0.2-0.1,0.2-0.1c-0.2-1.1-0.4-2.2-0.7-3.4
	C29.9,23.4,29.4,24.1,29,24.7L29,24.7z M26.4,21.4c0,0-0.1,0-0.1,0.1c0.7,0.9,1.3,1.7,2.2,2.7c0.4-0.7,0.9-1.2,1.1-1.6
	C28.4,22.1,27.4,21.7,26.4,21.4L26.4,21.4z M12.8,12.2C13,10.4,12.6,10,11,10v1.7C11.6,12,12.2,12.1,12.8,12.2z M8.6,29.6
	c0.9,1.9,1.2,2,2.6,1.5C10.2,29.3,10,29.2,8.6,29.6z M30.9,27.4c-1.5-0.4-2.9-0.8-4.4-1.1c0.2,0.4,0.5,1,1,1.1
	c1.1,0.3,2.2,0.4,3.3,0.7C30.7,27.8,30.9,27.6,30.9,27.4z M30.6,14.5l0.3-0.1c-0.2-1-0.5-2-0.8-2.8c-0.1-0.4-0.4-0.8-0.9-0.4
	c-0.1,0.1-0.2,0.7-0.1,0.9c0.2,0.7,0.7,1.3,1,2C30.2,14.2,30.4,14.3,30.6,14.5L30.6,14.5z M13.1,31.1c0.2-1.3-0.4-2.1-1.1-2.7
	c-0.1-0.1-0.3,0-0.4,0c-0.2,0.1-0.4,0.3-0.9,0.7C11.4,29.6,12.2,30.3,13.1,31.1L13.1,31.1z M25.3,6.8c0,0,0,0.1-0.1,0.2
	c1,1.1,2.1,2.3,3.2,3.5c0.1-0.3,0.3-0.5,0.5-1C27.7,8.6,26.5,7.7,25.3,6.8z M18,18.2c0.5-0.3,1-0.7,1.4-0.9
	c-0.9-1.5-1.1-1.6-2.2-1.3C17.5,16.7,17.8,17.4,18,18.2z M5.9,27.7c1.1,0.4,1.9,1.4,3.2,1.1C7.9,26.9,7.6,26.7,5.9,27.7z M4.2,25.3
	v-8.5C4,19.5,3.3,22.3,4.2,25.3z M23.1,21.1c0.2-0.7,0.9-1.3,0.1-2c-0.8-0.9-0.9-0.9-1.9-0.4C22,19.5,22.6,20.4,23.1,21.1L23.1,21.1
	z M16.3,32.8c0.5,1.3,0.9,1.5,2.4,1.1c-0.2-0.5-0.4-1-0.7-1.5C17.5,32.5,17,32.7,16.3,32.8L16.3,32.8z M33.8,23.1h-0.3
	c0,1.2-0.1,2.3-0.1,3.6c0.4,0,0.7,0,1.1,0.1C34.1,25.5,34,24.3,33.8,23.1L33.8,23.1z M26.9,18.2c0.9,0.5,2,1.3,3.2,2.1
	c0-0.4,0.1-0.8,0.1-1.1c0-0.2-0.2-0.5-0.4-0.5C28.8,18.4,27.7,18.3,26.9,18.2L26.9,18.2z M16,29.9c-0.5,0.7-0.7,1.5-0.1,2
	c0.3,0.2,1,0,1.5,0v-0.2C17,31.1,16.6,30.4,16,29.9z M30.3,32.1c1.1,0.1,1.9-0.3,2.3-1.3c-0.4-0.2-0.8-0.3-1.2-0.5L30.3,32.1
	L30.3,32.1z M18.3,20.3c-0.1,0.5-0.2,1-0.2,1.4c0,0.1,0.1,0.4,0.3,0.4c0.7,0.1,1.2,0.2,2.1,0.4C19.6,21.7,19,21,18.3,20.3L18.3,20.3
	z M25.1,8C25,8.1,25,8.1,24.8,8.3c0.7,1,1.2,2.1,2,3.1c0.3-0.2,0.5-0.3,0.8-0.4C26.7,9.8,25.9,8.9,25.1,8L25.1,8z M16.8,8.7
	c-0.9,0-1.7-0.3-2.7,0.4c0.9,0.3,1.6,0.5,2.4,0.9L16.8,8.7L16.8,8.7z M35,24.5c0.7-1.5-0.1-2.7-1.2-3.8l-0.2,0.1
	C34,22,34.6,23.3,35,24.5z M10.2,35.2c-1.1-1-2.2-1.9-3.3-2.7l-0.1,0.1c0.8,0.9,1.4,1.6,2.2,2.5C9.5,35.4,9.8,35.7,10.2,35.2
	L10.2,35.2z M37.5,8.9c-0.1,0-0.2,0-0.3,0c0,0.3-0.2,0.7-0.1,0.9c0.7,0.9,1.4,1.6,2.1,2.4l0.1-0.1C38.7,11,38.1,9.9,37.5,8.9z
	 M6.2,28.9c0.5,1.2,1,2.3,2.5,2.5C7.9,30.4,7.5,29.3,6.2,28.9z M12.8,34.5c-0.4-1.5-0.5-1.5-1.9-1C11.3,34.3,12,34.7,12.8,34.5z
	 M25.6,24.8c1.1,0.8,2.5,1,3.8,1.3c-0.4-0.4-0.9-1-1.4-1.1C27.2,24.8,26.4,25,25.6,24.8L25.6,24.8z M21,30.1
	c-0.2-0.2-0.3-0.4-0.4-0.5c-0.5,0.9-1,1.7-1.5,2.6c0,0,0.2,0.2,0.4,0.4C20,31.7,20.6,31,21,30.1z M15.4,34.1c-0.9-0.9-1.5-1.2-2.1-1
	C13.5,34,14.2,34.3,15.4,34.1z M5.2,25.1c0.5,0,1,0.1,1.4,0.1c-0.5-0.9-1-1.6-1.6-2.5C5,23.6,5.1,24.4,5.2,25.1z M12.7,17.3
	c0.7,0.8,1.2,1.4,1.7,2.2c0.1,0,0.1-0.1,0.2-0.1c-0.3-0.9-0.8-1.6-1.1-2.5C13.3,17,13.1,17.1,12.7,17.3L12.7,17.3z M34.7,30.1
	c-0.1,0-0.2,0.1-0.3,0.1l0.1,1.1c0.5-0.1,1.1-0.1,1.5-0.2v-0.2C35.7,30.5,35.1,30.3,34.7,30.1L34.7,30.1z M16,11.7h0.2
	c-0.1-0.3,0-0.9-0.1-0.9c-0.7-0.3-1.3-0.5-2-0.8H14L16,11.7L16,11.7z M7.4,10.2c-1.7,0.4-2.2,0.9-2,1.9C6,11.5,6.6,10.9,7.4,10.2z
	 M31.8,26.7c0.7-1.3,0.5-2.3-0.3-3.2C31.6,24.5,31.7,25.5,31.8,26.7z M13,20c0.4,0.8,0.9,1.5,1.2,2.3C14.4,21.5,14,20.7,13,20z
	 M25.6,13.3c0,0.1,0.1,0.1,0.1,0.2c0.7,0,1.3-0.1,1.9-0.1c-0.2-0.3-0.5-0.7-0.9-1.1C26.3,12.6,25.9,13,25.6,13.3L25.6,13.3z
	 M33.1,15.5c1-0.3,1.3-1.5,0.7-2.6C33.6,13.8,33.4,14.6,33.1,15.5z M27.7,33.7v-0.2c-0.7,0.1-1.4,0.1-2.3,0.2
	C26.6,34.5,27,34.3,27.7,33.7z M23.1,15.9c-0.5,0.2-0.9,0.4-1.3,0.7v0.2c0.5,0.1,1.1,0.2,1.7,0.3C23.3,16.7,23.2,16.3,23.1,15.9
	L23.1,15.9z M14,28.4c-0.1,0-0.2,0.1-0.3,0.1l0.2,1.9c0.1,0,0.2,0,0.3,0c0.1-0.2,0.3-0.4,0.2-0.5C14.4,29.4,14.7,28.7,14,28.4
	L14,28.4z M25.2,34.8c-0.7-0.8-1.5-1-2.6-0.4C23.5,34.6,24.3,34.7,25.2,34.8z M26,17.5c-0.2-0.4-0.5-0.9-0.9-1.4
	C24.6,17.4,24.7,17.4,26,17.5z M10.2,36.2c0.5,0.3,1,0.5,1.5,0.9C11.3,35.5,11.3,35.5,10.2,36.2z M32.3,7.3c0.1,0,0.1-0.1,0.2-0.1
	c-0.9-1-1.6-2.1-2.4-3.1L30,4.2C30.7,5.2,31.5,6.3,32.3,7.3L32.3,7.3z M17.2,24.4c0.1,0,0.1-0.1,0.2-0.1c-0.1-0.8-0.3-1.6-1-2.2
	l-0.2,0.1C16.4,23,16.8,23.8,17.2,24.4L17.2,24.4z M23.8,32.1c0.1,1.1,0.5,1.3,1.6,0.9C24.7,32.6,24.3,32.3,23.8,32.1z M24.4,24.4
	l0.1-0.2c-0.4-0.4-0.8-0.9-1.2-1.4c-0.1,0.3-0.2,0.5-0.3,0.8C23.5,23.9,24,24.1,24.4,24.4L24.4,24.4z M12.5,21.8
	c-0.1,0-0.1,0.1-0.2,0.1c0.3,0.9,0.7,1.7,1,2.6c0.1,0,0.2-0.1,0.3-0.1C13.3,23.5,12.8,22.7,12.5,21.8L12.5,21.8z M6.7,26.4v-0.2
	C6.4,26.2,6,26,5.6,26c-0.1,0-0.1,0.5-0.1,0.9C6,26.7,6.4,26.5,6.7,26.4L6.7,26.4z M26.3,14.3v0.2h1.9v-0.2H26.3L26.3,14.3z
	 M12.1,35.7c0.3,0.4,0.4,0.8,0.8,1.2c0.1-0.4,0.2-0.8,0.3-1.1C12.8,35.8,12.6,35.8,12.1,35.7z M32.8,28.6c0.7,0.2,1,0.2,1.2-0.1
	C33.5,28.1,33,28.2,32.8,28.6z M32.2,29.2v0.2c0.9,0.7,1,0.7,1.3,0C33,29.4,32.6,29.3,32.2,29.2L32.2,29.2z M28.4,17.8
	c0-0.1,0.1-0.1,0.1-0.2c-0.5-0.2-1.2-0.5-1.7-0.9c0,0.1-0.1,0.2-0.1,0.3C27.4,17.3,27.9,17.5,28.4,17.8L28.4,17.8z M14.8,31.1
	c-0.2,0.1-0.4,0.1-0.7,0.2c0.3,0.3,0.5,0.7,0.8,1C15,32.1,15,32,15,32C14.9,31.7,14.9,31.4,14.8,31.1L14.8,31.1z"/>
</svg>
