<?xml version="1.0" encoding="utf-8"?>
<!-- Generator: Adobe Illustrator 27.9.0, SVG Export Plug-In . SVG Version: 6.00 Build 0)  -->
<svg version="1.1" id="Layer_1" xmlns="http://www.w3.org/2000/svg" xmlns:xlink="http://www.w3.org/1999/xlink" x="0px" y="0px"
	 viewBox="0 0 43.8 43.8" style="enable-background:new 0 0 43.8 43.8;" xml:space="preserve">
<style type="text/css">
	.st0{fill:#9F5480;stroke:#9F5480;stroke-miterlimit:10;}
</style>
<path class="st0" d="M30.1,5.8c0.4-0.3,0.8-0.7,1.2-0.9c1-0.6,1.8-1.2,2.8-1.6c1.5-0.6,2.7,0.5,2.4,2c-0.2,0.9-0.5,1.8-0.9,2.5
	c-1.4,2.4-2.8,4.7-4.3,7c-0.2,0.4-0.5,0.8-0.6,1.2c1.2-0.8,2.3-1.6,3.5-2.3c0.8-0.5,1.7-0.8,2.6-1.2c0.2-0.1,0.5,0.1,0.7,0.2
	c-0.1,0.2-0.1,0.5-0.3,0.7c-0.4,0.4-0.9,0.8-1.3,1.2c0.4-0.1,0.7-0.3,1.1-0.4c1.4-0.5,2.8-0.8,4.3-0.7s2.5,1.5,2.1,3
	c-0.4,1.4-1.1,2.6-2.2,3.6c-2.2,2-4.5,3.7-7.3,4.9c0.1,0.5,0.3,0.9,0.3,1.4c0.2,1.5-0.2,2.7-1.4,3.6c-0.4,0.3-0.6,0.9-1.3,0.5
	c-3.3,0.8-6.3-0.1-9.2-1.4c0,0-0.1,0-0.2-0.1c-0.4,0.6-0.8,1.2-1.2,1.8c-2.1,3.2-4.2,6.4-6.4,9.6c-0.1,0.2-0.1,0.4-0.2,0.5
	c-0.1,0.2-0.2,0.6-0.4,0.6c-0.3,0.1-0.9,0.2-1.1,0.1c-0.4-0.3,0-0.7,0.2-1c2.7-4,5.5-8,8.2-12.1c-0.8-0.5-1.5-0.9-2.2-1.2
	c-0.2-0.1-0.5,0.1-0.7,0.2c-2.2,1.9-4.5,3.7-6.7,5.6c-0.1,0-0.1,0.1-0.1,0.1c-0.2,0-0.5,0-0.8,0c0-0.3-0.1-0.6,0-0.8
	c0.4-0.5,0.8-1.1,1.2-1.5c0.7-0.7,1.1-1.5,1.2-2.5c-0.2,0.1-0.4,0.2-0.6,0.3c-3.2,1.5-6.4,2.8-9.9,3.8c-0.3,0.1-0.5,0.1-0.8,0.2
	c-1.2,0.2-1.9-0.6-1.4-1.7c0.5-1.1,1-2.2,1.6-3.3c0.6-1,1.4-2,2-3.1c0.3-0.5,0.4-1.2,0.7-1.8c0.8-1.8,1.6-3.7,2.4-5.5
	c0.1-0.3,0.1-0.5,0-0.7c-0.9-1.5-1.8-3-2.6-4.6c-0.2-1-0.6-2.3-0.4-3.8C4.4,5.6,6.7,4.3,8.6,4c2.2-0.3,4.3,0.1,6.3,0.9
	C15.1,5,15.3,5,15.5,5.1c1,0.7,1.7,0.4,2.6-0.3c2-1.6,4.3-2.4,6.8-2.7C26.8,1.9,29.4,3,30,5.4C30,5.5,30.1,5.7,30.1,5.8L30.1,5.8z
	 M8.1,16.5c2.3-3.8,4.8-7.3,8.2-10.2c-1.1-0.4-2-0.8-2.9-1c-1.7-0.7-3.5-1-5.3-0.4c-2.7,0.7-3.8,2.6-3.2,5.3
	C5.4,12.5,6.7,14.5,8.1,16.5L8.1,16.5z M33.5,24.2c0.1,0,0.3-0.1,0.4-0.2c2.4-1.1,4.5-2.6,6.4-4.4c0.8-0.7,1.4-1.7,2-2.6
	c0.7-1.4,0-2.5-1.5-2.4c-0.6,0-1.2,0-1.8,0.2c-2,0.8-4.1,1.5-6.1,2.4c-0.9,0.4-1.7,1-2.5,1.5C30.8,21,32.3,22.5,33.5,24.2L33.5,24.2
	z M24.7,11.2c1.5-1.5,3-3,4.4-4.5c0.1-0.1,0.2-0.3,0.2-0.5c-0.1-0.9-0.4-1.7-1.1-2.3c-1-0.9-2.1-1-3.4-0.9c-2,0.1-3.8,0.9-5.5,2
	c-0.5,0.3-1,0.7-1.5,1.1c1,0.6,1.8,1.2,2.7,1.7C20.7,7.9,21,8,21.3,8.1c1,0.1,1.5,0.6,1.8,1.5c0,0.2,0.1,0.3,0.2,0.4
	C23.7,10.4,24.2,10.8,24.7,11.2L24.7,11.2z M4.8,26.1C3.5,28,2.3,29.8,1.6,32H2c0.2,0,0.4,0,0.6-0.1c3.8-1,7.4-2.5,10.9-4.3
	c0.2-0.1,0.4-0.2,0.4-0.4c0.4-0.8,0.7-1.6,1.1-2.4c-0.6-0.5-1.3-1.1-2-1.6c-0.3,0.2-0.6,0.4-0.9,0.6c-1.7,1.2-3.4,2.4-5.5,2.9
	C6,26.8,5.3,26.8,4.8,26.1L4.8,26.1z M30.2,15.2c0.1-0.2,0.3-0.4,0.5-0.7c1.2-2,2.5-3.9,3.7-5.9c0.5-0.8,0.9-1.7,1.3-2.6
	c0.3-0.6,0.5-1.4-0.1-1.9s-1.3-0.3-1.9,0.1c-1.1,0.7-2.2,1.5-3.3,2.4c-0.1,0.1-0.1,0.4-0.2,0.6C30.1,8,30,8.8,29.8,9.6
	c-0.3,1.2-0.8,2.4-1.2,3.6C29.1,13.9,29.6,14.5,30.2,15.2L30.2,15.2z M19.8,8.2c-0.9-0.5-1.6-1-2.4-1.4c-0.1-0.1-0.4,0-0.5,0.1
	c-0.8,0.7-1.6,1.4-2.3,2.1c-2.2,2.4-4.1,5-5.7,7.8c-0.1,0.2-0.1,0.5-0.1,0.6c0.3,0.4,0.6,0.8,0.9,1.1c1.2-1,2.3-1.9,3.4-2.8
	c0.1-0.1,0.2-0.3,0.3-0.4C14.6,12.1,16.5,9.7,19.8,8.2L19.8,8.2z M22.7,28.4c1.9,0.8,3.9,1.6,6,1.6c1,0,2-0.2,3-0.3
	c0.1,0,0.3-0.2,0.3-0.3c0.2-1.1,0-2.2-0.1-3.3c-0.2,0.1-0.5,0.1-0.6,0.2c-2.4,0.8-4.9,1.4-7.4,1.4C23.2,27.6,22.8,27.7,22.7,28.4z
	 M21.7,13c-0.3,0-0.5,0-0.6,0.1c-2.1,0.5-4.1,1.3-6,2.5c-0.6,0.4-1,0.8-1.1,1.6c0,0.5-0.1,1.1-0.1,1.6c0,0.8,0.2,1.5,0.2,2.2
	c0.1,0,0.1,0,0.2,0c1-0.9,2-1.9,3-2.8c0.1-0.1,0.1-0.3,0.2-0.4c0.1-1.6,1-2.6,2.5-3.1C20.9,14.4,21.2,13.7,21.7,13L21.7,13z
	 M12.4,22.6L9.7,20c-1.3,1.6-2.7,3.2-4,4.8c-0.2,0.2-0.2,0.6-0.1,0.8c0.1,0.2,0.5,0.2,0.8,0.2C8.8,25.3,10.6,23.9,12.4,22.6z
	 M14.9,14.5c2-1.2,4.1-2,6.4-2.5c1.1-0.2,1.1-0.3,1.1-1.4c0-0.2-0.2-0.5-0.4-0.7c-0.3-0.3-0.6-0.5-0.9-0.7c-0.2-0.1-0.5-0.2-0.7-0.1
	C17.6,10,16,12,14.9,14.5L14.9,14.5z M24.4,18.3c-0.5-0.2-0.9-0.3-1.2-0.4c-1.9-0.5-2.5-0.3-3.4,1.1c-0.3,0.4-0.3,1.2,0,1.5
	c0.3,0.4,1.9,0.9,2.2,0.7l0.1-0.1C22.8,20.1,23.6,19.3,24.4,18.3L24.4,18.3z M24.8,25c1.3,0.3,2.5,0.5,3.4-0.5
	c1.1-1.2,0.7-2.6,0.4-4.1c-0.5,0.4-1.1,0.6-1.4,1C26.3,22.5,25.6,23.7,24.8,25z M16.2,24.5c0.3,0.2,0.4,0.3,0.6,0.5
	c0.7,0.5,0.9,0.5,1.5-0.1c0.6-0.5,1.2-1.1,1.7-1.6c-0.5-1-1-1.8-1.5-2.7C17.7,21.9,17,23.2,16.2,24.5L16.2,24.5z M29.3,7.7
	c0,0-0.1-0.1-0.2-0.1c-1.3,1.4-2.6,2.8-4,4.3c1,0.3,1.8,0.6,2.6,0.8C28.7,11.2,29.2,9.5,29.3,7.7L29.3,7.7z M29.7,21.4
	c0,0.3,0,0.5,0,0.6c0.1,1.7-0.5,3.1-1.9,3.7c-1,0.5-2,0.5-3.1,0.2c-0.7-0.2-0.8-0.1-1,0.6c2.2-0.1,4.4-0.5,6.5-1.2
	c1.3-0.4,1.3-0.4,1-1.7C31.2,22.7,30.6,22,29.7,21.4L29.7,21.4z M13.1,22c0.1-0.1,0.2-0.1,0.2-0.1c-0.2-1.5-0.6-3.1-0.4-4.7
	c-0.8,0.7-1.6,1.4-2.4,2.2C11.4,20.2,12.2,21.1,13.1,22z M17.6,19.2c-0.9,0.8-1.9,1.7-2.8,2.5c-0.1,0.1-0.2,0.3-0.2,0.4
	c0.3,0.6,0.6,1.1,0.9,1.7c0.8-1.2,1.4-2.3,2.1-3.3C17.9,20.1,18.1,19.7,17.6,19.2z M25.6,16.3c-0.9-0.4-1.8-0.7-2.7-1
	c-0.2-0.1-0.5-0.1-0.5,0.1c-0.4,0.4-0.7,0.9-1,1.3c0.9,0.2,1.8,0.3,2.7,0.6c0.9,0.2,0.9,0.3,1.5-0.6C25.5,16.6,25.6,16.6,25.6,16.3
	L25.6,16.3z M26.2,15.6c0.1-0.3,0.7-0.5,0.3-1c-0.4-0.5-0.8-1.1-1.3-1.5c-0.2-0.2-0.7-0.2-0.9-0.1c-0.5,0.4-0.8,0.9-1.2,1.3
	C24.2,14.8,25.1,15.2,26.2,15.6L26.2,15.6z M8.2,18c-0.7,1.5-1.4,3-2.1,4.5l0.1,0.1c1-1.1,2-2.2,2.9-3.3C8.9,18.8,8.6,18.5,8.2,18
	L8.2,18z M20.2,26.4c0.6,0.1,1.1,0.2,1.6,0.2c1.1,0.1,1.2,0,1.6-1.1c-0.4-0.2-0.8-0.4-1.1-0.6c-0.1,0-0.3,0-0.4,0
	C21.3,25.4,20.8,25.8,20.2,26.4L20.2,26.4z M23.1,21.2l0.1,0.1c1.3-0.4,2.2-1.4,3.5-2c-0.5-0.2-0.9-0.5-1.3-0.6
	c-0.1,0-0.3,0-0.4,0.1C24.4,19.6,23.7,20.4,23.1,21.2z M25.8,21.9c-0.1-0.1-0.1-0.1-0.2-0.2c-1,0.8-1.9,1.5-3,2.4
	c0.5,0.2,0.9,0.4,1.3,0.6C24.6,23.8,25.2,22.8,25.8,21.9L25.8,21.9z M32.7,28.9C32.8,28.9,32.8,28.9,32.7,28.9l0.2-0.1
	c0.6-0.9,0.4-1.8,0.2-2.8c0-0.1-0.2-0.2-0.3-0.4c-0.1,0.1-0.2,0.3-0.2,0.5C32.6,27,32.7,27.9,32.7,28.9z M28,14.1
	c0,0.3-0.2,0.7-0.1,0.9c0.4,0.6,0.8,1.2,1.2,1.9C29.6,16.2,29.1,14.8,28,14.1z M26.8,16.3c0.3,0.3,0.6,0.5,0.8,0.8
	c0.2,0.3,0.5,0.6,0.7,0.9c0.4-0.4-0.2-1.4-1.1-2.3C27.1,15.9,26.9,16.1,26.8,16.3L26.8,16.3z M27.5,18.7l0.1-0.1
	c-0.4-0.5-0.8-1-1.3-1.5c-0.2,0.3-0.4,0.5-0.6,0.8C26.4,18.1,26.9,18.4,27.5,18.7L27.5,18.7z M22.1,14.4c0.4-0.5,0.9-1,1.4-1.6
	C22.7,12.8,22.2,13.3,22.1,14.4z M15.2,26.7c0.5-0.3,0.9-0.5,1.3-0.7c-0.3-0.2-0.5-0.4-0.7-0.5C15.6,25.9,15.4,26.2,15.2,26.7
	L15.2,26.7z M23,11.9h1.1c-0.4-0.3-0.6-0.6-1-0.9C23.1,11.3,23,11.6,23,11.9z M19.6,17.2l0.2,0.1c0.5-0.6,1-1.3,1.6-1.9l-0.1-0.1
	C20.7,15.9,20.2,16.5,19.6,17.2z M29.2,19.8c0.3,0.2,0.5,0.4,0.7,0.5l0.1-0.1c-0.1-0.3-0.3-0.5-0.5-0.9
	C29.4,19.5,29.3,19.6,29.2,19.8z"/>
</svg>
